<?xml version="1.0" encoding="utf-8"?>
<!-- Generator: Adobe Illustrator 22.1.0, SVG Export Plug-In . SVG Version: 6.00 Build 0)  -->
<svg version="1.1" id="Layer_1" xmlns="http://www.w3.org/2000/svg" xmlns:xlink="http://www.w3.org/1999/xlink" x="0px" y="0px"
	 viewBox="0 0 196.9 196.9" style="enable-background:new 0 0 196.9 196.9;" xml:space="preserve">
<style type="text/css">
	.st0{fill:none;}
	.st1{fill:#E98024;}
</style>
<g id="Group_1725" transform="translate(-164 -6864.15)">
	<g id="Group_1719" transform="translate(-110.935 -470)">
		<g id="Ellipse_795" transform="translate(274.935 7334.15)">
			<g>
				<circle class="st0" cx="97.9" cy="97.7" r="98.4"/>
			</g>
			<g>
				<path class="st1" d="M97.9,196.1c-54.3,0-98.4-44.2-98.4-98.4S43.6-0.8,97.9-0.8c54.3,0,98.4,44.2,98.4,98.4
					S152.2,196.1,97.9,196.1z M97.9,4.2C46.4,4.2,4.5,46.2,4.5,97.7c0,51.5,41.9,93.4,93.4,93.4s93.4-41.9,93.4-93.4
					C191.4,46.2,149.5,4.2,97.9,4.2z"/>
			</g>
		</g>
		<g id="noun_104301_cc" transform="translate(323.503 7380.229)">
			<g id="Path_48">
				<path class="st1" d="M4.8,29.3h8.9l10.6,42.5c0.3,1.2,1.4,2.1,2.7,2.1h55.8c1.3,0,2.4-0.9,2.7-2.1l11.2-44.6
					c0.4-1.5-0.5-3-2-3.3c-1.5-0.4-3,0.5-3.3,2L91,26.5L80.7,68.3H29.3L18.9,26.5l-0.2-0.7c-0.3-1.2-1.4-2.1-2.7-2.1H4.8
					C3.3,23.7,2,25,2,26.5C2,28,3.3,29.3,4.8,29.3z"/>
			</g>
			<g id="Path_49">
				<path class="st1" d="M43.8,90.7c0-6.2-5-11.2-11.2-11.2c-6.2,0-11.2,5-11.2,11.2s5,11.2,11.2,11.2h0
					C38.8,101.8,43.8,96.8,43.8,90.7z M25.5,90.7c0-4,3.2-7.2,7.2-7.2c4,0,7.2,3.2,7.2,7.2c0,4-3.2,7.2-7.2,7.2
					c-4,0-7.2-3.1-7.2-7.1C25.5,90.8,25.5,90.7,25.5,90.7z"/>
			</g>
			<g id="Path_50">
				<path class="st1" d="M77.3,79.5c-6.2,0-11.2,5-11.2,11.2c0,6.2,5,11.2,11.2,11.2c6.2,0,11.2-5,11.2-11.2l0,0
					C88.5,84.5,83.5,79.5,77.3,79.5z M77.3,97.8c-3.9,0-7.1-3.2-7.1-7.1c0-3.9,3.2-7.1,7.1-7.1c3.9,0,7.1,3.2,7.1,7.1
					c0,3.9-3.1,7.1-7,7.1C77.4,97.8,77.4,97.8,77.3,97.8z"/>
			</g>
			<g id="Path_51">
				<path class="st1" d="M53,45.2c1.1,1,2.9,1,4,0l16.7-16.7c1.1-1.1,1.1-2.9,0.1-4c-1.1-1.1-2.9-1.1-4-0.1l0,0l-2,2l-10,10V4.2
					c0-1.5-1.2-2.8-2.8-2.8s-2.8,1.2-2.8,2.8v32.4l-10-10l-2-2c-1.1-1-2.9-1-4,0.2c-1,1.1-1,2.8,0.1,3.8L53,45.2z"/>
			</g>
		</g>
	</g>
</g>
</svg>
