<?xml version="1.0" encoding="utf-8"?>
<!-- Generator: Adobe Illustrator 22.1.0, SVG Export Plug-In . SVG Version: 6.00 Build 0)  -->
<svg version="1.1" id="Layer_1" xmlns="http://www.w3.org/2000/svg" xmlns:xlink="http://www.w3.org/1999/xlink" x="0px" y="0px"
	 viewBox="0 0 196.9 196.9" style="enable-background:new 0 0 196.9 196.9;" xml:space="preserve">
<style type="text/css">
	.st0{fill:none;}
	.st1{fill:#E98024;}
</style>
<g id="Group_1722" transform="translate(-320.888 -5996.798)">
	<g id="Ellipse_806" transform="translate(320.888 5996.798)">
		<g>
			<circle class="st0" cx="98.4" cy="98.4" r="98.4"/>
		</g>
		<g>
			<path class="st1" d="M98.4,196.9C44.2,196.9,0,152.7,0,98.4C0,44.2,44.2,0,98.4,0s98.4,44.2,98.4,98.4
				C196.9,152.7,152.7,196.9,98.4,196.9z M98.4,5C46.9,5,5,46.9,5,98.4c0,51.5,41.9,93.4,93.4,93.4s93.4-41.9,93.4-93.4
				C191.9,46.9,150,5,98.4,5z"/>
		</g>
	</g>
	<g id="Group_1701" transform="translate(374.827 6055.691)">
		<g id="Group_15">
			<g id="Group_13" transform="translate(15.017)">
				<g id="Path_32">
					<path class="st1" d="M19.7,39.5C8.8,39.5,0,30.7,0,19.7S8.8,0,19.7,0c10.9,0,19.7,8.8,19.7,19.7C39.5,30.6,30.6,39.5,19.7,39.5
						z M19.7,2.4c-9.6,0-17.4,7.8-17.4,17.4s7.8,17.4,17.4,17.4s17.4-7.8,17.4-17.4c0,0,0,0,0,0C37.1,10.1,29.3,2.4,19.7,2.4
						L19.7,2.4z"/>
					<path class="st1" d="M19.7,40.5L19.7,40.5C8.3,40.5-1,31.2-1,19.7C-1,8.3,8.3-1,19.7-1c11.4,0,20.7,9.3,20.7,20.7
						C40.5,31.2,31.2,40.5,19.7,40.5z M19.7,1C9.4,1,1,9.4,1,19.7s8.4,18.7,18.7,18.7c10.3,0,18.7-8.4,18.7-18.7
						C38.5,9.4,30.1,1,19.7,1z M19.7,38.1c-10.1,0-18.4-8.3-18.4-18.4C1.4,9.6,9.6,1.4,19.7,1.4h0c10.1,0,18.4,8.3,18.4,18.4
						C38.1,29.9,29.9,38.1,19.7,38.1z M19.7,3.4c-9,0-16.4,7.4-16.4,16.4c0,9,7.4,16.4,16.4,16.4s16.4-7.4,16.4-16.4
						C36.1,10.7,28.8,3.4,19.7,3.4L19.7,3.4z"/>
				</g>
			</g>
			<g id="Group_14" transform="translate(0 46.273)">
				<g id="Path_33">
					<path class="st1" d="M68.3,31.6H1.2C0.5,31.6,0,31,0,30.4c0,0,0,0,0,0V15.9C0,7.1,8.2,0,18.2,0h33.1c10,0,18.2,7.1,18.2,15.9
						v14.5C69.5,31,69,31.6,68.3,31.6C68.4,31.6,68.3,31.6,68.3,31.6z M2.3,29.2h64.8V15.9c0-7.5-7.1-13.5-15.8-13.5H18.2
						C9.5,2.4,2.4,8.4,2.4,15.9L2.3,29.2z"/>
					<path class="st1" d="M1.2,32.6c-0.6,0-1.1-0.2-1.5-0.6C-0.8,31.5-1,31-1,30.4V15.9C-1,6.6,7.6-1,18.2-1h33.1
						c10.6,0,19.2,7.6,19.2,16.9v14.5c0,1.2-1,2.2-2.2,2.2H1.2C1.2,32.6,1.2,32.6,1.2,32.6z M18.2,1C8.7,1,1,7.7,1,15.9v14.5
						c0,0.1,0.1,0.2,0.2,0.2l0,0h67.2h0c0.1,0,0.2-0.1,0.2-0.2V15.9C68.5,7.7,60.8,1,51.3,1H18.2z M68.2,30.2H1.3l0-14.3
						c0-8,7.6-14.5,16.8-14.5h33.1c9.3,0,16.8,6.5,16.8,14.5V30.2z M3.3,28.2h62.8V15.9c0-6.9-6.7-12.5-14.8-12.5H18.2
						C10,3.4,3.4,9,3.4,15.9L3.3,28.2z"/>
				</g>
			</g>
		</g>
		<g id="Group_16" transform="translate(67.173 14.126)">
			<g id="Path_34">
				<path class="st1" d="M13.5,31c-0.3,0-0.6-0.1-0.8-0.3L0.3,18.3c-0.4-0.5-0.4-1.2,0.1-1.7c0.5-0.4,1.1-0.4,1.6,0l11.5,11.5
					L41.3,0.3c0.4-0.5,1.2-0.5,1.7-0.1c0.5,0.4,0.5,1.2,0.1,1.7C43,2,43,2,43,2L14.3,30.7C14.1,30.9,13.8,31,13.5,31z"/>
				<path class="st1" d="M13.5,32c-0.6,0-1.1-0.2-1.5-0.6L-0.4,19C-0.8,18.6-1,18-1,17.5s0.3-1.1,0.7-1.5c0.8-0.8,2.1-0.8,3,0
					l10.8,10.8L40.6-0.4C41-0.8,41.5-1,42.1-1c0.6,0,1.1,0.2,1.6,0.6c0.4,0.4,0.7,0.9,0.7,1.5s-0.2,1.1-0.6,1.6l-0.1,0.1L15,31.4
					C14.6,31.8,14.1,32,13.5,32C13.5,32,13.5,32,13.5,32z M1.2,17.4c0,0-0.1,0-0.1,0.1c-0.1,0.1-0.1,0.2,0,0.2L13.4,30
					c0,0,0.1,0.1,0.1,0.1h0h0c0,0,0.1,0,0.1-0.1L42.3,1.3c0.1-0.1,0.1-0.2,0-0.3C42.3,1,42.1,1,42.1,1L13.5,29.6L1.2,17.4
					C1.3,17.4,1.3,17.4,1.2,17.4z"/>
			</g>
		</g>
	</g>
</g>
</svg>
