<?xml version="1.0" encoding="utf-8"?>
<!-- Generator: Adobe Illustrator 22.1.0, SVG Export Plug-In . SVG Version: 6.00 Build 0)  -->
<svg version="1.1" id="Layer_1" xmlns="http://www.w3.org/2000/svg" xmlns:xlink="http://www.w3.org/1999/xlink" x="0px" y="0px"
	 viewBox="0 0 196.9 196.9" style="enable-background:new 0 0 196.9 196.9;" xml:space="preserve">
<style type="text/css">
	.st0{fill:none;}
	.st1{fill:none;stroke:#E98024;stroke-width:5;}
	.st2{fill:#E98024;}
</style>
<g id="Group_1702" transform="translate(-0.164 1601)">
	<g id="Ellipse_5" transform="translate(945.134 1391.723)">
		<circle class="st0" cx="-846.6" cy="-2894.5" r="98.4"/>
		<circle class="st1" cx="-846.6" cy="-2894.5" r="95.9"/>
	</g>
	<g id="noun_1355051_cc" transform="translate(988.216 1425.777)">
		<g id="Group_49" transform="translate(0)">
			<g id="Group_48">
				<path id="Path_78" class="st2" d="M-881.7-2914.5v-21.1l18.1,11.7C-868.2-2918.5-874.7-2915.2-881.7-2914.5 M-904.8-2923.9
					l18.1-11.7v21.1C-893.8-2915.2-900.3-2918.5-904.8-2923.9 M-886.7-2968.5v27l-21,13.5c-7.5-13-3-29.6,10-37
					C-894.3-2966.9-890.6-2968.1-886.7-2968.5 M-857.2-2941.5c0,4.7-1.2,9.4-3.6,13.5l-21-13.5v-27
					C-867.8-2967.2-857.2-2955.5-857.2-2941.5 M-857.8-2923.3c10.1-14.6,6.4-34.6-8.2-44.6c-14.6-10.1-34.6-6.4-44.6,8.2
					c-7.6,11-7.6,25.5,0,36.4c0,0,0,0.1,0.1,0.1c0.1,0.1,0.1,0.2,0.2,0.3c10.2,14.4,30.2,17.9,44.7,7.6c3-2.1,5.5-4.7,7.6-7.6
					c0.1-0.1,0.1-0.2,0.2-0.3C-857.9-2923.2-857.8-2923.2-857.8-2923.3 M-858.2-2897.5c-0.4,0.5-0.6,1-0.6,1.6v26.4h-44.4v-21.7
					c0-1.4-1.1-2.5-2.5-2.5c-0.1,0-0.2,0-0.4,0l-13.9,2c-3,0.3-5.7-1.9-6-4.9c0-0.2,0-0.4,0-0.6c0-0.1,0-0.3,0-0.4l-2.6-17.4
					c-0.2-1.2-1.2-2.1-2.5-2.1h-4.9c-2.1,0-3.7-1.7-3.7-3.7c0-0.6,0.2-1.3,0.5-1.8l10.1-17.9c0.4-0.5,0.5-1,0.5-1.6
					c0-0.6,0-1.1,0-1.5c0-24.1,19.6-43.7,43.7-43.7c24.6,0,45.4,20,45.4,43.7C-839.6-2929.7-847.3-2910.6-858.2-2897.5
					 M-849.8-2978.3c-9.5-9.1-22.1-14.1-35.2-14.2c-26.9,0-48.7,21.9-48.7,48.8c0,0.3,0,0.6,0,0.9l-10,17.6
					c-2.4,4.2-0.9,9.5,3.3,11.9c1.3,0.7,2.8,1.1,4.3,1.1h2.7l2.2,15.1c0.1,5.8,4.8,10.5,10.6,10.4c0.3,0,0.7,0,1-0.1l0.1,0l11.1-1.6
					v21.3c0,1.4,1.1,2.5,2.5,2.5c0,0,0,0,0,0h49.5c1.4,0,2.5-1.1,2.5-2.5c0,0,0,0,0,0v-28c11.3-13.9,19.2-33.8,19.2-48.8
					C-834.7-2956.9-840.2-2969.4-849.8-2978.3"/>
			</g>
		</g>
	</g>
</g>
</svg>
