<?xml version="1.0" encoding="utf-8"?>
<!-- Generator: Adobe Illustrator 22.1.0, SVG Export Plug-In . SVG Version: 6.00 Build 0)  -->
<svg version="1.1" id="Layer_1" xmlns="http://www.w3.org/2000/svg" xmlns:xlink="http://www.w3.org/1999/xlink" x="0px" y="0px"
	 viewBox="0 0 196.9 196.9" style="enable-background:new 0 0 196.9 196.9;" xml:space="preserve">
<style type="text/css">
	.st0{fill:none;}
	.st1{fill:#E98024;}
</style>
<g id="Group_1749" transform="translate(-165 -2838)">
	<g id="Ellipse_5" transform="translate(165 2838)">
		<g>
			<circle class="st0" cx="98.4" cy="98.4" r="98.4"/>
		</g>
		<g>
			<path class="st1" d="M98.4,196.9C44.2,196.9,0,152.7,0,98.4S44.2,0,98.4,0s98.4,44.2,98.4,98.4S152.7,196.9,98.4,196.9z M98.4,5
				C46.9,5,5,46.9,5,98.4s41.9,93.4,93.4,93.4s93.4-41.9,93.4-93.4S150,5,98.4,5z"/>
		</g>
	</g>
	<g id="noun_1049670_cc" transform="translate(205.168 2871.214)">
		<g id="Group_6" transform="translate(0 0)">
			<g id="Path_21">
				<path class="st1" d="M58.1,0c-0.1,0-0.3,0.1-0.4,0.1L0.9,24.1C0.4,24.3,0,24.8,0,25.4c0,48.8,23.6,90.4,57.6,108.9
					c0.4,0.2,1,0.2,1.4,0c34-18.5,57.6-60.1,57.6-108.9c0-0.6-0.4-1.1-0.9-1.4L58.8,0.1C58.6,0,58.4,0,58.1,0L58.1,0z M58.3,3.1
					l55.2,23.3c-0.3,47-23,87-55.2,104.9C26,113.3,3.3,73.4,3,26.3L58.3,3.1z M58.1,25.4c-0.8,0.1-1.3,0.8-1.3,1.5v6
					c-4.8,0.3-8.5,1.9-11,4.5c-2.6,2.8-4.1,6.6-4,10.4c0,5.9,4.2,10.3,8.1,13.3c2.4,1.8,5,3.3,7.8,4.5c2.5,1.1,4.9,2.5,7.1,4.2
					c3.6,2.7,6.9,6.5,6.9,10.9c0.1,3.1-1,6.1-3.1,8.3c-2.1,2.2-5.4,3.6-10.3,3.6c-11,0-15-11-15-11c-0.3-0.8-1.1-1.2-1.9-0.9
					c-0.8,0.3-1.2,1.1-0.9,1.9c0,0,0,0.1,0,0.1c0,0,4.5,11.9,16.3,12.9v6c0,0.8,0.6,1.5,1.5,1.5c0.8,0,1.5-0.6,1.5-1.5
					c0,0,0-0.1,0-0.1v-6c4.8-0.3,8.5-1.9,11-4.5c2.6-2.8,4.1-6.6,4-10.4c0-5.9-4.2-10.4-8.1-13.3c-2.4-1.8-5-3.3-7.8-4.5
					c-2.5-1.1-4.9-2.5-7.1-4.2c-3.6-2.7-6.9-6.4-6.9-10.9c-0.1-3.1,1-6.1,3.1-8.4c2.1-2.2,5.4-3.6,10.3-3.6c11,0,15,11,15,11
					c0.3,0.8,1.2,1.1,2,0.8c0.7-0.3,1.1-1.1,0.8-1.9c0,0-4.5-11.8-16.3-12.8v-6.1c0-0.8-0.6-1.5-1.4-1.6
					C58.3,25.3,58.2,25.4,58.1,25.4z"/>
				<path class="st1" d="M58.3,135c-0.3,0-0.6-0.1-0.9-0.2C22.2,115.7-0.5,72.7-0.5,25.4c0-0.8,0.5-1.5,1.2-1.8L57.5-0.3
					c0.1-0.1,0.3-0.1,0.5-0.2l0.1,0c0.3,0,0.6,0.1,0.9,0.2l56.8,23.9c0.7,0.3,1.2,1,1.2,1.8c0,47.3-22.7,90.3-57.8,109.4
					C58.9,134.9,58.6,135,58.3,135z M58.2,0.5c-0.1,0-0.2,0-0.2,0.1L1.1,24.5c-0.4,0.2-0.6,0.5-0.6,0.9c0,47,22.5,89.5,57.3,108.5
					c0.3,0.2,0.6,0.2,0.9,0c34.8-18.9,57.3-61.5,57.3-108.5c0-0.4-0.3-0.7-0.6-0.9L58.6,0.6C58.5,0.5,58.3,0.5,58.2,0.5z
					 M58.3,131.8l-0.2-0.1C24.6,113.1,2.8,71.7,2.5,26.3l0-0.3L58.3,2.5L114,26l0,0.3c-0.3,45.4-22.1,86.7-55.5,105.3L58.3,131.8z
					 M3.5,26.7c0.4,44.8,21.8,85.5,54.7,104c32.9-18.4,54.4-59.2,54.7-104l-54.7-23L3.5,26.7z M58.3,103.7
					C58.3,103.7,58.2,103.7,58.3,103.7c-1.2,0-2-0.9-2-2v-5.6C44.6,94.8,40,83,40,82.9c-0.4-1.1,0.1-2.3,1.2-2.6
					c1-0.4,2.2,0.2,2.6,1.2c0,0.1,4.1,10.7,14.6,10.7c4.3,0,7.7-1.2,10-3.5c2-2.2,3.1-5,3-8c0-4.6-3.6-8.3-6.7-10.5
					c-2.2-1.6-4.5-3-7-4.1c-2.8-1.2-5.5-2.8-7.9-4.6c-5.5-4.1-8.3-8.7-8.3-13.7c-0.1-4,1.4-7.8,4.1-10.8c2.6-2.7,6.3-4.2,10.8-4.6
					v-5.6c0-1,0.7-1.9,1.7-2c0.1,0,0.2,0,0.3,0c1.1,0,2,1,1.9,2.1v5.6c11.7,1.2,16.3,12.9,16.3,13.1c0.4,1-0.1,2.1-1.1,2.5
					c-1,0.4-2.2-0.1-2.6-1.1c0-0.1-4.1-10.7-14.6-10.7c-4.4,0-7.7,1.2-10,3.4c-2,2.2-3.1,5-3,8c0,4.5,3.6,8.2,6.7,10.5
					c2.2,1.6,4.5,3,7,4.1c2.8,1.2,5.5,2.8,7.9,4.6c5.5,4.1,8.3,8.8,8.3,13.7c0.1,4-1.4,7.8-4.1,10.8c-2.6,2.7-6.3,4.2-10.8,4.6v5.6
					c0,0.6-0.2,1.1-0.6,1.5C59.3,103.5,58.8,103.7,58.3,103.7z M41.8,81.1c-0.1,0-0.2,0-0.3,0.1c-0.5,0.2-0.8,0.8-0.6,1.3
					c0.1,0.2,4.6,11.7,15.9,12.6l0.5,0v6.5c0,0.6,0.4,1,1,1c0.3,0,0.5-0.1,0.7-0.3c0.2-0.2,0.3-0.4,0.3-0.7v-6.6l0.5,0
					c4.5-0.3,8.1-1.8,10.6-4.3c2.6-2.7,3.9-6.3,3.8-10.1c0-4.6-2.7-9-7.9-12.9c-2.4-1.8-5-3.3-7.7-4.5c-2.6-1.1-5-2.5-7.2-4.2
					c-3.2-2.4-7.1-6.4-7.1-11.3c-0.1-3.2,1.1-6.3,3.3-8.7c2.4-2.5,6-3.8,10.7-3.8c11.2,0,15.5,11.2,15.5,11.3
					c0.2,0.5,0.8,0.7,1.3,0.5c0.5-0.2,0.7-0.8,0.6-1.3c0-0.1-4.6-11.5-15.9-12.5l-0.5,0v-6.5c0-0.6-0.4-1-1-1.1c-0.1,0-0.1,0-0.2,0
					h0c-0.5,0.1-0.9,0.5-0.9,1l0,6.5l-0.5,0c-4.5,0.3-8.1,1.8-10.6,4.3c-2.6,2.7-3.9,6.3-3.8,10.1c0,4.6,2.7,8.9,7.9,12.9
					c2.4,1.8,5,3.3,7.7,4.5c2.6,1.1,5,2.5,7.2,4.2c3.2,2.4,7.1,6.4,7.1,11.3c0.1,3.2-1.1,6.3-3.3,8.7c-2.5,2.5-6.1,3.8-10.7,3.8
					c-11.2,0-15.5-11.2-15.5-11.3C42.6,81.4,42.2,81.1,41.8,81.1z"/>
			</g>
		</g>
	</g>
</g>
</svg>
