<?xml version="1.0" encoding="utf-8"?>
<!-- Generator: Adobe Illustrator 22.1.0, SVG Export Plug-In . SVG Version: 6.00 Build 0)  -->
<svg version="1.1" id="Layer_1" xmlns="http://www.w3.org/2000/svg" xmlns:xlink="http://www.w3.org/1999/xlink" x="0px" y="0px"
	 viewBox="0 0 196.9 196.9" style="enable-background:new 0 0 196.9 196.9;" xml:space="preserve">
<style type="text/css">
	.st0{fill:none;}
	.st1{fill:#E98024;}
</style>
<g id="Group_1727" transform="translate(-621.876 -10514.644)">
	<g id="Ellipse_813" transform="translate(621.875 10514.644)">
		<g>
			<circle class="st0" cx="98.4" cy="98.4" r="98.4"/>
		</g>
		<g>
			<path class="st1" d="M98.4,196.9C44.2,196.9,0,152.7,0,98.4S44.2,0,98.4,0s98.4,44.2,98.4,98.4S152.7,196.9,98.4,196.9z M98.4,5
				C46.9,5,5,46.9,5,98.4s41.9,93.4,93.4,93.4s93.4-41.9,93.4-93.4S150,5,98.4,5z"/>
		</g>
	</g>
	<g>
		<g id="Line_58">
			<rect x="659.3" y="10610.9" class="st1" width="122" height="5"/>
		</g>
		<g id="Ellipse_814" transform="translate(700.875 10550.62)">
			<g>
				<circle class="st0" cx="19.4" cy="23.5" r="19.2"/>
			</g>
			<g>
				<path class="st1" d="M19.4,42.7c-10.6,0-19.2-8.6-19.2-19.2S8.9,4.3,19.4,4.3c10.6,0,19.2,8.6,19.2,19.2S30,42.7,19.4,42.7z
					 M19.4,9.3c-7.8,0-14.2,6.4-14.2,14.2s6.4,14.2,14.2,14.2s14.2-6.4,14.2-14.2S27.3,9.3,19.4,9.3z"/>
			</g>
		</g>
		<g id="Ellipse_815" transform="translate(700.875 10631.527)">
			<g>
				<circle class="st0" cx="19.4" cy="20.5" r="19.2"/>
			</g>
			<g>
				<path class="st1" d="M19.4,39.7c-10.6,0-19.2-8.6-19.2-19.2S8.9,1.3,19.4,1.3c10.6,0,19.2,8.6,19.2,19.2S30,39.7,19.4,39.7z
					 M19.4,6.3c-7.8,0-14.2,6.4-14.2,14.2s6.4,14.2,14.2,14.2s14.2-6.4,14.2-14.2S27.3,6.3,19.4,6.3z"/>
			</g>
		</g>
	</g>
</g>
</svg>
