<?xml version="1.0" encoding="utf-8"?>
<!-- Generator: Adobe Illustrator 22.1.0, SVG Export Plug-In . SVG Version: 6.00 Build 0)  -->
<svg version="1.1" id="Layer_1" xmlns="http://www.w3.org/2000/svg" xmlns:xlink="http://www.w3.org/1999/xlink" x="0px" y="0px"
	 viewBox="0 0 196.9 196.9" style="enable-background:new 0 0 196.9 196.9;" xml:space="preserve">
<style type="text/css">
	.st0{fill:none;stroke:#E98024;stroke-width:5;stroke-miterlimit:10;}
	.st1{fill:none;}
	.st2{fill:#E98024;}
</style>
<g>
	<path class="st0" d="M73.5,98.3"/>
</g>
<g>
	<g id="Ellipse_797" transform="translate(946.669 7334.077)">
		<g>
			<circle class="st1" cx="-848.3" cy="-7235.7" r="98.4"/>
		</g>
		<g>
			<path class="st2" d="M-848.3-7137.2c-54.2,0-98.4-44.2-98.4-98.5c0-54.2,44.2-98.4,98.4-98.4c54.3,0,98.4,44.2,98.4,98.4
				C-749.8-7181.4-794-7137.2-848.3-7137.2z M-848.3-7329.1c-51.5,0-93.4,41.9-93.4,93.4s41.9,93.4,93.4,93.4s93.4-41.9,93.4-93.4
				C-754.8-7287.2-796.7-7329.1-848.3-7329.1z"/>
		</g>
	</g>
	<g>
		<g>
			<path class="st2" d="M126.4,117.4L126.4,117.4c-0.9,0-1.7-0.2-2.5-0.6c-1.8-1-2.9-2.8-2.9-4.7v-11.3H75.8l0.1-4.9h47.4
				c1.4,0,2.6,1.2,2.6,2.6v13.6c0,0.2,0.1,0.3,0.1,0.3c0.1,0.1,0.2,0.1,0.3,0.1l0,0c0.1,0,0.2,0,0.3-0.1l29.3-29.3
				c0.2-0.2,0.2-0.5,0-0.6l-29.3-29.3c-0.1-0.1-0.2-0.1-0.3-0.1l0,0c-0.1,0-0.2,0-0.3,0.1c-0.1,0.1-0.1,0.2-0.1,0.3v13.2
				c0,1.6-1.3,2.9-2.9,2.9H99.3c-0.7,0-1.4-0.3-1.9-0.7l-0.2-0.2c-1-0.9-1-2.5,0.1-3.3l0.2-0.1c0.5-0.4,1.1-0.6,1.7-0.6h22V53.4
				c0-1.4,0.6-2.8,1.6-3.8s2.3-1.6,3.8-1.6l0,0c1.4,0,2.8,0.6,3.8,1.6l29.3,29.3c2.1,2.1,2.1,5.4,0,7.5l-29.3,29.3
				C129.2,116.8,127.8,117.4,126.4,117.4z"/>
		</g>
		<g>
			<path class="st2" d="M70.5,148.6c-1.4,0-2.7-0.5-3.8-1.6l-29.3-29.3c-2.1-2.1-2.1-5.4,0-7.5l29.3-29.3c1-1,2.3-1.6,3.8-1.6
				c1.4,0,2.8,0.6,3.8,1.6s1.6,2.3,1.6,3.8V96h45.2l-0.1,4.9l0.1-2.4v2.4H74c-1.6,0-2.9-1.3-2.9-2.9V84.8c0-0.2-0.1-0.3-0.1-0.3
				c-0.1-0.1-0.4-0.2-0.6,0l-29.3,29.3c-0.2,0.2-0.2,0.5,0,0.6l29.3,29.3c0.2,0.2,0.5,0.2,0.6,0c0.1-0.1,0.1-0.2,0.1-0.3v-13.2
				c0-1.6,1.3-2.9,2.9-2.9h25.6c0.7,0,1.5,0.3,2.1,0.7h0c1.1,0.9,1.1,2.6,0,3.4l0,0c-0.6,0.5-1.2,0.7-2,0.7H75.9v11.3
				c0,1.4-0.6,2.8-1.6,3.8C73.2,148.1,71.8,148.6,70.5,148.6z"/>
		</g>
	</g>
</g>
</svg>
