<svg xmlns="http://www.w3.org/2000/svg" xmlns:xlink="http://www.w3.org/1999/xlink" viewBox="0 0 412.52 385.51"><defs><style>.cls-1{fill:none;}.cls-2{isolation:isolate;}.cls-3{clip-path:url(#clip-path);}.cls-4{fill:#b9752a;}.cls-5{fill:#b9762a;}.cls-6{fill:#ba772a;}.cls-7{fill:#ba782b;}.cls-8{fill:#bb782b;}.cls-9{fill:#bb792b;}.cls-10{fill:#bc7a2c;}.cls-11{fill:#bc7b2c;}.cls-12{fill:#bd7b2c;}.cls-13{fill:#bd7c2d;}.cls-14{fill:#be7d2d;}.cls-15{fill:#be7e2e;}.cls-16{fill:#bf7e2e;}.cls-17{fill:#bf7f2f;}.cls-18{fill:#c0802f;}.cls-19{fill:#c08130;}.cls-20{fill:#c18130;}.cls-21{fill:#c18231;}.cls-22{fill:#c18331;}.cls-23{fill:#c28432;}.cls-24{fill:#c38533;}.cls-25{fill:#c38634;}.cls-26{fill:#c48734;}.cls-27{fill:#c58835;}.cls-28{fill:#c68936;}.cls-29{fill:#c68a37;}.cls-30{fill:#c78b37;}.cls-31{fill:#c78c38;}.cls-32{fill:#c88c38;}.cls-33{fill:#c88d39;}.cls-34{fill:#c98e39;}.cls-35{fill:#c98f3a;}.cls-36{fill:#ca903b;}.cls-37{fill:#ca913b;}.cls-38{fill:#cb913c;}.cls-39{fill:#cb923d;}.cls-40{fill:#cc933d;}.cls-41{fill:#cc943e;}.cls-42{fill:#cd953e;}.cls-43{fill:#cd963f;}.cls-44{fill:#ce9640;}.cls-45{fill:#ce9740;}.cls-46{fill:#cf9841;}.cls-47{fill:#cf9942;}.cls-48{fill:#d09a43;}.cls-49{fill:#d09b43;}.cls-50{fill:#d19c44;}.cls-51{fill:#d29c45;}.cls-52{fill:#d29d45;}.cls-53{fill:#d39e46;}.cls-54{fill:#d39f47;}.cls-55{fill:#d4a048;}.cls-56{fill:#d4a148;}.cls-57{fill:#d5a249;}.cls-58{fill:#d5a34a;}.cls-59{fill:#d6a34b;}.cls-60{fill:#d7a44b;}.cls-61{fill:#d7a54c;}.cls-62{fill:#d8a64d;}.cls-63{fill:#d8a74e;}.cls-64{fill:#d9a84e;}.cls-65{fill:#d9a94f;}.cls-66{fill:#daaa50;}.cls-67{fill:#dbab51;}.cls-68{fill:#dbac51;}.cls-69{fill:#dcad52;}.cls-70{fill:#dcad53;}.cls-71{fill:#ddae54;}.cls-72{fill:#deaf55;}.cls-73{fill:#deb055;}.cls-74{fill:#dfb156;}.cls-75{fill:#dfb257;}.cls-76{fill:#e0b358;}.cls-77{fill:#e1b459;}.cls-78{fill:#e1b559;}.cls-79{fill:#e2b65a;}.cls-80{fill:#e2b75b;}.cls-81{fill:#e3b85c;}.cls-82{fill:#e4b95d;}.cls-83{fill:#e4ba5e;}.cls-84{fill:#e5bb5e;}.cls-85{fill:#e6bc5f;}.cls-86{fill:#e6bd60;}.cls-87{fill:#e7be61;}.cls-88{fill:#e7bf62;}.cls-89{fill:#e8c063;}.cls-90{fill:#e9c164;}.cls-91{fill:#e9c264;}.cls-92{fill:#eac365;}.cls-93{fill:#ebc466;}.cls-94{fill:#ebc567;}.cls-95{fill:#ecc668;}.cls-96{fill:#edc769;}.cls-97{fill:#eec869;}.cls-98{fill:#eec96a;}.cls-99{fill:#efca6b;}.cls-100{fill:#f0cb6c;}.cls-101{fill:#f0cc6d;}.cls-102{fill:#f1cd6e;}.cls-103{fill:#f2ce6e;}.cls-104{fill:#f3cf6f;}.cls-105{fill:#f3d070;}.cls-106{fill:#f3d071;}.cls-107{fill:#f4d072;}.cls-108{fill:#f4d173;}.cls-109{fill:#f4d174;}.cls-110{fill:#f4d176;}.cls-111{fill:#f4d277;}.cls-112{fill:#f4d278;}.cls-113{fill:#f4d279;}.cls-114{fill:#f4d37a;}.cls-115{fill:#f5d37b;}.cls-116{fill:#f5d37c;}.cls-117{fill:#f5d47d;}.cls-118{fill:#f5d47e;}.cls-119{fill:#f5d47f;}.cls-120{fill:#f5d580;}.cls-121{fill:#f5d581;}.cls-122{fill:#f6d582;}.cls-123{fill:#f6d583;}.cls-124{fill:#f6d684;}.cls-125{fill:#f6d685;}.cls-126{fill:#f6d786;}.cls-127{fill:#f6d787;}.cls-128{fill:#f7d788;}.cls-129{fill:#f7d889;}.cls-130{fill:#f7d88a;}.cls-131{fill:#f7d88b;}.cls-132{fill:#f7d98c;}.cls-133{fill:#f7d98d;}.cls-134{fill:#f7d98e;}.cls-135{fill:#f7d98f;}.cls-136{fill:#f8da8f;}.cls-137{fill:#f8da90;}.cls-138{fill:#f8da91;}.cls-139{fill:#f8db92;}.cls-140{fill:#f8db93;}.cls-141{fill:#f8db94;}.cls-142{fill:#f8db95;}.cls-143{fill:#f8dc96;}.cls-144{fill:#f9dc96;}.cls-145{fill:#f9dc97;}.cls-146{fill:#f9dd98;}.cls-147{fill:#f9dd99;}.cls-148{fill:#f9dd9a;}.cls-149{fill:#f9dd9b;}.cls-150{fill:#f9de9c;}.cls-151{fill:#fade9c;}.cls-152{fill:#fade9d;}.cls-153{fill:#fadf9e;}.cls-154{fill:#fadf9f;}.cls-155{fill:#fadfa0;}.cls-156{fill:#fadfa1;}.cls-157{fill:#fae0a1;}.cls-158{fill:#fae0a2;}.cls-159{fill:#fbe0a3;}.cls-160{fill:#fbe1a4;}.cls-161{fill:#fbe1a5;}.cls-162{fill:#fbe1a6;}.cls-163{fill:#fbe2a7;}.cls-164{fill:#fbe2a8;}.cls-165{fill:#fce2a9;}.cls-166{fill:#fce3aa;}.cls-167{fill:#fce3ab;}.cls-168{fill:#fce3ac;}.cls-169{fill:#fce4ad;}.cls-170{fill:#fce4ae;}.cls-171{fill:#fde4af;}.cls-172{fill:#fde5af;}.cls-173{fill:#fde5b0;}.cls-174{fill:#fde5b1;}.cls-175{fill:#fde6b2;}.cls-176{fill:#fde6b3;}.cls-177{fill:#fee6b4;}.cls-178{fill:#fee7b5;}.cls-179{fill:#fee7b6;}.cls-180{fill:#fee7b7;}.cls-181{fill:#fee8b7;}.cls-182{fill:#ffe8b8;}.cls-183{fill:#ffe8b9;}.cls-184{fill:#ffe8b7;}.cls-185{fill:#fee7b4;}.cls-186{fill:#fee6b3;}.cls-187{fill:#fee6b2;}.cls-188{fill:#fee6b1;}.cls-189{fill:#fee6b0;}.cls-190{fill:#fee5af;}.cls-191{fill:#fde5ae;}.cls-192{fill:#fde5ad;}.cls-193{fill:#fde5ac;}.cls-194{fill:#fde4ac;}.cls-195{fill:#fde4ab;}.cls-196{fill:#fde4aa;}.cls-197{fill:#fde4a9;}.cls-198{fill:#fde3a8;}.cls-199{fill:#fde3a7;}.cls-200{fill:#fde3a6;}.cls-201{fill:#fce3a5;}.cls-202{fill:#fce2a4;}.cls-203{fill:#fce2a3;}.cls-204{fill:#fce2a2;}.cls-205{fill:#fce2a1;}.cls-206{fill:#fce1a0;}.cls-207{fill:#fce19f;}.cls-208{fill:#fce19e;}.cls-209{fill:#fce19d;}.cls-210{fill:#fce09c;}.cls-211{fill:#fce09b;}.cls-212{fill:#fbe09a;}.cls-213{fill:#fbdf99;}.cls-214{fill:#fbdf98;}.cls-215{fill:#fbdf97;}.cls-216{fill:#fbdf96;}.cls-217{fill:#fbdf95;}.cls-218{fill:#fbde94;}.cls-219{fill:#fbde93;}.cls-220{fill:#fbde92;}.cls-221{fill:#fbdd91;}.cls-222{fill:#fadd90;}.cls-223{fill:#fadd8f;}.cls-224{fill:#fadd8e;}.cls-225{fill:#fadc8d;}.cls-226{fill:#fadc8c;}.cls-227{fill:#fadc8b;}.cls-228{fill:#fadc8a;}.cls-229{fill:#fadc89;}.cls-230{fill:#fadb88;}.cls-231{fill:#fadb87;}.cls-232{fill:#fadb86;}.cls-233{fill:#f9da85;}.cls-234{fill:#f9da84;}.cls-235{fill:#f9da83;}.cls-236{fill:#f9da82;}.cls-237{fill:#f9da81;}.cls-238{fill:#f9d980;}.cls-239{fill:#f9d97f;}.cls-240{fill:#f9d97e;}.cls-241{fill:#f9d97d;}.cls-242{fill:#f9d87c;}.cls-243{fill:#f9d87b;}.cls-244{fill:#f9d87a;}.cls-245{fill:#f9d879;}.cls-246{fill:#f8d778;}.cls-247{fill:#f8d777;}.cls-248{fill:#f8d677;}.cls-249{fill:#f7d676;}.cls-250{fill:#f7d576;}.cls-251{fill:#f6d575;}.cls-252{fill:#f6d475;}.cls-253{fill:#f5d374;}.cls-254{fill:#f5d273;}.cls-255{fill:#f4d273;}.cls-256{fill:#f4d172;}.cls-257{fill:#f3d072;}.cls-258{fill:#f3cf71;}.cls-259{fill:#f2cf70;}.cls-260{fill:#f2ce70;}.cls-261{fill:#f1cd6f;}.cls-262{fill:#f0cc6e;}.cls-263{fill:#f0cb6e;}.cls-264{fill:#efca6d;}.cls-265{fill:#efc96c;}.cls-266{fill:#eec96b;}.cls-267{fill:#eec86b;}.cls-268{fill:#edc76a;}.cls-269{fill:#ecc669;}.cls-270{fill:#ecc568;}.cls-271{fill:#ebc468;}.cls-272{fill:#ebc367;}.cls-273{fill:#eac266;}.cls-274{fill:#e9c265;}.cls-275{fill:#e9c165;}.cls-276{fill:#e8c064;}.cls-277{fill:#e8bf63;}.cls-278{fill:#e7be62;}.cls-279{fill:#e6bd62;}.cls-280{fill:#e6bc61;}.cls-281{fill:#e5bb60;}.cls-282{fill:#e5ba5f;}.cls-283{fill:#e4b95e;}.cls-284{fill:#e3b85d;}.cls-285{fill:#e2b75c;}.cls-286{fill:#e2b65b;}.cls-287{fill:#e1b55a;}.cls-288{fill:#e0b359;}.cls-289{fill:#dfb258;}.cls-290{fill:#dfb157;}.cls-291{fill:#deb056;}.cls-292{fill:#dcad54;}.cls-293{fill:#dcac53;}.cls-294{fill:#dbab52;}.cls-295{fill:#d9a950;}.cls-296{fill:#d9a84f;}.cls-297{fill:#d6a44c;}.cls-298{fill:#d5a24a;}.cls-299{fill:#d5a149;}.cls-300{fill:#d39e47;}.cls-301{fill:#d29d46;}.cls-302{fill:#d19b44;}.cls-303{fill:#d09a44;}.cls-304{fill:#cd953f;}.cls-305{fill:#c98f3b;}.cls-306{fill:#c98e3a;}.cls-307{fill:#c88e39;}.cls-308{fill:#c58936;}.cls-309{fill:#c48735;}.cls-310{fill:#c48634;}.cls-311{fill:#c28433;}.cls-312{fill:#c28332;}.cls-313{fill:#be7d2e;}.cls-314{opacity:0.37;mix-blend-mode:screen;}.cls-315{fill:#fff79c;}.cls-316{fill:url(#linear-gradient);}.cls-317{fill:url(#linear-gradient-2);}.cls-318{fill:#bb7c56;}</style><clipPath id="clip-path"><circle class="cls-1" cx="211.33" cy="189.96" r="127.69"/></clipPath><linearGradient id="linear-gradient" x1="138.29" y1="263" x2="284.37" y2="116.92" gradientUnits="userSpaceOnUse"><stop offset="0" stop-color="#b9752a"/><stop offset="0.15" stop-color="#daa852"/><stop offset="0.27" stop-color="#f0ca6d"/><stop offset="0.33" stop-color="#f8d777"/><stop offset="0.38" stop-color="#fadc8b"/><stop offset="0.47" stop-color="#fee5ac"/><stop offset="0.52" stop-color="#ffe8b9"/><stop offset="0.57" stop-color="#fde5b0"/><stop offset="0.65" stop-color="#f9dc96"/><stop offset="0.75" stop-color="#f3d070"/><stop offset="0.97" stop-color="#c18234"/><stop offset="1" stop-color="#b9752a"/></linearGradient><linearGradient id="linear-gradient-2" x1="120.39" y1="280.9" x2="302.27" y2="99.02" xlink:href="#linear-gradient"/></defs><title>Final USDB Logo</title><g class="cls-2"><g id="Layer_1" data-name="Layer 1"><g class="cls-3"><polygon class="cls-4" points="158.44 62.27 83.64 137.07 83.64 62.27 158.44 62.27"/><polygon class="cls-4" points="159.32 62.27 83.64 137.95 83.64 137.07 158.44 62.27 159.32 62.27"/><polygon class="cls-5" points="160.2 62.27 83.64 138.83 83.64 137.95 159.32 62.27 160.2 62.27"/><polygon class="cls-6" points="161.08 62.27 83.64 139.71 83.64 138.83 160.2 62.27 161.08 62.27"/><polygon class="cls-7" points="161.96 62.27 83.64 140.59 83.64 139.71 161.08 62.27 161.96 62.27"/><polygon class="cls-8" points="162.84 62.27 83.64 141.47 83.64 140.59 161.96 62.27 162.84 62.27"/><polygon class="cls-9" points="163.73 62.27 83.64 142.35 83.64 141.47 162.84 62.27 163.73 62.27"/><polygon class="cls-10" points="164.61 62.27 83.64 143.23 83.64 142.35 163.73 62.27 164.61 62.27"/><polygon class="cls-11" points="165.49 62.27 83.64 144.11 83.64 143.23 164.61 62.27 165.49 62.27"/><polygon class="cls-12" points="166.37 62.27 83.64 144.99 83.64 144.11 165.49 62.27 166.37 62.27"/><polygon class="cls-13" points="167.25 62.27 83.64 145.88 83.64 144.99 166.37 62.27 167.25 62.27"/><polygon class="cls-14" points="168.13 62.27 83.64 146.76 83.64 145.88 167.25 62.27 168.13 62.27"/><polygon class="cls-15" points="169.01 62.27 83.64 147.64 83.64 146.76 168.13 62.27 169.01 62.27"/><polygon class="cls-16" points="169.89 62.27 83.64 148.52 83.64 147.64 169.01 62.27 169.89 62.27"/><polygon class="cls-17" points="170.77 62.27 83.64 149.4 83.64 148.52 169.89 62.27 170.77 62.27"/><polygon class="cls-18" points="171.65 62.27 83.64 150.28 83.64 149.4 170.77 62.27 171.65 62.27"/><polygon class="cls-19" points="172.53 62.27 83.64 151.16 83.64 150.28 171.65 62.27 172.53 62.27"/><polygon class="cls-20" points="173.41 62.27 83.64 152.04 83.64 151.16 172.53 62.27 173.41 62.27"/><polygon class="cls-21" points="174.3 62.27 83.64 152.92 83.64 152.04 173.41 62.27 174.3 62.27"/><polygon class="cls-22" points="175.18 62.27 83.64 153.8 83.64 152.92 174.3 62.27 175.18 62.27"/><polygon class="cls-23" points="176.06 62.27 83.64 154.68 83.64 153.8 175.18 62.27 176.06 62.27"/><polygon class="cls-23" points="176.94 62.27 83.64 155.56 83.64 154.68 176.06 62.27 176.94 62.27"/><polygon class="cls-24" points="177.82 62.27 83.64 156.45 83.64 155.56 176.94 62.27 177.82 62.27"/><polygon class="cls-25" points="178.7 62.27 83.64 157.33 83.64 156.45 177.82 62.27 178.7 62.27"/><polygon class="cls-26" points="179.58 62.27 83.64 158.21 83.64 157.33 178.7 62.27 179.58 62.27"/><polygon class="cls-27" points="180.46 62.27 83.64 159.09 83.64 158.21 179.58 62.27 180.46 62.27"/><polygon class="cls-27" points="181.34 62.27 83.64 159.97 83.64 159.09 180.46 62.27 181.34 62.27"/><polygon class="cls-28" points="182.22 62.27 83.64 160.85 83.64 159.97 181.34 62.27 182.22 62.27"/><polygon class="cls-29" points="183.1 62.27 83.64 161.73 83.64 160.85 182.22 62.27 183.1 62.27"/><polygon class="cls-30" points="183.99 62.27 83.64 162.61 83.64 161.73 183.1 62.27 183.99 62.27"/><polygon class="cls-31" points="184.87 62.27 83.64 163.49 83.64 162.61 183.99 62.27 184.87 62.27"/><polygon class="cls-32" points="185.75 62.27 83.64 164.37 83.64 163.49 184.87 62.27 185.75 62.27"/><polygon class="cls-33" points="186.63 62.27 83.64 165.25 83.64 164.37 185.75 62.27 186.63 62.27"/><polygon class="cls-34" points="187.51 62.27 83.64 166.13 83.64 165.25 186.63 62.27 187.51 62.27"/><polygon class="cls-35" points="188.39 62.27 83.64 167.02 83.64 166.13 187.51 62.27 188.39 62.27"/><polygon class="cls-36" points="189.27 62.27 83.64 167.9 83.64 167.02 188.39 62.27 189.27 62.27"/><polygon class="cls-37" points="190.15 62.27 83.64 168.78 83.64 167.9 189.27 62.27 190.15 62.27"/><polygon class="cls-38" points="191.03 62.27 83.64 169.66 83.64 168.78 190.15 62.27 191.03 62.27"/><polygon class="cls-39" points="191.91 62.27 83.64 170.54 83.64 169.66 191.03 62.27 191.91 62.27"/><polygon class="cls-40" points="192.79 62.27 83.64 171.42 83.64 170.54 191.91 62.27 192.79 62.27"/><polygon class="cls-41" points="193.68 62.27 83.64 172.3 83.64 171.42 192.79 62.27 193.68 62.27"/><polygon class="cls-42" points="194.56 62.27 83.64 173.18 83.64 172.3 193.68 62.27 194.56 62.27"/><polygon class="cls-43" points="195.44 62.27 83.64 174.06 83.64 173.18 194.56 62.27 195.44 62.27"/><polygon class="cls-44" points="196.32 62.27 83.64 174.94 83.64 174.06 195.44 62.27 196.32 62.27"/><polygon class="cls-45" points="197.2 62.27 83.64 175.82 83.64 174.94 196.32 62.27 197.2 62.27"/><polygon class="cls-46" points="198.08 62.27 83.64 176.71 83.64 175.82 197.2 62.27 198.08 62.27"/><polygon class="cls-47" points="198.96 62.27 83.64 177.59 83.64 176.71 198.08 62.27 198.96 62.27"/><polygon class="cls-48" points="199.84 62.27 83.64 178.47 83.64 177.59 198.96 62.27 199.84 62.27"/><polygon class="cls-49" points="200.72 62.27 83.64 179.35 83.64 178.47 199.84 62.27 200.72 62.27"/><polygon class="cls-50" points="201.6 62.27 83.64 180.23 83.64 179.35 200.72 62.27 201.6 62.27"/><polygon class="cls-51" points="202.48 62.27 83.64 181.11 83.64 180.23 201.6 62.27 202.48 62.27"/><polygon class="cls-52" points="203.36 62.27 83.64 181.99 83.64 181.11 202.48 62.27 203.36 62.27"/><polygon class="cls-53" points="204.25 62.27 83.64 182.87 83.64 181.99 203.36 62.27 204.25 62.27"/><polygon class="cls-54" points="205.13 62.27 83.64 183.75 83.64 182.87 204.25 62.27 205.13 62.27"/><polygon class="cls-55" points="206.01 62.27 83.64 184.63 83.64 183.75 205.13 62.27 206.01 62.27"/><polygon class="cls-56" points="206.89 62.27 83.64 185.51 83.64 184.63 206.01 62.27 206.89 62.27"/><polygon class="cls-57" points="207.77 62.27 83.64 186.4 83.64 185.51 206.89 62.27 207.77 62.27"/><polygon class="cls-58" points="208.65 62.27 83.64 187.28 83.64 186.4 207.77 62.27 208.65 62.27"/><polygon class="cls-59" points="209.53 62.27 83.64 188.16 83.64 187.28 208.65 62.27 209.53 62.27"/><polygon class="cls-60" points="210.41 62.27 83.64 189.04 83.64 188.16 209.53 62.27 210.41 62.27"/><polygon class="cls-61" points="211.29 62.27 83.64 189.92 83.64 189.04 210.41 62.27 211.29 62.27"/><polygon class="cls-62" points="212.17 62.27 83.64 190.8 83.64 189.92 211.29 62.27 212.17 62.27"/><polygon class="cls-63" points="213.05 62.27 83.64 191.68 83.64 190.8 212.17 62.27 213.05 62.27"/><polygon class="cls-64" points="213.94 62.27 83.64 192.56 83.64 191.68 213.05 62.27 213.94 62.27"/><polygon class="cls-65" points="214.82 62.27 83.64 193.44 83.64 192.56 213.94 62.27 214.82 62.27"/><polygon class="cls-66" points="215.7 62.27 83.64 194.32 83.64 193.44 214.82 62.27 215.7 62.27"/><polygon class="cls-67" points="216.58 62.27 83.64 195.2 83.64 194.32 215.7 62.27 216.58 62.27"/><polygon class="cls-68" points="217.46 62.27 83.64 196.08 83.64 195.2 216.58 62.27 217.46 62.27"/><polygon class="cls-69" points="218.34 62.27 83.64 196.97 83.64 196.08 217.46 62.27 218.34 62.27"/><polygon class="cls-70" points="219.22 62.27 83.64 197.85 83.64 196.97 218.34 62.27 219.22 62.27"/><polygon class="cls-71" points="220.1 62.27 83.64 198.73 83.64 197.85 219.22 62.27 220.1 62.27"/><polygon class="cls-72" points="220.98 62.27 83.64 199.61 83.64 198.73 220.1 62.27 220.98 62.27"/><polygon class="cls-73" points="221.86 62.27 83.64 200.49 83.64 199.61 220.98 62.27 221.86 62.27"/><polygon class="cls-74" points="222.74 62.27 83.64 201.37 83.64 200.49 221.86 62.27 222.74 62.27"/><polygon class="cls-75" points="223.62 62.27 83.64 202.25 83.64 201.37 222.74 62.27 223.62 62.27"/><polygon class="cls-76" points="224.5 62.27 83.64 203.13 83.64 202.25 223.62 62.27 224.5 62.27"/><polygon class="cls-77" points="225.39 62.27 83.64 204.01 83.64 203.13 224.5 62.27 225.39 62.27"/><polygon class="cls-78" points="226.27 62.27 83.64 204.89 83.64 204.01 225.39 62.27 226.27 62.27"/><polygon class="cls-79" points="227.15 62.27 83.64 205.77 83.64 204.89 226.27 62.27 227.15 62.27"/><polygon class="cls-80" points="228.03 62.27 83.64 206.66 83.64 205.77 227.15 62.27 228.03 62.27"/><polygon class="cls-81" points="228.91 62.27 83.64 207.54 83.64 206.66 228.03 62.27 228.91 62.27"/><polygon class="cls-82" points="229.79 62.27 83.64 208.42 83.64 207.54 228.91 62.27 229.79 62.27"/><polygon class="cls-83" points="230.67 62.27 83.64 209.3 83.64 208.42 229.79 62.27 230.67 62.27"/><polygon class="cls-84" points="231.55 62.27 83.64 210.18 83.64 209.3 230.67 62.27 231.55 62.27"/><polygon class="cls-85" points="232.43 62.27 83.64 211.06 83.64 210.18 231.55 62.27 232.43 62.27"/><polygon class="cls-86" points="233.31 62.27 83.64 211.94 83.64 211.06 232.43 62.27 233.31 62.27"/><polygon class="cls-87" points="234.19 62.27 83.64 212.82 83.64 211.94 233.31 62.27 234.19 62.27"/><polygon class="cls-88" points="235.07 62.27 83.64 213.7 83.64 212.82 234.19 62.27 235.07 62.27"/><polygon class="cls-89" points="235.96 62.27 83.64 214.58 83.64 213.7 235.07 62.27 235.96 62.27"/><polygon class="cls-90" points="236.84 62.27 83.64 215.46 83.64 214.58 235.96 62.27 236.84 62.27"/><polygon class="cls-91" points="237.72 62.27 83.64 216.34 83.64 215.46 236.84 62.27 237.72 62.27"/><polygon class="cls-92" points="238.6 62.27 83.64 217.22 83.64 216.34 237.72 62.27 238.6 62.27"/><polygon class="cls-93" points="239.48 62.27 83.64 218.11 83.64 217.22 238.6 62.27 239.48 62.27"/><polygon class="cls-94" points="240.36 62.27 83.64 218.99 83.64 218.11 239.48 62.27 240.36 62.27"/><polygon class="cls-95" points="241.24 62.27 83.64 219.87 83.64 218.99 240.36 62.27 241.24 62.27"/><polygon class="cls-96" points="242.12 62.27 83.64 220.75 83.64 219.87 241.24 62.27 242.12 62.27"/><polygon class="cls-97" points="243 62.27 83.64 221.63 83.64 220.75 242.12 62.27 243 62.27"/><polygon class="cls-98" points="243.88 62.27 83.64 222.51 83.64 221.63 243 62.27 243.88 62.27"/><polygon class="cls-99" points="244.76 62.27 83.64 223.39 83.64 222.51 243.88 62.27 244.76 62.27"/><polygon class="cls-100" points="245.65 62.27 83.64 224.27 83.64 223.39 244.76 62.27 245.65 62.27"/><polygon class="cls-101" points="246.53 62.27 83.64 225.15 83.64 224.27 245.65 62.27 246.53 62.27"/><polygon class="cls-102" points="247.41 62.27 83.64 226.03 83.64 225.15 246.53 62.27 247.41 62.27"/><polygon class="cls-103" points="248.29 62.27 83.64 226.91 83.64 226.03 247.41 62.27 248.29 62.27"/><polygon class="cls-104" points="249.17 62.27 83.64 227.8 83.64 226.91 248.29 62.27 249.17 62.27"/><polygon class="cls-105" points="250.05 62.27 83.64 228.68 83.64 227.8 249.17 62.27 250.05 62.27"/><polygon class="cls-105" points="250.96 62.27 83.64 229.58 83.64 228.68 250.05 62.27 250.96 62.27"/><polygon class="cls-106" points="251.87 62.27 83.64 230.49 83.64 229.58 250.96 62.27 251.87 62.27"/><polygon class="cls-107" points="252.77 62.27 83.64 231.4 83.64 230.49 251.87 62.27 252.77 62.27"/><polygon class="cls-108" points="253.68 62.27 83.64 232.31 83.64 231.4 252.77 62.27 253.68 62.27"/><polygon class="cls-109" points="254.59 62.27 83.64 233.21 83.64 232.31 253.68 62.27 254.59 62.27"/><polygon class="cls-110" points="255.5 62.27 83.64 234.12 83.64 233.21 254.59 62.27 255.5 62.27"/><polygon class="cls-111" points="256.4 62.27 83.64 235.03 83.64 234.12 255.5 62.27 256.4 62.27"/><polygon class="cls-112" points="257.31 62.27 83.64 235.94 83.64 235.03 256.4 62.27 257.31 62.27"/><polygon class="cls-113" points="258.22 62.27 83.64 236.84 83.64 235.94 257.31 62.27 258.22 62.27"/><polygon class="cls-114" points="259.13 62.27 83.64 237.75 83.64 236.84 258.22 62.27 259.13 62.27"/><polygon class="cls-115" points="260.03 62.27 83.64 238.66 83.64 237.75 259.13 62.27 260.03 62.27"/><polygon class="cls-116" points="260.94 62.27 83.64 239.57 83.64 238.66 260.03 62.27 260.94 62.27"/><polygon class="cls-117" points="261.85 62.27 83.64 240.47 83.64 239.57 260.94 62.27 261.85 62.27"/><polygon class="cls-118" points="262.76 62.27 83.64 241.38 83.64 240.47 261.85 62.27 262.76 62.27"/><polygon class="cls-119" points="263.66 62.27 83.64 242.29 83.64 241.38 262.76 62.27 263.66 62.27"/><polygon class="cls-120" points="264.57 62.27 83.64 243.2 83.64 242.29 263.66 62.27 264.57 62.27"/><polygon class="cls-121" points="265.48 62.27 83.64 244.1 83.64 243.2 264.57 62.27 265.48 62.27"/><polygon class="cls-122" points="266.39 62.27 83.64 245.01 83.64 244.1 265.48 62.27 266.39 62.27"/><polygon class="cls-123" points="267.29 62.27 83.64 245.92 83.64 245.01 266.39 62.27 267.29 62.27"/><polygon class="cls-124" points="268.2 62.27 83.64 246.83 83.64 245.92 267.29 62.27 268.2 62.27"/><polygon class="cls-124" points="269.11 62.27 83.64 247.74 83.64 246.83 268.2 62.27 269.11 62.27"/><polygon class="cls-125" points="270.02 62.27 83.64 248.64 83.64 247.74 269.11 62.27 270.02 62.27"/><polygon class="cls-126" points="270.92 62.27 83.64 249.55 83.64 248.64 270.02 62.27 270.92 62.27"/><polygon class="cls-127" points="271.83 62.27 83.64 250.46 83.64 249.55 270.92 62.27 271.83 62.27"/><polygon class="cls-128" points="272.74 62.27 83.64 251.37 83.64 250.46 271.83 62.27 272.74 62.27"/><polygon class="cls-129" points="273.65 62.27 83.64 252.27 83.64 251.37 272.74 62.27 273.65 62.27"/><polygon class="cls-130" points="274.55 62.27 83.64 253.18 83.64 252.27 273.65 62.27 274.55 62.27"/><polygon class="cls-131" points="275.46 62.27 83.64 254.09 83.64 253.18 274.55 62.27 275.46 62.27"/><polygon class="cls-132" points="276.37 62.27 83.64 255 83.64 254.09 275.46 62.27 276.37 62.27"/><polygon class="cls-133" points="277.28 62.27 83.64 255.9 83.64 255 276.37 62.27 277.28 62.27"/><polygon class="cls-134" points="278.18 62.27 83.64 256.81 83.64 255.9 277.28 62.27 278.18 62.27"/><polygon class="cls-135" points="279.09 62.27 83.64 257.72 83.64 256.81 278.18 62.27 279.09 62.27"/><polygon class="cls-136" points="280 62.27 83.64 258.63 83.64 257.72 279.09 62.27 280 62.27"/><polygon class="cls-137" points="280.91 62.27 83.64 259.53 83.64 258.63 280 62.27 280.91 62.27"/><polygon class="cls-138" points="281.81 62.27 83.64 260.44 83.64 259.53 280.91 62.27 281.81 62.27"/><polygon class="cls-139" points="282.72 62.27 83.64 261.35 83.64 260.44 281.81 62.27 282.72 62.27"/><polygon class="cls-140" points="283.63 62.27 83.64 262.26 83.64 261.35 282.72 62.27 283.63 62.27"/><polygon class="cls-141" points="284.54 62.27 83.64 263.16 83.64 262.26 283.63 62.27 284.54 62.27"/><polygon class="cls-142" points="284.68 62.27 285.06 62.65 84.03 263.69 83.64 263.3 83.64 263.16 284.54 62.27 284.68 62.27"/><rect class="cls-143" x="42.62" y="163.08" width="284.31" height="0.64" transform="translate(-61.42 178.51) rotate(-45)"/><rect class="cls-144" x="43.07" y="163.53" width="284.31" height="0.64" transform="translate(-61.61 178.96) rotate(-45)"/><rect class="cls-145" x="43.53" y="163.98" width="284.31" height="0.64" transform="translate(-61.8 179.42) rotate(-45)"/><rect class="cls-146" x="43.98" y="164.44" width="284.31" height="0.64" transform="translate(-61.98 179.87) rotate(-45)"/><rect class="cls-147" x="44.43" y="164.89" width="284.31" height="0.64" transform="translate(-62.17 180.33) rotate(-45)"/><rect class="cls-148" x="44.89" y="165.35" width="284.31" height="0.64" transform="translate(-62.36 180.78) rotate(-45)"/><rect class="cls-149" x="45.34" y="165.8" width="284.31" height="0.64" transform="translate(-62.55 181.23) rotate(-45)"/><rect class="cls-150" x="45.79" y="166.25" width="284.31" height="0.64" transform="translate(-62.74 181.69) rotate(-45)"/><rect class="cls-151" x="46.25" y="166.71" width="284.31" height="0.64" transform="translate(-62.92 182.14) rotate(-45)"/><rect class="cls-152" x="46.7" y="167.16" width="284.31" height="0.64" transform="translate(-63.11 182.59) rotate(-45)"/><rect class="cls-153" x="47.16" y="167.61" width="284.31" height="0.64" transform="translate(-63.3 183.05) rotate(-45)"/><rect class="cls-154" x="47.61" y="168.07" width="284.31" height="0.64" transform="translate(-63.49 183.5) rotate(-45)"/><rect class="cls-155" x="48.06" y="168.52" width="284.31" height="0.64" transform="translate(-63.68 183.96) rotate(-45)"/><rect class="cls-156" x="48.52" y="168.98" width="284.31" height="0.64" transform="translate(-63.86 184.41) rotate(-45)"/><rect class="cls-157" x="48.97" y="169.43" width="284.31" height="0.64" transform="translate(-64.05 184.86) rotate(-45)"/><rect class="cls-158" x="49.42" y="169.88" width="284.31" height="0.64" transform="translate(-64.24 185.32) rotate(-45)"/><rect class="cls-159" x="49.88" y="170.34" width="284.31" height="0.64" transform="translate(-64.43 185.77) rotate(-45)"/><rect class="cls-160" x="50.33" y="170.79" width="284.31" height="0.64" transform="translate(-64.62 186.22) rotate(-45)"/><rect class="cls-161" x="50.79" y="171.24" width="284.31" height="0.64" transform="translate(-64.8 186.68) rotate(-45)"/><rect class="cls-161" x="51.24" y="171.7" width="284.31" height="0.64" transform="translate(-64.99 187.13) rotate(-45)"/><rect class="cls-162" x="51.69" y="172.15" width="284.31" height="0.64" transform="translate(-65.18 187.59) rotate(-45)"/><rect class="cls-163" x="52.15" y="172.61" width="284.31" height="0.64" transform="translate(-65.37 188.04) rotate(-45)"/><rect class="cls-164" x="52.6" y="173.06" width="284.31" height="0.64" transform="translate(-65.56 188.49) rotate(-45)"/><rect class="cls-164" x="53.05" y="173.51" width="284.31" height="0.64" transform="translate(-65.74 188.95) rotate(-45)"/><rect class="cls-165" x="53.51" y="173.97" width="284.31" height="0.64" transform="translate(-65.93 189.4) rotate(-45)"/><rect class="cls-166" x="53.96" y="174.42" width="284.31" height="0.64" transform="translate(-66.12 189.86) rotate(-45)"/><rect class="cls-167" x="54.42" y="174.87" width="284.31" height="0.64" transform="translate(-66.31 190.31) rotate(-45)"/><rect class="cls-167" x="54.87" y="175.33" width="284.31" height="0.64" transform="translate(-66.5 190.76) rotate(-45)"/><rect class="cls-168" x="55.32" y="175.78" width="284.31" height="0.64" transform="translate(-66.68 191.22) rotate(-45)"/><rect class="cls-169" x="55.78" y="176.24" width="284.31" height="0.64" transform="translate(-66.87 191.67) rotate(-45)"/><rect class="cls-169" x="56.23" y="176.69" width="284.31" height="0.64" transform="translate(-67.06 192.12) rotate(-45)"/><rect class="cls-170" x="56.68" y="177.14" width="284.31" height="0.64" transform="translate(-67.25 192.58) rotate(-45)"/><rect class="cls-171" x="57.14" y="177.6" width="284.31" height="0.64" transform="translate(-67.44 193.03) rotate(-45)"/><rect class="cls-172" x="57.59" y="178.05" width="284.31" height="0.64" transform="translate(-67.62 193.48) rotate(-45)"/><rect class="cls-173" x="58.05" y="178.5" width="284.31" height="0.64" transform="translate(-67.81 193.94) rotate(-45)"/><rect class="cls-174" x="58.5" y="178.96" width="284.31" height="0.64" transform="translate(-68 194.39) rotate(-45)"/><rect class="cls-174" x="58.95" y="179.41" width="284.31" height="0.64" transform="translate(-68.19 194.85) rotate(-45)"/><rect class="cls-175" x="59.41" y="179.87" width="284.31" height="0.64" transform="translate(-68.38 195.3) rotate(-45)"/><rect class="cls-175" x="59.86" y="180.32" width="284.31" height="0.64" transform="translate(-68.56 195.75) rotate(-45)"/><rect class="cls-176" x="60.31" y="180.77" width="284.31" height="0.64" transform="translate(-68.75 196.21) rotate(-45)"/><rect class="cls-177" x="60.77" y="181.23" width="284.31" height="0.64" transform="translate(-68.94 196.66) rotate(-45)"/><rect class="cls-177" x="61.22" y="181.68" width="284.31" height="0.64" transform="translate(-69.13 197.12) rotate(-45)"/><rect class="cls-178" x="61.68" y="182.13" width="284.31" height="0.64" transform="translate(-69.32 197.57) rotate(-45)"/><rect class="cls-178" x="62.13" y="182.59" width="284.31" height="0.64" transform="translate(-69.5 198.02) rotate(-45)"/><rect class="cls-179" x="62.58" y="183.04" width="284.31" height="0.64" transform="translate(-69.69 198.48) rotate(-45)"/><rect class="cls-179" x="63.04" y="183.5" width="284.31" height="0.64" transform="translate(-69.88 198.93) rotate(-45)"/><rect class="cls-180" x="63.49" y="183.95" width="284.31" height="0.64" transform="translate(-70.07 199.38) rotate(-45)"/><rect class="cls-180" x="63.95" y="184.4" width="284.31" height="0.64" transform="translate(-70.26 199.84) rotate(-45)"/><rect class="cls-181" x="64.4" y="184.86" width="284.31" height="0.64" transform="translate(-70.44 200.29) rotate(-45)"/><rect class="cls-182" x="64.85" y="185.31" width="284.31" height="0.64" transform="translate(-70.63 200.75) rotate(-45)"/><rect class="cls-182" x="65.31" y="185.76" width="284.31" height="0.64" transform="translate(-70.82 201.2) rotate(-45)"/><rect class="cls-182" x="65.76" y="186.22" width="284.31" height="0.64" transform="translate(-71.01 201.65) rotate(-45)"/><rect class="cls-183" x="66.21" y="186.67" width="284.31" height="0.64" transform="translate(-71.19 202.11) rotate(-45)"/><rect class="cls-183" x="66.64" y="187.14" width="284.31" height="0.55" transform="translate(-71.37 202.53) rotate(-45)"/><rect class="cls-182" x="67.03" y="187.53" width="284.31" height="0.55" transform="translate(-71.53 202.92) rotate(-45)"/><rect class="cls-182" x="67.42" y="187.92" width="284.31" height="0.55" transform="translate(-71.69 203.31) rotate(-45)"/><rect class="cls-182" x="67.81" y="188.31" width="284.31" height="0.55" transform="translate(-71.86 203.7) rotate(-45)"/><rect class="cls-184" x="68.2" y="188.7" width="284.31" height="0.55" transform="translate(-72.02 204.09) rotate(-45)"/><rect class="cls-180" x="68.59" y="189.09" width="284.31" height="0.55" transform="translate(-72.18 204.48) rotate(-45)"/><rect class="cls-179" x="68.98" y="189.48" width="284.31" height="0.55" transform="translate(-72.34 204.87) rotate(-45)"/><rect class="cls-179" x="69.37" y="189.88" width="284.31" height="0.55" transform="translate(-72.5 205.27) rotate(-45)"/><rect class="cls-178" x="69.76" y="190.27" width="284.31" height="0.55" transform="translate(-72.67 205.66) rotate(-45)"/><rect class="cls-185" x="70.15" y="190.66" width="284.31" height="0.55" transform="translate(-72.83 206.05) rotate(-45)"/><rect class="cls-185" x="70.54" y="191.05" width="284.31" height="0.55" transform="translate(-72.99 206.44) rotate(-45)"/><rect class="cls-186" x="70.94" y="191.44" width="284.31" height="0.55" transform="translate(-73.15 206.83) rotate(-45)"/><rect class="cls-186" x="71.33" y="191.83" width="284.31" height="0.55" transform="translate(-73.31 207.22) rotate(-45)"/><rect class="cls-187" x="71.72" y="192.22" width="284.31" height="0.55" transform="translate(-73.47 207.61) rotate(-45)"/><rect class="cls-188" x="72.11" y="192.61" width="284.31" height="0.55" transform="translate(-73.64 208) rotate(-45)"/><rect class="cls-188" x="72.5" y="193" width="284.31" height="0.55" transform="translate(-73.8 208.39) rotate(-45)"/><rect class="cls-189" x="72.89" y="193.39" width="284.31" height="0.55" transform="translate(-73.96 208.78) rotate(-45)"/><rect class="cls-190" x="73.28" y="193.78" width="284.31" height="0.55" transform="translate(-74.12 209.17) rotate(-45)"/><rect class="cls-172" x="73.67" y="194.17" width="284.31" height="0.55" transform="translate(-74.28 209.56) rotate(-45)"/><rect class="cls-191" x="74.06" y="194.57" width="284.31" height="0.55" transform="translate(-74.45 209.96) rotate(-45)"/><rect class="cls-192" x="74.45" y="194.96" width="284.31" height="0.55" transform="translate(-74.61 210.35) rotate(-45)"/><rect class="cls-193" x="74.84" y="195.35" width="284.31" height="0.55" transform="translate(-74.77 210.74) rotate(-45)"/><rect class="cls-194" x="75.24" y="195.74" width="284.31" height="0.55" transform="translate(-74.93 211.13) rotate(-45)"/><rect class="cls-195" x="75.63" y="196.13" width="284.31" height="0.55" transform="translate(-75.09 211.52) rotate(-45)"/><rect class="cls-196" x="76.02" y="196.52" width="284.31" height="0.55" transform="translate(-75.26 211.91) rotate(-45)"/><rect class="cls-196" x="76.41" y="196.91" width="284.31" height="0.55" transform="translate(-75.42 212.3) rotate(-45)"/><rect class="cls-197" x="76.8" y="197.3" width="284.31" height="0.55" transform="translate(-75.58 212.69) rotate(-45)"/><rect class="cls-198" x="77.19" y="197.69" width="284.31" height="0.55" transform="translate(-75.74 213.08) rotate(-45)"/><rect class="cls-199" x="77.58" y="198.08" width="284.31" height="0.55" transform="translate(-75.9 213.47) rotate(-45)"/><rect class="cls-200" x="77.97" y="198.47" width="284.31" height="0.55" transform="translate(-76.06 213.86) rotate(-45)"/><rect class="cls-200" x="78.36" y="198.87" width="284.31" height="0.55" transform="translate(-76.23 214.25) rotate(-45)"/><rect class="cls-201" x="78.75" y="199.26" width="284.31" height="0.55" transform="translate(-76.39 214.65) rotate(-45)"/><rect class="cls-202" x="79.14" y="199.65" width="284.31" height="0.55" transform="translate(-76.55 215.04) rotate(-45)"/><rect class="cls-203" x="79.53" y="200.04" width="284.31" height="0.55" transform="translate(-76.71 215.43) rotate(-45)"/><rect class="cls-203" x="79.93" y="200.43" width="284.31" height="0.55" transform="translate(-76.87 215.82) rotate(-45)"/><rect class="cls-204" x="80.32" y="200.82" width="284.31" height="0.55" transform="translate(-77.04 216.21) rotate(-45)"/><rect class="cls-205" x="80.71" y="201.21" width="284.31" height="0.55" transform="translate(-77.2 216.6) rotate(-45)"/><rect class="cls-206" x="81.1" y="201.6" width="284.31" height="0.55" transform="translate(-77.36 216.99) rotate(-45)"/><rect class="cls-207" x="81.49" y="201.99" width="284.31" height="0.55" transform="translate(-77.52 217.38) rotate(-45)"/><rect class="cls-207" x="81.88" y="202.38" width="284.31" height="0.55" transform="translate(-77.68 217.77) rotate(-45)"/><rect class="cls-208" x="82.27" y="202.77" width="284.31" height="0.55" transform="translate(-77.85 218.16) rotate(-45)"/><rect class="cls-209" x="82.66" y="203.16" width="284.31" height="0.55" transform="translate(-78.01 218.55) rotate(-45)"/><rect class="cls-210" x="83.05" y="203.56" width="284.31" height="0.55" transform="translate(-78.17 218.95) rotate(-45)"/><rect class="cls-211" x="83.44" y="203.95" width="284.31" height="0.55" transform="translate(-78.33 219.34) rotate(-45)"/><rect class="cls-212" x="83.83" y="204.34" width="284.31" height="0.55" transform="translate(-78.49 219.73) rotate(-45)"/><rect class="cls-212" x="84.22" y="204.73" width="284.31" height="0.55" transform="translate(-78.66 220.12) rotate(-45)"/><rect class="cls-213" x="84.62" y="205.12" width="284.31" height="0.55" transform="translate(-78.82 220.51) rotate(-45)"/><rect class="cls-214" x="85.01" y="205.51" width="284.31" height="0.55" transform="translate(-78.98 220.9) rotate(-45)"/><rect class="cls-215" x="85.4" y="205.9" width="284.31" height="0.55" transform="translate(-79.14 221.29) rotate(-45)"/><rect class="cls-216" x="85.79" y="206.29" width="284.31" height="0.55" transform="translate(-79.3 221.68) rotate(-45)"/><rect class="cls-217" x="86.18" y="206.68" width="284.31" height="0.55" transform="translate(-79.46 222.07) rotate(-45)"/><rect class="cls-218" x="86.57" y="207.07" width="284.31" height="0.55" transform="translate(-79.63 222.46) rotate(-45)"/><rect class="cls-218" x="86.96" y="207.46" width="284.31" height="0.55" transform="translate(-79.79 222.85) rotate(-45)"/><rect class="cls-219" x="87.35" y="207.85" width="284.31" height="0.55" transform="translate(-79.95 223.24) rotate(-45)"/><rect class="cls-220" x="87.74" y="208.25" width="284.31" height="0.55" transform="translate(-80.11 223.64) rotate(-45)"/><rect class="cls-221" x="88.13" y="208.64" width="284.31" height="0.55" transform="translate(-80.27 224.03) rotate(-45)"/><rect class="cls-222" x="88.52" y="209.03" width="284.31" height="0.55" transform="translate(-80.44 224.42) rotate(-45)"/><rect class="cls-223" x="88.92" y="209.42" width="284.31" height="0.55" transform="translate(-80.6 224.81) rotate(-45)"/><rect class="cls-224" x="89.31" y="209.81" width="284.31" height="0.55" transform="translate(-80.76 225.2) rotate(-45)"/><rect class="cls-224" x="89.7" y="210.2" width="284.31" height="0.55" transform="translate(-80.92 225.59) rotate(-45)"/><rect class="cls-225" x="90.09" y="210.59" width="284.31" height="0.55" transform="translate(-81.08 225.98) rotate(-45)"/><rect class="cls-226" x="90.48" y="210.98" width="284.31" height="0.55" transform="translate(-81.25 226.37) rotate(-45)"/><rect class="cls-227" x="90.87" y="211.37" width="284.31" height="0.55" transform="translate(-81.41 226.76) rotate(-45)"/><rect class="cls-228" x="91.26" y="211.76" width="284.31" height="0.55" transform="translate(-81.57 227.15) rotate(-45)"/><rect class="cls-229" x="91.65" y="212.15" width="284.31" height="0.55" transform="translate(-81.73 227.54) rotate(-45)"/><rect class="cls-230" x="92.04" y="212.55" width="284.31" height="0.55" transform="translate(-81.89 227.94) rotate(-45)"/><rect class="cls-231" x="92.43" y="212.94" width="284.31" height="0.55" transform="translate(-82.06 228.33) rotate(-45)"/><rect class="cls-231" x="92.82" y="213.33" width="284.31" height="0.55" transform="translate(-82.22 228.72) rotate(-45)"/><rect class="cls-232" x="93.21" y="213.72" width="284.31" height="0.55" transform="translate(-82.38 229.11) rotate(-45)"/><rect class="cls-233" x="93.61" y="214.11" width="284.31" height="0.55" transform="translate(-82.54 229.5) rotate(-45)"/><rect class="cls-234" x="94" y="214.5" width="284.31" height="0.55" transform="translate(-82.7 229.89) rotate(-45)"/><rect class="cls-235" x="94.39" y="214.89" width="284.31" height="0.55" transform="translate(-82.86 230.28) rotate(-45)"/><rect class="cls-236" x="94.78" y="215.28" width="284.31" height="0.55" transform="translate(-83.03 230.67) rotate(-45)"/><rect class="cls-237" x="95.17" y="215.67" width="284.31" height="0.55" transform="translate(-83.19 231.06) rotate(-45)"/><rect class="cls-238" x="95.56" y="216.06" width="284.31" height="0.55" transform="translate(-83.35 231.45) rotate(-45)"/><rect class="cls-239" x="95.95" y="216.45" width="284.31" height="0.55" transform="translate(-83.51 231.84) rotate(-45)"/><polygon class="cls-240" points="338.82 116.41 339.02 116.61 339.02 116.99 138.36 317.64 137.98 317.64 137.78 317.44 338.82 116.41"/><polygon class="cls-241" points="339.02 117.77 139.15 317.64 138.36 317.64 339.02 116.99 339.02 117.77"/><polygon class="cls-242" points="339.02 118.55 139.93 317.64 139.15 317.64 339.02 117.77 339.02 118.55"/><polygon class="cls-243" points="339.02 119.33 140.71 317.64 139.93 317.64 339.02 118.55 339.02 119.33"/><polygon class="cls-244" points="339.02 120.12 141.49 317.64 140.71 317.64 339.02 119.33 339.02 120.12"/><polygon class="cls-245" points="339.02 120.9 142.27 317.64 141.49 317.64 339.02 120.12 339.02 120.9"/><polygon class="cls-246" points="339.02 121.68 143.05 317.64 142.27 317.64 339.02 120.9 339.02 121.68"/><polygon class="cls-247" points="339.02 122.46 143.84 317.64 143.05 317.64 339.02 121.68 339.02 122.46"/><polygon class="cls-247" points="339.02 123.54 144.91 317.64 143.84 317.64 339.02 122.46 339.02 123.54"/><polygon class="cls-247" points="339.02 124.61 145.99 317.64 144.91 317.64 339.02 123.54 339.02 124.61"/><polygon class="cls-248" points="339.02 125.69 147.06 317.64 145.99 317.64 339.02 124.61 339.02 125.69"/><polygon class="cls-249" points="339.02 126.76 148.13 317.64 147.06 317.64 339.02 125.69 339.02 126.76"/><polygon class="cls-250" points="339.02 127.84 149.21 317.64 148.13 317.64 339.02 126.76 339.02 127.84"/><polygon class="cls-251" points="339.02 128.91 150.28 317.64 149.21 317.64 339.02 127.84 339.02 128.91"/><polygon class="cls-252" points="339.02 129.99 151.36 317.64 150.28 317.64 339.02 128.91 339.02 129.99"/><polygon class="cls-253" points="339.02 131.06 152.43 317.64 151.36 317.64 339.02 129.99 339.02 131.06"/><polygon class="cls-254" points="339.02 132.13 153.51 317.64 152.43 317.64 339.02 131.06 339.02 132.13"/><polygon class="cls-255" points="339.02 133.21 154.58 317.64 153.51 317.64 339.02 132.13 339.02 133.21"/><polygon class="cls-256" points="339.02 134.28 155.66 317.64 154.58 317.64 339.02 133.21 339.02 134.28"/><polygon class="cls-257" points="339.02 135.36 156.73 317.64 155.66 317.64 339.02 134.28 339.02 135.36"/><polygon class="cls-258" points="339.02 136.44 157.81 317.64 156.73 317.64 339.02 135.36 339.02 136.44"/><polygon class="cls-259" points="339.02 137.51 158.88 317.64 157.81 317.64 339.02 136.44 339.02 137.51"/><polygon class="cls-260" points="339.02 138.59 159.96 317.64 158.88 317.64 339.02 137.51 339.02 138.59"/><polygon class="cls-261" points="339.02 139.66 161.03 317.64 159.96 317.64 339.02 138.59 339.02 139.66"/><polygon class="cls-262" points="339.02 140.73 162.11 317.64 161.03 317.64 339.02 139.66 339.02 140.73"/><polygon class="cls-263" points="339.02 141.81 163.18 317.64 162.11 317.64 339.02 140.73 339.02 141.81"/><polygon class="cls-264" points="339.02 142.88 164.26 317.64 163.18 317.64 339.02 141.81 339.02 142.88"/><polygon class="cls-265" points="339.02 143.96 165.33 317.64 164.26 317.64 339.02 142.88 339.02 143.96"/><polygon class="cls-266" points="339.02 145.03 166.41 317.64 165.33 317.64 339.02 143.96 339.02 145.03"/><polygon class="cls-267" points="339.02 146.11 167.48 317.64 166.41 317.64 339.02 145.03 339.02 146.11"/><polygon class="cls-268" points="339.02 147.18 168.56 317.64 167.48 317.64 339.02 146.11 339.02 147.18"/><polygon class="cls-269" points="339.02 148.26 169.63 317.64 168.56 317.64 339.02 147.18 339.02 148.26"/><polygon class="cls-270" points="339.02 149.33 170.71 317.64 169.63 317.64 339.02 148.26 339.02 149.33"/><polygon class="cls-271" points="339.02 150.41 171.78 317.64 170.71 317.64 339.02 149.33 339.02 150.41"/><polygon class="cls-272" points="339.02 151.48 172.86 317.64 171.78 317.64 339.02 150.41 339.02 151.48"/><polygon class="cls-273" points="339.02 152.56 173.93 317.64 172.86 317.64 339.02 151.48 339.02 152.56"/><polygon class="cls-274" points="339.02 153.63 175.01 317.64 173.93 317.64 339.02 152.56 339.02 153.63"/><polygon class="cls-275" points="339.02 154.71 176.08 317.64 175.01 317.64 339.02 153.63 339.02 154.71"/><polygon class="cls-276" points="339.02 155.78 177.16 317.64 176.08 317.64 339.02 154.71 339.02 155.78"/><polygon class="cls-277" points="339.02 156.86 178.23 317.64 177.16 317.64 339.02 155.78 339.02 156.86"/><polygon class="cls-278" points="339.02 157.93 179.31 317.64 178.23 317.64 339.02 156.86 339.02 157.93"/><polygon class="cls-279" points="339.02 159.01 180.38 317.64 179.31 317.64 339.02 157.93 339.02 159.01"/><polygon class="cls-280" points="339.02 160.08 181.46 317.64 180.38 317.64 339.02 159.01 339.02 160.08"/><polygon class="cls-281" points="339.02 161.16 182.53 317.64 181.46 317.64 339.02 160.08 339.02 161.16"/><polygon class="cls-282" points="339.02 162.23 183.6 317.64 182.53 317.64 339.02 161.16 339.02 162.23"/><polygon class="cls-283" points="339.02 163.31 184.68 317.64 183.6 317.64 339.02 162.23 339.02 163.31"/><polygon class="cls-82" points="339.02 164.38 185.75 317.64 184.68 317.64 339.02 163.31 339.02 164.38"/><polygon class="cls-284" points="339.02 165.46 186.83 317.64 185.75 317.64 339.02 164.38 339.02 165.46"/><polygon class="cls-285" points="339.02 166.53 187.91 317.64 186.83 317.64 339.02 165.46 339.02 166.53"/><polygon class="cls-286" points="339.02 167.61 188.98 317.64 187.91 317.64 339.02 166.53 339.02 167.61"/><polygon class="cls-287" points="339.02 168.68 190.05 317.64 188.98 317.64 339.02 167.61 339.02 168.68"/><polygon class="cls-77" points="339.02 169.76 191.13 317.64 190.05 317.64 339.02 168.68 339.02 169.76"/><polygon class="cls-288" points="339.02 170.83 192.2 317.64 191.13 317.64 339.02 169.76 339.02 170.83"/><polygon class="cls-289" points="339.02 171.91 193.28 317.64 192.2 317.64 339.02 170.83 339.02 171.91"/><polygon class="cls-290" points="339.02 172.98 194.35 317.64 193.28 317.64 339.02 171.91 339.02 172.98"/><polygon class="cls-291" points="339.02 174.06 195.43 317.64 194.35 317.64 339.02 172.98 339.02 174.06"/><polygon class="cls-72" points="339.02 175.13 196.5 317.64 195.43 317.64 339.02 174.06 339.02 175.13"/><polygon class="cls-71" points="339.02 176.21 197.58 317.64 196.5 317.64 339.02 175.13 339.02 176.21"/><polygon class="cls-292" points="339.02 177.28 198.65 317.64 197.58 317.64 339.02 176.21 339.02 177.28"/><polygon class="cls-293" points="339.02 178.35 199.73 317.64 198.65 317.64 339.02 177.28 339.02 178.35"/><polygon class="cls-294" points="339.02 179.43 200.8 317.64 199.73 317.64 339.02 178.35 339.02 179.43"/><polygon class="cls-67" points="339.02 180.5 201.88 317.64 200.8 317.64 339.02 179.43 339.02 180.5"/><polygon class="cls-66" points="339.02 181.58 202.95 317.64 201.88 317.64 339.02 180.5 339.02 181.58"/><polygon class="cls-295" points="339.02 182.65 204.03 317.64 202.95 317.64 339.02 181.58 339.02 182.65"/><polygon class="cls-296" points="339.02 183.73 205.1 317.64 204.03 317.64 339.02 182.65 339.02 183.73"/><polygon class="cls-63" points="339.02 184.8 206.18 317.64 205.1 317.64 339.02 183.73 339.02 184.8"/><polygon class="cls-62" points="339.02 185.88 207.25 317.64 206.18 317.64 339.02 184.8 339.02 185.88"/><polygon class="cls-61" points="339.02 186.95 208.33 317.64 207.25 317.64 339.02 185.88 339.02 186.95"/><polygon class="cls-297" points="339.02 188.03 209.4 317.64 208.33 317.64 339.02 186.95 339.02 188.03"/><polygon class="cls-59" points="339.02 189.1 210.48 317.64 209.4 317.64 339.02 188.03 339.02 189.1"/><polygon class="cls-298" points="339.02 190.18 211.55 317.64 210.48 317.64 339.02 189.1 339.02 190.18"/><polygon class="cls-299" points="339.02 191.25 212.63 317.64 211.55 317.64 339.02 190.18 339.02 191.25"/><polygon class="cls-55" points="339.02 192.33 213.7 317.64 212.63 317.64 339.02 191.25 339.02 192.33"/><polygon class="cls-54" points="339.02 193.4 214.78 317.64 213.7 317.64 339.02 192.33 339.02 193.4"/><polygon class="cls-300" points="339.02 194.48 215.85 317.64 214.78 317.64 339.02 193.4 339.02 194.48"/><polygon class="cls-301" points="339.02 195.55 216.93 317.64 215.85 317.64 339.02 194.48 339.02 195.55"/><polygon class="cls-51" points="339.02 196.63 218 317.64 216.93 317.64 339.02 195.55 339.02 196.63"/><polygon class="cls-302" points="339.02 197.7 219.08 317.64 218 317.64 339.02 196.63 339.02 197.7"/><polygon class="cls-303" points="339.02 198.78 220.15 317.64 219.08 317.64 339.02 197.7 339.02 198.78"/><polygon class="cls-48" points="339.02 199.85 221.22 317.64 220.15 317.64 339.02 198.78 339.02 199.85"/><polygon class="cls-47" points="339.02 200.93 222.3 317.64 221.22 317.64 339.02 199.85 339.02 200.93"/><polygon class="cls-46" points="339.02 202 223.38 317.64 222.3 317.64 339.02 200.93 339.02 202"/><polygon class="cls-45" points="339.02 203.08 224.45 317.64 223.38 317.64 339.02 202 339.02 203.08"/><polygon class="cls-44" points="339.02 204.15 225.53 317.64 224.45 317.64 339.02 203.08 339.02 204.15"/><polygon class="cls-304" points="339.02 205.23 226.6 317.64 225.53 317.64 339.02 204.15 339.02 205.23"/><polygon class="cls-41" points="339.02 206.3 227.67 317.64 226.6 317.64 339.02 205.23 339.02 206.3"/><polygon class="cls-40" points="339.02 207.38 228.75 317.64 227.67 317.64 339.02 206.3 339.02 207.38"/><polygon class="cls-39" points="339.02 208.45 229.82 317.64 228.75 317.64 339.02 207.38 339.02 208.45"/><polygon class="cls-38" points="339.02 209.53 230.9 317.64 229.82 317.64 339.02 208.45 339.02 209.53"/><polygon class="cls-36" points="339.02 210.6 231.97 317.64 230.9 317.64 339.02 209.53 339.02 210.6"/><polygon class="cls-305" points="339.02 211.68 233.05 317.64 231.97 317.64 339.02 210.6 339.02 211.68"/><polygon class="cls-306" points="339.02 212.75 234.12 317.64 233.05 317.64 339.02 211.68 339.02 212.75"/><polygon class="cls-307" points="339.02 213.82 235.2 317.64 234.12 317.64 339.02 212.75 339.02 213.82"/><polygon class="cls-33" points="339.02 214.9 236.27 317.64 235.2 317.64 339.02 213.82 339.02 214.9"/><polygon class="cls-31" points="339.02 215.97 237.35 317.64 236.27 317.64 339.02 214.9 339.02 215.97"/><polygon class="cls-30" points="339.02 217.05 238.42 317.64 237.35 317.64 339.02 215.97 339.02 217.05"/><polygon class="cls-29" points="339.02 218.12 239.5 317.64 238.42 317.64 339.02 217.05 339.02 218.12"/><polygon class="cls-308" points="339.02 219.2 240.57 317.64 239.5 317.64 339.02 218.12 339.02 219.2"/><polygon class="cls-27" points="339.02 220.27 241.65 317.64 240.57 317.64 339.02 219.2 339.02 220.27"/><polygon class="cls-309" points="339.02 221.35 242.72 317.64 241.65 317.64 339.02 220.27 339.02 221.35"/><polygon class="cls-310" points="339.02 222.42 243.8 317.64 242.72 317.64 339.02 221.35 339.02 222.42"/><polygon class="cls-24" points="339.02 223.5 244.87 317.64 243.8 317.64 339.02 222.42 339.02 223.5"/><polygon class="cls-311" points="339.02 224.57 245.95 317.64 244.87 317.64 339.02 223.5 339.02 224.57"/><polygon class="cls-312" points="339.02 225.65 247.02 317.64 245.95 317.64 339.02 224.57 339.02 225.65"/><polygon class="cls-22" points="339.02 226.72 248.1 317.64 247.02 317.64 339.02 225.65 339.02 226.72"/><polygon class="cls-21" points="339.02 227.8 249.17 317.64 248.1 317.64 339.02 226.72 339.02 227.8"/><polygon class="cls-19" points="339.02 228.87 250.25 317.64 249.17 317.64 339.02 227.8 339.02 228.87"/><polygon class="cls-18" points="339.02 229.95 251.32 317.64 250.25 317.64 339.02 228.87 339.02 229.95"/><polygon class="cls-17" points="339.02 231.02 252.4 317.64 251.32 317.64 339.02 229.95 339.02 231.02"/><polygon class="cls-15" points="339.02 232.1 253.47 317.64 252.4 317.64 339.02 231.02 339.02 232.1"/><polygon class="cls-313" points="339.02 233.17 254.55 317.64 253.47 317.64 339.02 232.1 339.02 233.17"/><polygon class="cls-13" points="339.02 234.25 255.62 317.64 254.55 317.64 339.02 233.17 339.02 234.25"/><polygon class="cls-13" points="339.02 235.32 256.7 317.64 255.62 317.64 339.02 234.25 339.02 235.32"/><polygon class="cls-11" points="339.02 236.4 257.77 317.64 256.7 317.64 339.02 235.32 339.02 236.4"/><polygon class="cls-10" points="339.02 237.47 258.85 317.64 257.77 317.64 339.02 236.4 339.02 237.47"/><polygon class="cls-9" points="339.02 238.55 259.92 317.64 258.85 317.64 339.02 237.47 339.02 238.55"/><polygon class="cls-7" points="339.02 239.62 261 317.64 259.92 317.64 339.02 238.55 339.02 239.62"/><polygon class="cls-6" points="339.02 240.7 262.07 317.64 261 317.64 339.02 239.62 339.02 240.7"/><polygon class="cls-5" points="339.02 241.77 263.14 317.64 262.07 317.64 339.02 240.7 339.02 241.77"/><polygon class="cls-4" points="339.02 242.85 264.22 317.64 263.14 317.64 339.02 241.77 339.02 242.85"/><polygon class="cls-4" points="264.22 317.64 339.02 242.85 339.02 317.64 264.22 317.64"/></g><g class="cls-314"><path class="cls-315" d="M211.33,62.27A127.69,127.69,0,1,0,339,190,127.69,127.69,0,0,0,211.33,62.27Zm0,230A102.35,102.35,0,1,1,313.67,190,102.34,102.34,0,0,1,211.33,292.3Z"/></g><path class="cls-316" d="M211.33,293.3A103.34,103.34,0,1,1,314.67,190,103.46,103.46,0,0,1,211.33,293.3Zm0-204.68A101.34,101.34,0,1,0,312.67,190,101.45,101.45,0,0,0,211.33,88.62Z"/><path class="cls-317" d="M211.33,318.62c-71,0-128.67-57.72-128.67-128.66A128.67,128.67,0,0,1,340,190C340,260.9,282.28,318.62,211.33,318.62Zm0-255.33A126.67,126.67,0,1,0,338,190,126.81,126.81,0,0,0,211.33,63.29Z"/><path class="cls-318" d="M196.65,203.76s.61,4.52,4.4,6.61l-1-1.89S202,203.4,196.65,203.76Z"/><path class="cls-318" d="M245.88,155.39a48.88,48.88,0,1,0,0,69.13A48.91,48.91,0,0,0,245.88,155.39Zm-5,64.08c-.54.52-1.06,1-1.6,1.52-11.74,9.57-20.79,4.81-20.89,4.81-6.13-1.23-9.17-1.25-10.89-2.4-.43-.29-1.82-1-2.14-.85a3.9,3.9,0,0,1-4.74-.28,5.84,5.84,0,0,1-.44-.4c-2-2-1.29-4-.64-4.65.44-.46-.35-1.74-.35-1.74s-2.3-3.42-3.87-5.48c-1.74-2.26-2-6.74-2-6.8l0-.06a18.3,18.3,0,0,1-2.54-3.73,9.36,9.36,0,0,0-1.35-1.64,9.06,9.06,0,0,1-.82-.9.36.36,0,0,1,0-.29c.16-1,2.25-3.11,2.7-3.4s2.93-1.81,2.93-1.81a4.73,4.73,0,0,1,3.61-2.1,17.35,17.35,0,0,1,6.85,1l1.47.47a67.22,67.22,0,0,1,6.37,2.47,30.27,30.27,0,0,0,3.54,1.38c3.05.8,8.44-1.67,9.57-2.71,1.87-1.7,2.67-2.83,2.68-3.77a2.06,2.06,0,0,0-.74-1.53c-.28-.25-.63-.72-1.07-1.17a2.61,2.61,0,0,0-.24-.22c-5.17-5.49-4.27-8.93-4.27-9,.22-2.46-1.19-4.05-2.71-5.69l-.25-.31a1.75,1.75,0,0,1-.18-.2c2.2.36,3.7,1.25,8,1.73a15.31,15.31,0,0,0,3.62.19c2.69-.09,4.82-.32,5-.93a38.18,38.18,0,0,1-7.15-2.12c-2.65-1-3.06-1.16-4.74-1.72-2.16-.73-4.5-1.74-4.5-1.74,9.31,2.45,12.35,3.4,16.61,3.46a14,14,0,0,0,3.21-.28c.6-.11,2.48-.54,2.69-1.19a15,15,0,0,1-5.26-.83c-10.86-3.59-11.79-5.39-17.81-7.73a52.84,52.84,0,0,0-9.13-2.9c-2.91-.75-7.3-.32-7.9.05-8.24-1.93-10.11-1.72-12.53-1.2a41.78,41.78,0,0,1,52,5.62,43.58,43.58,0,0,1,5.09,6.16l.19.3a41.74,41.74,0,0,1-5.28,52.56Zm-27.37-47.11c4.09,1.46,5.41,5.81,5.41,5.81-5.2,1.19-4.11-4.12-4.11-4.12Z"/><path class="cls-318" d="M133.22,107.79a1.13,1.13,0,0,0-.9-.36,3.76,3.76,0,0,0-1.4.51,7.64,7.64,0,0,1-2.64,1,2.2,2.2,0,0,1-1.91-.7,2.29,2.29,0,0,1-.62-2.06,4.06,4.06,0,0,1,1.29-2.3,3.77,3.77,0,0,1,2.4-1.19,2.47,2.47,0,0,1,2.11.79l0,0-1.31,1.29a1.42,1.42,0,0,0-1.07-.45,1.75,1.75,0,0,0-1.16.57,1.86,1.86,0,0,0-.61,1.07,1.08,1.08,0,0,0,.31.91.94.94,0,0,0,.88.25,6.19,6.19,0,0,0,1.56-.61,5.8,5.8,0,0,1,2.5-.84,2.41,2.41,0,0,1,1.9.77,2.29,2.29,0,0,1,.66,2,4.24,4.24,0,0,1-1.32,2.28,4.61,4.61,0,0,1-2.49,1.32,2.5,2.5,0,0,1-2.37-.81l0,0,1.32-1.3a1.46,1.46,0,0,0,1.24.52,2.33,2.33,0,0,0,1.31-.73,1.83,1.83,0,0,0,.62-1.06A1,1,0,0,0,133.22,107.79Z"/><path class="cls-318" d="M135.1,101.13a2.53,2.53,0,0,1,.14-1.1,2.39,2.39,0,0,1,2.44-1.45,3.43,3.43,0,0,1,1.94,1.34l2.69,3.2-1.45,1.22-2.71-3.22a1.8,1.8,0,0,0-1-.7,1,1,0,0,0-.88.29,1.6,1.6,0,0,0-.44.55,1.36,1.36,0,0,0-.13.62l3.34,4-1.46,1.22-6.54-7.78,1.46-1.23Z"/><path class="cls-318" d="M147.19,99.5a3.19,3.19,0,0,1-.44-.31,2.93,2.93,0,0,1-.41-.38,2.62,2.62,0,0,1-.12,1.15,1.94,1.94,0,0,1-.73.94,2.33,2.33,0,0,1-1.72.54,2,2,0,0,1-1.39-.9,1.85,1.85,0,0,1-.3-1.77,4,4,0,0,1,1.55-1.83l.86-.62-.33-.46a1.14,1.14,0,0,0-.68-.48,1.08,1.08,0,0,0-.8.24,1,1,0,0,0-.45.6.8.8,0,0,0,.17.65l-1.5,1.07,0,0a1.79,1.79,0,0,1-.28-1.71A3.4,3.4,0,0,1,142,94.42a3.17,3.17,0,0,1,2-.68,2.18,2.18,0,0,1,1.71,1l1.71,2.36a6.26,6.26,0,0,0,.61.71,4.77,4.77,0,0,0,.7.56Zm-2.15,0a1.68,1.68,0,0,0,.58-.72,1.37,1.37,0,0,0,.09-.78l-.59-.8-.86.62a1.25,1.25,0,0,0-.56.79,1,1,0,0,0,.17.77.72.72,0,0,0,.53.32A.87.87,0,0,0,145,99.49Z"/><path class="cls-318" d="M153.74,91.28a4.07,4.07,0,0,1,.72,2.51,2.4,2.4,0,0,1-1.22,1.88,2.21,2.21,0,0,1-.94.35,2.18,2.18,0,0,1-.94-.12l1.79,2.87-1.61,1-5.17-8.29,1.46-.9.53.65a2.4,2.4,0,0,1,.27-1,2,2,0,0,1,.73-.75,2.37,2.37,0,0,1,2.27-.21,4.58,4.58,0,0,1,2,1.9Zm-1.69.88a3.48,3.48,0,0,0-1.14-1.2,1.09,1.09,0,0,0-1.19,0,1.51,1.51,0,0,0-.53.54,1.21,1.21,0,0,0-.14.68l1.63,2.63a1.25,1.25,0,0,0,.65.13,1.71,1.71,0,0,0,.72-.26,1.09,1.09,0,0,0,.57-1,2.8,2.8,0,0,0-.5-1.41Z"/><path class="cls-318" d="M159.82,91.92a3.16,3.16,0,0,1-2.61.28,3.48,3.48,0,0,1-2-1.76l-.13-.23a3.82,3.82,0,0,1-.44-2.69,3.22,3.22,0,0,1,3.93-2.26A3.32,3.32,0,0,1,160.39,87l.48.91-3.72,2v0a1.78,1.78,0,0,0,.94.79,1.42,1.42,0,0,0,1.21-.13,3.75,3.75,0,0,0,.87-.6,5.3,5.3,0,0,0,.61-.78l1,.8a3.37,3.37,0,0,1-.72,1A4.69,4.69,0,0,1,159.82,91.92Zm-2.89-5.09a1,1,0,0,0-.55.75,2.08,2.08,0,0,0,.16,1.12l0,0,2.07-1.1-.08-.15a1.59,1.59,0,0,0-.71-.72A1,1,0,0,0,156.93,86.83Z"/><path class="cls-318" d="M166,79.19l.67,1.6,1.09-.46.52,1.23-1.1.46,1.38,3.31a.86.86,0,0,0,.39.48.62.62,0,0,0,.48,0,1.2,1.2,0,0,0,.23-.12l.22-.14.68,1.2a4.76,4.76,0,0,1-.47.35,3.17,3.17,0,0,1-.52.27,2,2,0,0,1-1.61.09,2.38,2.38,0,0,1-1.15-1.38l-1.38-3.32-.95.4L164,81.92l1-.4-.66-1.59Z"/><path class="cls-318" d="M171.82,79.76a2.4,2.4,0,0,1,.52-1,2.1,2.1,0,0,1,.92-.61,2.16,2.16,0,0,1,1.87.12,3.38,3.38,0,0,1,1.34,1.93l1.38,4-1.8.63-1.38-4a1.81,1.81,0,0,0-.66-1,1.1,1.1,0,0,0-.93,0,1.78,1.78,0,0,0-.6.36,1.34,1.34,0,0,0-.34.54l1.7,4.89-1.79.62-3.35-9.59,1.8-.63Z"/><path class="cls-318" d="M182.78,82.93a3.2,3.2,0,0,1-2.61-.31,3.48,3.48,0,0,1-1.53-2.16l-.07-.25a3.86,3.86,0,0,1,.16-2.72,3.22,3.22,0,0,1,4.34-1.33,3.33,3.33,0,0,1,1.36,2l.27,1-4.06,1.1v0a1.75,1.75,0,0,0,.75,1,1.45,1.45,0,0,0,1.2.14,3.49,3.49,0,0,0,1-.4,4.86,4.86,0,0,0,.77-.62l.81,1a3.61,3.61,0,0,1-.94.86A4.8,4.8,0,0,1,182.78,82.93Zm-1.69-5.61a1,1,0,0,0-.7.61,2.08,2.08,0,0,0-.09,1.13l0,0,2.25-.61-.05-.16a1.51,1.51,0,0,0-.52-.86A1,1,0,0,0,181.09,77.32Z"/><path class="cls-318" d="M191.42,80.84l-1-5.63-1,.18-.22-1.32,1-.18-.13-.77a2.37,2.37,0,0,1,.37-1.91,2.68,2.68,0,0,1,1.78-1,3.87,3.87,0,0,1,.49,0h.56l.08,1.42h-.3l-.34,0a1,1,0,0,0-.65.37,1,1,0,0,0-.11.76l.13.77,1.38-.23.22,1.31-1.38.24,1,5.63Z"/><path class="cls-318" d="M200.32,78.58a2.35,2.35,0,0,1-.73.93,2.42,2.42,0,0,1-2.92-.09,3.3,3.3,0,0,1-.87-2.14l-.46-4.23,1.88-.21.47,4.26a1.76,1.76,0,0,0,.38,1.07.9.9,0,0,0,.8.25,1.89,1.89,0,0,0,.76-.23,1.33,1.33,0,0,0,.48-.49l-.56-5.11,1.9-.21.76,7-1.61.18Z"/><path class="cls-318" d="M206,70.4l.09,1.73,1.18-.06.07,1.34-1.19,0,.17,3.59a.89.89,0,0,0,.2.58.62.62,0,0,0,.47.15.9.9,0,0,0,.25,0l.25-.07.23,1.37a4.3,4.3,0,0,1-.55.17,3.5,3.5,0,0,1-.59.08,2,2,0,0,1-1.54-.47,2.37,2.37,0,0,1-.62-1.68l-.17-3.6-1,.06-.06-1.34,1,0-.09-1.72Z"/><path class="cls-318" d="M213.7,78.08a2.31,2.31,0,0,1-.83.84,2.25,2.25,0,0,1-1.16.29,2.2,2.2,0,0,1-1.74-.74,3.31,3.31,0,0,1-.6-2.22l0-4.26,1.9,0,0,4.27a1.78,1.78,0,0,0,.25,1.11.88.88,0,0,0,.76.35,1.84,1.84,0,0,0,.78-.14,1.26,1.26,0,0,0,.54-.43l.06-5.14,1.91,0-.09,7.05-1.62,0Z"/><path class="cls-318" d="M221.52,74.11l-.69-.07a1.31,1.31,0,0,0-.71.12,1.14,1.14,0,0,0-.45.47l-.34,4.75-1.89-.14.5-7,1.76.13v1a2.27,2.27,0,0,1,.71-.81,1.42,1.42,0,0,1,.93-.25,1.09,1.09,0,0,1,.26.05l.24.07Z"/><path class="cls-318" d="M225.71,80.18a3.16,3.16,0,0,1-2.29-1.29,3.48,3.48,0,0,1-.59-2.58l0-.25a3.84,3.84,0,0,1,1.19-2.46,2.86,2.86,0,0,1,2.43-.7A2.83,2.83,0,0,1,228.57,74a3.27,3.27,0,0,1,.48,2.41l-.13,1-4.17-.54,0,0a1.82,1.82,0,0,0,.31,1.19,1.47,1.47,0,0,0,1.06.59,3.71,3.71,0,0,0,1.05,0,4.78,4.78,0,0,0,1-.28l.36,1.23a3.52,3.52,0,0,1-1.19.44A5.11,5.11,0,0,1,225.71,80.18Zm.59-5.83a1,1,0,0,0-.88.3,2.11,2.11,0,0,0-.52,1l0,0,2.31.31,0-.17a1.54,1.54,0,0,0-.16-1A1,1,0,0,0,226.3,74.35Z"/><path class="cls-318" d="M240.54,80.42h0l2-4.17,1.73.43-3.45,6.41-1.54-.39-.25-4.39h0l-2.29,3.76-1.53-.39,0-7.27,1.73.43-.19,4.61h0l2.37-4.06,1.23.31Z"/><path class="cls-318" d="M245.88,84.66l-1.82-.58,2.16-6.72,1.81.58Zm2.66-8.32-1.81-.58.44-1.36L249,75Z"/><path class="cls-318" d="M253.05,77.88l-.59,1.62,1.11.41-.46,1.26L252,80.76l-1.24,3.37a.78.78,0,0,0,0,.61.61.61,0,0,0,.36.32l.25.07.25,0-.32,1.34a3.45,3.45,0,0,1-.57-.05,5.11,5.11,0,0,1-.58-.16,2.05,2.05,0,0,1-1.23-1,2.35,2.35,0,0,1,.09-1.79l1.24-3.38-1-.35.46-1.26,1,.36.6-1.62Z"/><path class="cls-318" d="M256.91,82.23a2.53,2.53,0,0,1,1-.36,2,2,0,0,1,1.08.18,2.16,2.16,0,0,1,1.3,1.36,3.47,3.47,0,0,1-.33,2.33l-1.68,3.83-1.74-.76L258.27,85a1.8,1.8,0,0,0,.2-1.19,1,1,0,0,0-.65-.65,1.49,1.49,0,0,0-.69-.15,1.26,1.26,0,0,0-.61.16l-2.07,4.75-1.75-.76,4.07-9.32,1.74.76Z"/><path class="cls-318" d="M275,87.83l-3.17,5.45a3,3,0,0,1-2.15,1.59,4.81,4.81,0,0,1-4.76-2.77,3,3,0,0,1,.33-2.65L268.4,84l1.65,1-3.16,5.43a1.84,1.84,0,0,0-.28,1.47,2.31,2.31,0,0,0,2.41,1.4,1.8,1.8,0,0,0,1.14-1l3.17-5.44Z"/><path class="cls-318" d="M277.61,98.11a1.08,1.08,0,0,0,.18-.94,3.7,3.7,0,0,0-.75-1.3,7.57,7.57,0,0,1-1.43-2.41,2.22,2.22,0,0,1,.34-2,2.31,2.31,0,0,1,1.91-1,4.16,4.16,0,0,1,2.5.85A3.79,3.79,0,0,1,282,93.45a2.51,2.51,0,0,1-.39,2.23l0,0L280,94.64a1.35,1.35,0,0,0,.25-1.12,1.72,1.72,0,0,0-.77-1,1.83,1.83,0,0,0-1.16-.4,1.07,1.07,0,0,0-.84.47.9.9,0,0,0-.09.9,6,6,0,0,0,.88,1.42,6.05,6.05,0,0,1,1.29,2.31,2.38,2.38,0,0,1-.42,2,2.23,2.23,0,0,1-1.89,1,4.13,4.13,0,0,1-2.48-.88,4.66,4.66,0,0,1-1.76-2.2,2.51,2.51,0,0,1,.37-2.48l0,0L275,95.69a1.44,1.44,0,0,0-.29,1.31,2.27,2.27,0,0,0,1,1.15,1.84,1.84,0,0,0,1.15.42A1,1,0,0,0,277.61,98.11Z"/><path class="cls-318" d="M279.28,102.42l6.07-7.3,2.51,2.09a3.88,3.88,0,0,1,1.49,2.68,3.81,3.81,0,0,1-1,2.91l-1,1.21a3.79,3.79,0,0,1-2.69,1.47,3.91,3.91,0,0,1-2.91-1Zm6.6-5-4.2,5,1,.81a2,2,0,0,0,1.68.49,2.64,2.64,0,0,0,1.59-1l1-1.22a2.67,2.67,0,0,0,.69-1.75,2,2,0,0,0-.79-1.55Z"/><path class="cls-318" d="M286.32,108.39l6.65-6.77,2.28,2.25a4.53,4.53,0,0,1,1.41,2.3,2.22,2.22,0,0,1-.7,2,2,2,0,0,1-1.07.59,2.19,2.19,0,0,1-1.27-.15,2,2,0,0,1,.37,1.45,2.68,2.68,0,0,1-2.76,2.13,4.13,4.13,0,0,1-2.31-1.29Zm4.29-1.66-1.91,2,1.25,1.23a1.78,1.78,0,0,0,1.05.57,1.2,1.2,0,0,0,1-.41,1.52,1.52,0,0,0,.5-1,1.41,1.41,0,0,0-.5-1Zm.93-.94,1,1a1.9,1.9,0,0,0,1.06.6,1.07,1.07,0,0,0,.93-.36,1.13,1.13,0,0,0,.39-1,2,2,0,0,0-.66-1.09l-.93-.92Z"/><path class="cls-318" d="M314.18,235.34l1.31-3.06-1.64-1.39.76-1.77,7.45,6.71-.76,1.79-10-.71.75-1.77Zm2.5-2.05-.94,2.21,3.89.37v0Z"/><path class="cls-318" d="M306.79,249.1a.67.67,0,0,0,.62,0,3,3,0,0,0,.93-.75,4.51,4.51,0,0,1,1.62-1.22,1.62,1.62,0,0,1,1.49.16,1.94,1.94,0,0,1,.93,1.46,3.12,3.12,0,0,1-.52,2.08,3.32,3.32,0,0,1-1.66,1.5,1.86,1.86,0,0,1-1.76-.17l0,0,1-1.57a1,1,0,0,0,.73.13,1.13,1.13,0,0,0,.64-.54,1.07,1.07,0,0,0,.18-.74.7.7,0,0,0-.34-.52.67.67,0,0,0-.6,0,2.92,2.92,0,0,0-.9.77,4.63,4.63,0,0,1-1.66,1.26,1.7,1.7,0,0,1-1.52-.19,1.85,1.85,0,0,1-.9-1.5,3.49,3.49,0,0,1,.6-2.15,3.24,3.24,0,0,1,1.76-1.53,2,2,0,0,1,1.8.18l0,0-.9,1.49a1,1,0,0,0-.9-.11,1.57,1.57,0,0,0-.69.65,1.37,1.37,0,0,0-.24.8A.68.68,0,0,0,306.79,249.1Z"/><path class="cls-318" d="M309.13,258l-1.43-1-.67,1-1.1-.76.67-1-3-2a.86.86,0,0,0-.58-.2.63.63,0,0,0-.41.28l-.13.22-.09.24-1.23-.64a3.93,3.93,0,0,1,.2-.55,3,3,0,0,1,.29-.52,2.06,2.06,0,0,1,1.31-.94,2.37,2.37,0,0,1,1.71.54l3,2,.59-.85,1.1.76-.59.84,1.43,1Z"/><path class="cls-318" d="M297.69,258.64a5.08,5.08,0,0,1,.51.17,3.4,3.4,0,0,1,.5.26,2.64,2.64,0,0,1-.2-1.14,2,2,0,0,1,.43-1.11,2.46,2.46,0,0,1,1.5-1,2,2,0,0,1,1.6.49,1.88,1.88,0,0,1,.78,1.61,4,4,0,0,1-1,2.19l-.65.84.44.34a1.13,1.13,0,0,0,.79.28,1.09,1.09,0,0,0,.71-.45,1.13,1.13,0,0,0,.26-.7.83.83,0,0,0-.34-.59l1.13-1.44,0,0a1.8,1.8,0,0,1,.74,1.56,3.48,3.48,0,0,1-.81,2.1,3.17,3.17,0,0,1-1.77,1.22,2.23,2.23,0,0,1-1.93-.5l-2.3-1.79a5.77,5.77,0,0,0-.78-.51,4.66,4.66,0,0,0-.83-.34Zm2.07-.59a1.7,1.7,0,0,0-.35.86,1.27,1.27,0,0,0,.13.77l.78.61.66-.84a1.3,1.3,0,0,0,.32-.91,1,1,0,0,0-.39-.7.72.72,0,0,0-.59-.16A.9.9,0,0,0,299.76,258.05Z"/><path class="cls-318" d="M293.69,268.35a4.12,4.12,0,0,1-1.4-2.21,2.38,2.38,0,0,1,.65-2.15,2.21,2.21,0,0,1,.91-.62,2.29,2.29,0,0,1,1.08-.08l-.55-.69,1.09-1.21,7.55,6.8-1.26,1.41L298.88,267a2.16,2.16,0,0,1,0,1,2,2,0,0,1-.49.88,2.32,2.32,0,0,1-2.12.84,4.64,4.64,0,0,1-2.48-1.28Zm1.37-1.32a3.73,3.73,0,0,0,1.42.87,1.06,1.06,0,0,0,1.14-.36,1.48,1.48,0,0,0,.37-.68,1.28,1.28,0,0,0-.08-.72l-2.23-2a1.24,1.24,0,0,0-.69,0,1.43,1.43,0,0,0-.63.45,1.09,1.09,0,0,0-.31,1.11,3.06,3.06,0,0,0,.91,1.21Z"/><path class="cls-318" d="M288.55,268.75l1.35-1.34,7.16,7.21L295.71,276Z"/><path class="cls-318" d="M284.62,272.21a3.17,3.17,0,0,1,2.47-.89,3.45,3.45,0,0,1,2.33,1.24l.18.2a3.92,3.92,0,0,1,1.08,2.5,3.22,3.22,0,0,1-3.28,3.13,3.31,3.31,0,0,1-2.14-1.21l-.69-.77,3.14-2.81,0,0a1.72,1.72,0,0,0-1.11-.54,1.42,1.42,0,0,0-1.13.41,3.45,3.45,0,0,0-.7.79,4.57,4.57,0,0,0-.41.91l-1.17-.53a3.59,3.59,0,0,1,.45-1.19A4.84,4.84,0,0,1,284.62,272.21Zm4,4.25a1,1,0,0,0,.36-.85,2.12,2.12,0,0,0-.43-1.05h0l-1.74,1.55.11.13a1.5,1.5,0,0,0,.85.53A1,1,0,0,0,288.64,276.46Z"/><path class="cls-318" d="M279.81,278.1a1.11,1.11,0,0,0-.46.73,1.05,1.05,0,0,0,.24.81l-1.36,1.06,0,0a2.16,2.16,0,0,1-.46-1.9,3.37,3.37,0,0,1,3.71-2.54,3.84,3.84,0,0,1,2.25,1.5l.12.15a3.85,3.85,0,0,1,.9,2.55,3,3,0,0,1-1.3,2.28,3,3,0,0,1-2.12.7,2.47,2.47,0,0,1-1.81-1.07v0l1.37-1.06a1.37,1.37,0,0,0,.79.53,1,1,0,0,0,.88-.22,1.1,1.1,0,0,0,.48-1.12,3.27,3.27,0,0,0-.68-1.38l-.12-.15a3.24,3.24,0,0,0-1.18-1A1.11,1.11,0,0,0,279.81,278.1Z"/><path class="cls-318" d="M277.68,282.56a3.78,3.78,0,0,1,.71,2.64,3.06,3.06,0,0,1-1.46,2.19,3.1,3.1,0,0,1-2.6.53,3.8,3.8,0,0,1-2.17-1.65l-.08-.12a3.75,3.75,0,0,1-.71-2.64,3.48,3.48,0,0,1,4.06-2.72,3.75,3.75,0,0,1,2.18,1.66Zm-1.65.95a3,3,0,0,0-1.14-1.1,1.16,1.16,0,0,0-1.23.13,1.14,1.14,0,0,0-.57,1.08,3.06,3.06,0,0,0,.57,1.47l.08.12a3,3,0,0,0,1.14,1.08,1.3,1.3,0,0,0,1.8-1.21,3.17,3.17,0,0,0-.57-1.46Z"/><path class="cls-318" d="M267,285.18l1.63-1,3.6,6.06-1.63,1Zm4.46,7.51,1.63-1,.73,1.23-1.63,1Z"/><path class="cls-318" d="M266.89,293.29l-.55-.85a2.52,2.52,0,0,1-.37,1.14,2.23,2.23,0,0,1-.89.8,2.13,2.13,0,0,1-1.79.18,3.09,3.09,0,0,1-1.5-1.58l-2.05-3.91,1.69-.88,2.05,3.9a1.47,1.47,0,0,0,.72.77,1.2,1.2,0,0,0,.91-.14,1.57,1.57,0,0,0,.53-.45,1.52,1.52,0,0,0,.24-.62l-2.38-4.54,1.69-.89,3.27,6.25Z"/><path class="cls-318" d="M252.32,296.11a4.55,4.55,0,0,1,.21,2.78,2.35,2.35,0,0,1-1.58,1.64,1.9,1.9,0,0,1-1.07.1,2.37,2.37,0,0,1-1-.46l.16.89-1.55.55L245.17,295a2.61,2.61,0,0,1,.14-2.31,3.85,3.85,0,0,1,2.12-1.55,5.24,5.24,0,0,1,2.29-.23l.14,1.46a3.7,3.7,0,0,0-.94,0,4.63,4.63,0,0,0-1,.22,1.72,1.72,0,0,0-1,.7,1.29,1.29,0,0,0,0,1.08l.21.6a2.1,2.1,0,0,1,1.34-1.34,2.4,2.4,0,0,1,2.23.23,3.94,3.94,0,0,1,1.52,2.12Zm-1.84.51a2.84,2.84,0,0,0-.79-1.28,1.08,1.08,0,0,0-1.13-.17,1.6,1.6,0,0,0-.65.4,1.3,1.3,0,0,0-.3.61l1,2.9a1.45,1.45,0,0,0,.62.31,1.42,1.42,0,0,0,.75-.08,1.05,1.05,0,0,0,.75-.93,3.33,3.33,0,0,0-.24-1.63Z"/><path class="cls-318" d="M239.43,297.67a2.33,2.33,0,0,1,.57-1.05,2.46,2.46,0,0,1,2.91-.36,3.27,3.27,0,0,1,1.19,2l1.12,4.1-1.82.5-1.14-4.12a1.76,1.76,0,0,0-.54-1,.91.91,0,0,0-.83-.12,1.89,1.89,0,0,0-.71.35,1.34,1.34,0,0,0-.41.56l1.36,5-1.83.5-1.87-6.8,1.57-.43Z"/><path class="cls-318" d="M231.46,298.41a3.47,3.47,0,0,1,.27.46,2.57,2.57,0,0,1,.21.52,2.64,2.64,0,0,1,.6-1,1.91,1.91,0,0,1,1.05-.55,2.39,2.39,0,0,1,1.79.22,2.09,2.09,0,0,1,.89,1.41,1.88,1.88,0,0,1-.47,1.73,3.93,3.93,0,0,1-2.18,1l-1,.21.11.55a1.12,1.12,0,0,0,.41.72,1.26,1.26,0,0,0,1.49-.24.76.76,0,0,0,.12-.65l1.81-.36v0a1.78,1.78,0,0,1-.46,1.66,3.34,3.34,0,0,1-2,1.06,3.23,3.23,0,0,1-2.14-.23,2.28,2.28,0,0,1-1.13-1.64l-.56-2.86a5.91,5.91,0,0,0-.26-.9,4.6,4.6,0,0,0-.4-.8Zm1.95.91a1.63,1.63,0,0,0-.83.41,1.29,1.29,0,0,0-.4.67l.19,1,1-.21a1.3,1.3,0,0,0,.85-.48,1,1,0,0,0,.16-.78.75.75,0,0,0-.34-.51A.87.87,0,0,0,233.41,299.32Z"/><path class="cls-318" d="M225,304.88l.69-.08a1.32,1.32,0,0,0,.67-.27,1.08,1.08,0,0,0,.34-.55l-.65-4.72L228,299l1,7-1.75.24-.22-1a2.3,2.3,0,0,1-.52.94,1.39,1.39,0,0,1-.86.43,1.18,1.18,0,0,1-.26,0l-.25,0Z"/><path class="cls-318" d="M218.66,300a4.25,4.25,0,0,1,.21.49,2.72,2.72,0,0,1,.15.54,2.64,2.64,0,0,1,.71-.91,2,2,0,0,1,1.11-.43,2.41,2.41,0,0,1,1.75.44,2,2,0,0,1,.72,1.5,1.86,1.86,0,0,1-.67,1.66,4,4,0,0,1-2.28.75l-1.06.09,0,.56a1.12,1.12,0,0,0,.33.76,1.08,1.08,0,0,0,.81.22,1,1,0,0,0,.69-.28.78.78,0,0,0,.2-.64l1.84-.14v0a1.81,1.81,0,0,1-.66,1.6,3.39,3.39,0,0,1-2.1.81,3.09,3.09,0,0,1-2.09-.48,2.2,2.2,0,0,1-.93-1.76l-.23-2.9a4.52,4.52,0,0,0-.15-.93,4.7,4.7,0,0,0-.3-.84Zm1.83,1.13a1.64,1.64,0,0,0-.87.32,1.23,1.23,0,0,0-.48.61l.08,1,1.05-.09a1.27,1.27,0,0,0,.9-.37,1,1,0,0,0,.25-.76.72.72,0,0,0-.28-.54A.9.9,0,0,0,220.49,301.15Z"/><path class="cls-318" d="M213.42,307.29l-.09-1a2.65,2.65,0,0,1-.86.84,2.29,2.29,0,0,1-1.16.31,2.15,2.15,0,0,1-1.67-.66,3.1,3.1,0,0,1-.61-2.1l0-4.4,1.91,0,0,4.41a1.45,1.45,0,0,0,.29,1,1.18,1.18,0,0,0,.87.29,1.44,1.44,0,0,0,.67-.16,1.32,1.32,0,0,0,.5-.44l0-5.12,1.9,0,.05,7Z"/><path class="cls-318" d="M204.32,308.83l.09-1.72-1.19-.07.08-1.33,1.18.06.19-3.58a.85.85,0,0,0-.14-.6.59.59,0,0,0-.44-.2h-.26l-.25.05-.09-1.39a4,4,0,0,1,.56-.11,3.88,3.88,0,0,1,.6,0,2,2,0,0,1,1.48.62,2.36,2.36,0,0,1,.44,1.74l-.19,3.59,1,.06-.07,1.33-1-.05-.09,1.72Z"/><path class="cls-318" d="M198.78,299.41a3.14,3.14,0,0,1,2.31,1.24,3.4,3.4,0,0,1,.63,2.56l0,.26a3.88,3.88,0,0,1-1.15,2.48,2.87,2.87,0,0,1-2.41.75,2.9,2.9,0,0,1-2.11-1.1,3.3,3.3,0,0,1-.52-2.4l.11-1,4.18.46,0,0a1.82,1.82,0,0,0-.34-1.19,1.42,1.42,0,0,0-1.06-.57,3.68,3.68,0,0,0-1.06,0,4.28,4.28,0,0,0-1,.3l-.38-1.23a3.68,3.68,0,0,1,1.18-.46A4.78,4.78,0,0,1,198.78,299.41Zm-.48,5.83a1,1,0,0,0,.87-.31,2,2,0,0,0,.5-1l0,0-2.32-.26,0,.17a1.6,1.6,0,0,0,.18,1A1,1,0,0,0,198.3,305.24Z"/><path class="cls-318" d="M191.29,298.29a3.18,3.18,0,0,1,2.23,1.4,3.48,3.48,0,0,1,.45,2.6l0,.26a3.92,3.92,0,0,1-1.31,2.39,3.23,3.23,0,0,1-4.49-.66,3.36,3.36,0,0,1-.36-2.43l.18-1,4.15.75,0,0a1.85,1.85,0,0,0-.26-1.2,1.45,1.45,0,0,0-1-.64,3.26,3.26,0,0,0-1.05-.06,4.63,4.63,0,0,0-1,.23l-.3-1.25a3.58,3.58,0,0,1,1.22-.38A4.88,4.88,0,0,1,191.29,298.29Zm-.87,5.79a1,1,0,0,0,.89-.25,2,2,0,0,0,.56-1v0l-2.3-.42,0,.17a1.55,1.55,0,0,0,.11,1A1,1,0,0,0,190.42,304.08Z"/><path class="cls-318" d="M186.34,301a4.63,4.63,0,0,1-1.36,2.43,2.36,2.36,0,0,1-2.22.49,2,2,0,0,1-.87-.46,2.49,2.49,0,0,1-.56-.81l-1,3.74-1.85-.47,2.51-9.85,1.58.4-.06.88a2.26,2.26,0,0,1,.95-.53,2,2,0,0,1,1.07,0,2.4,2.4,0,0,1,1.72,1.42,4.09,4.09,0,0,1,.07,2.61Zm-1.8-.61a3,3,0,0,0,.06-1.49,1.08,1.08,0,0,0-.86-.77,1.52,1.52,0,0,0-.73,0,1.39,1.39,0,0,0-.61.35l-.75,2.93a1.41,1.41,0,0,0,.36.63,1.34,1.34,0,0,0,.64.36,1.08,1.08,0,0,0,1.14-.36,3.45,3.45,0,0,0,.71-1.49Z"/><path class="cls-318" d="M164.68,293.69a4.07,4.07,0,0,1,1.62-2.07,2.39,2.39,0,0,1,2.23-.1,2.18,2.18,0,0,1,.9.65,2.28,2.28,0,0,1,.43,1l.47-.75,1.5.62-3.87,9.4-1.75-.72,1.47-3.58a2.22,2.22,0,0,1-.93.33,2.08,2.08,0,0,1-1-.17,2.34,2.34,0,0,1-1.51-1.71,4.7,4.7,0,0,1,.38-2.77Zm1.71.84a3.7,3.7,0,0,0-.35,1.64,1,1,0,0,0,.72.95,1.43,1.43,0,0,0,.77.11,1.27,1.27,0,0,0,.65-.31l1.14-2.77a1.21,1.21,0,0,0-.26-.64,1.66,1.66,0,0,0-.64-.45,1.07,1.07,0,0,0-1.15.09,3.09,3.09,0,0,0-.83,1.26Z"/><path class="cls-318" d="M160.91,291.45l.1-.39h0l-3.2,3.42-1.83-.91,6.16-6a3.78,3.78,0,0,1,1.29-.78A2.09,2.09,0,0,1,165,287a2.36,2.36,0,0,1,.39.23l.4.33L165,288.7l-.15-.1-.15-.09a1.05,1.05,0,0,0-.75-.12,1.57,1.57,0,0,0-.61.35l-.44.39-.88,7.42-1.83-.9Z"/><path class="cls-318" d="M151.2,282.62l-5.38,7.81-2.64-1.82a4.53,4.53,0,0,1-1.78-2,2.22,2.22,0,0,1,.33-2.14,2,2,0,0,1,2.23-.83,2,2,0,0,1-.61-1.37,2.32,2.32,0,0,1,.44-1.39,2.45,2.45,0,0,1,1.91-1.19,4.09,4.09,0,0,1,2.49.87Zm-4.69,3.46-1.13-.78a1.94,1.94,0,0,0-1.14-.41,1.09,1.09,0,0,0-.86.52,1.13,1.13,0,0,0-.21,1,2,2,0,0,0,.84,1l1.07.74Zm.74-1.09,1.55-2.25-1.44-1a1.8,1.8,0,0,0-1.14-.39,1.22,1.22,0,0,0-.87.58A1.48,1.48,0,0,0,145,283a1.41,1.41,0,0,0,.67.91Z"/><path class="cls-318" d="M137,283.09l1.5,1.17-.88,1.13-1.5-1.17Zm5.38-6.88,1.5,1.17-4.34,5.55-1.5-1.17Z"/><path class="cls-318" d="M134.71,279.05l.6-.82a2.59,2.59,0,0,1-1.2.07,2.32,2.32,0,0,1-1.07-.54,2.14,2.14,0,0,1-.81-1.6,3.12,3.12,0,0,1,.93-2l2.9-3.31,1.44,1.25-2.9,3.32a1.46,1.46,0,0,0-.45.95,1.14,1.14,0,0,0,.46.79,1.36,1.36,0,0,0,.61.33,1.34,1.34,0,0,0,.66,0l3.38-3.86,1.43,1.25-4.64,5.31Z"/><path class="cls-318" d="M131.75,266.6a3.49,3.49,0,0,1-.23.48,3.7,3.7,0,0,1-.31.46,2.59,2.59,0,0,1,1.14-.05,1.91,1.91,0,0,1,1.05.58,2.41,2.41,0,0,1,.8,1.61,2,2,0,0,1-.69,1.52,1.87,1.87,0,0,1-1.7.56,4,4,0,0,1-2-1.25l-.75-.76-.4.4a1.08,1.08,0,0,0-.37.74,1,1,0,0,0,.35.76,1.07,1.07,0,0,0,.67.35.8.8,0,0,0,.61-.26l1.29,1.31,0,0a1.78,1.78,0,0,1-1.64.53,3.38,3.38,0,0,1-2-1.07,3.2,3.2,0,0,1-1-1.92,2.25,2.25,0,0,1,.75-1.84l2.07-2A5.62,5.62,0,0,0,130,266a5,5,0,0,0,.45-.78Zm.33,2.13a1.68,1.68,0,0,0-.81-.47,1.44,1.44,0,0,0-.78,0l-.71.71.75.75a1.26,1.26,0,0,0,.86.44,1,1,0,0,0,.74-.29.74.74,0,0,0,.24-.57A.94.94,0,0,0,132.08,268.73Z"/><path class="cls-318" d="M122.79,264.78l.45.54a1.27,1.27,0,0,0,.59.4,1.11,1.11,0,0,0,.65,0l3.58-3.15,1.25,1.43-5.3,4.65-1.16-1.32.72-.75a2.21,2.21,0,0,1-1.07.08,1.45,1.45,0,0,1-.83-.47,2.39,2.39,0,0,1-.16-.22l-.12-.22Z"/><path class="cls-318" d="M121.89,259.76l.26-.3,0,0-4.36,1.7-1.26-1.61,8.15-2.74a3.72,3.72,0,0,1,1.5-.14,2.09,2.09,0,0,1,1.36.9,2,2,0,0,1,.24.38,4.06,4.06,0,0,1,.22.46l-1.23.68a.65.65,0,0,0-.09-.16.56.56,0,0,0-.1-.15,1,1,0,0,0-.62-.43,1.53,1.53,0,0,0-.7.05l-.57.16-4,6.31-1.26-1.62Z"/><path class="cls-318" d="M120.63,253.08l1.1,1.55-1.36,1-1.1-1.56Z"/><path class="cls-318" d="M116.6,249.4a1.1,1.1,0,0,0-.69-.53,1,1,0,0,0-.83.16l-.92-1.46,0,0a2.18,2.18,0,0,1,1.94-.27,3.38,3.38,0,0,1,2.17,3.94,3.79,3.79,0,0,1-1.7,2.09l-.17.11a3.86,3.86,0,0,1-2.62.65,3,3,0,0,1-2.14-1.52,2.91,2.91,0,0,1-.5-2.17,2.46,2.46,0,0,1,1.24-1.7h0l.92,1.47a1.34,1.34,0,0,0-.6.74,1,1,0,0,0,.13.89,1.11,1.11,0,0,0,1.07.58,3.14,3.14,0,0,0,1.44-.54l.16-.1a3.15,3.15,0,0,0,1.12-1.08A1.1,1.1,0,0,0,116.6,249.4Z"/><path class="cls-318" d="M112.35,246.84a3.76,3.76,0,0,1-2.69.45,3.48,3.48,0,0,1-2.32-4.3,3.78,3.78,0,0,1,1.85-2l.13-.06a3.67,3.67,0,0,1,2.69-.45,3.48,3.48,0,0,1,2.32,4.3,3.78,3.78,0,0,1-1.86,2Zm-.78-1.73a3.14,3.14,0,0,0,1.2-1,1.18,1.18,0,0,0,0-1.24,1.16,1.16,0,0,0-1-.67,3.15,3.15,0,0,0-1.52.43l-.12.07a3,3,0,0,0-1.18,1,1.16,1.16,0,0,0,0,1.24,1.13,1.13,0,0,0,1,.66,3,3,0,0,0,1.51-.42Z"/><path class="cls-318" d="M104.38,239l.83-.44a2.37,2.37,0,0,1-1.06-.47,2.53,2.53,0,0,1-.72-1,2.09,2.09,0,0,1-.18-1.18,1.82,1.82,0,0,1,.54-1,2.44,2.44,0,0,1-1.15-.43,2.25,2.25,0,0,1-.77-1,2,2,0,0,1,0-1.79,3.29,3.29,0,0,1,1.78-1.42l3.92-1.69.75,1.75L104.39,232a1.78,1.78,0,0,0-.92.68,1,1,0,0,0,0,.84,1.27,1.27,0,0,0,.44.57,1.42,1.42,0,0,0,.64.24l.2-.09.16-.08,4.26-1.83.75,1.74L106,235.75a1.81,1.81,0,0,0-.92.68,1,1,0,0,0,0,.84,1.43,1.43,0,0,0,.41.56,1.18,1.18,0,0,0,.57.28l4.73-2,.75,1.74-6.48,2.78Z"/><path class="cls-318" d="M211.22,248.5a59.33,59.33,0,0,1-28-111.6l.47.88a58.32,58.32,0,1,0,68.81,10.16l.71-.71A59.33,59.33,0,0,1,211.22,248.5Z"/><circle class="cls-318" cx="252.71" cy="147.78" r="3"/><circle class="cls-318" cx="184.71" cy="136.78" r="3"/><path class="cls-318" d="M211.33,269.28a81.32,81.32,0,0,1-57.5-138.82l.71.7a80.31,80.31,0,1,0,72.78-21.93,80.67,80.67,0,0,0-16-1.59v-1a81.32,81.32,0,0,1,0,162.64Z"/><circle class="cls-318" cx="211.73" cy="107.54" r="3"/><circle class="cls-318" cx="153.39" cy="131.3" r="3"/><path class="cls-318" d="M210.62,258.78a71,71,0,0,1-69.39-56.55l1-.2a69.74,69.74,0,1,0,53.16-82.23l-.22-1a70.83,70.83,0,1,1,15.46,140Z"/><circle class="cls-318" cx="198.27" cy="119.32" r="3"/><circle class="cls-318" cx="142.35" cy="203.47" r="3"/><path class="cls-318" d="M211.33,280.28a92.25,92.25,0,1,1,85.87-58.36l-.93-.36a91.27,91.27,0,1,0-59.64,54.16l.28,1A92.54,92.54,0,0,1,211.33,280.28Z"/><circle class="cls-318" cx="296.66" cy="222.42" r="3"/><circle class="cls-318" cx="236.77" cy="276.21" r="3"/><path class="cls-318" d="M101,223a1.48,1.48,0,0,1,1-1.87h0a1.5,1.5,0,0,1,1.88,1h0a1.5,1.5,0,0,1-1,1.88h0a1.35,1.35,0,0,1-.44.07h0A1.49,1.49,0,0,1,101,223Zm-1.9-6.83a1.5,1.5,0,0,1,1.1-1.81h0a1.5,1.5,0,0,1,1.82,1.1h0a1.51,1.51,0,0,1-1.11,1.81h0a1.45,1.45,0,0,1-.35,0h0A1.49,1.49,0,0,1,99.11,216.14Zm-1.47-6.94a1.51,1.51,0,0,1,1.21-1.74h0a1.5,1.5,0,0,1,1.74,1.21h0a1.5,1.5,0,0,1-1.21,1.75h0l-.26,0h0A1.5,1.5,0,0,1,97.64,209.2Zm-1-7h0a1.49,1.49,0,0,1,1.32-1.66h0a1.49,1.49,0,0,1,1.66,1.31h0a1.5,1.5,0,0,1-1.31,1.67h-.18A1.51,1.51,0,0,1,96.6,202.19ZM96,195.13h0a1.5,1.5,0,0,1,1.42-1.58h0A1.5,1.5,0,0,1,99,195h0a1.51,1.51,0,0,1-1.41,1.58h-.09A1.5,1.5,0,0,1,96,195.13Zm1.32-5.59a1.5,1.5,0,0,1-1.5-1.5h0a1.51,1.51,0,0,1,1.51-1.5h0a1.5,1.5,0,0,1,1.49,1.51h0a1.49,1.49,0,0,1-1.49,1.49h0Zm1.5-1.49Zm-1.35-5.51a1.5,1.5,0,0,1-1.4-1.59h0a1.5,1.5,0,0,1,1.6-1.4h0a1.51,1.51,0,0,1,1.4,1.59h0a1.51,1.51,0,0,1-1.5,1.41h-.1Zm.58-7a1.49,1.49,0,0,1-1.29-1.68h0a1.48,1.48,0,0,1,1.67-1.29h0a1.5,1.5,0,0,1,1.3,1.67h0a1.51,1.51,0,0,1-1.49,1.32h0Zm1-6.93a1.49,1.49,0,0,1-1.19-1.75h0a1.5,1.5,0,0,1,1.75-1.2h0a1.5,1.5,0,0,1,1.19,1.76h0a1.49,1.49,0,0,1-1.47,1.22h0A1.33,1.33,0,0,1,99.05,168.63Zm1.43-6.85A1.51,1.51,0,0,1,99.4,160h0a1.5,1.5,0,0,1,1.82-1.08h0a1.49,1.49,0,0,1,1.08,1.83h0a1.5,1.5,0,0,1-1.45,1.12h0A1.61,1.61,0,0,1,100.48,161.78Zm1.85-6.75a1.49,1.49,0,0,1-1-1.89h0a1.48,1.48,0,0,1,1.88-1h0a1.5,1.5,0,0,1,1,1.89h0a1.51,1.51,0,0,1-1.43,1h0A1.83,1.83,0,0,1,102.33,155Zm2.27-6.63a1.51,1.51,0,0,1-.85-2h0a1.49,1.49,0,0,1,1.94-.84h0a1.49,1.49,0,0,1,.85,1.94h0a1.5,1.5,0,0,1-1.39.95h0A1.49,1.49,0,0,1,104.6,148.4Zm2.67-6.47a1.5,1.5,0,0,1-.73-2h0a1.51,1.51,0,0,1,2-.73h0a1.49,1.49,0,0,1,.72,2h0a1.49,1.49,0,0,1-1.36.87h0A1.41,1.41,0,0,1,107.27,141.93Zm3.06-6.3a1.5,1.5,0,0,1-.6-2h0a1.5,1.5,0,0,1,2-.6h0a1.5,1.5,0,0,1,.6,2h0a1.51,1.51,0,0,1-1.32.79h0A1.46,1.46,0,0,1,110.33,135.63Zm3.45-6.09a1.5,1.5,0,0,1-.48-2.06h0a1.5,1.5,0,0,1,2.07-.48h0a1.49,1.49,0,0,1,.48,2.06h0a1.51,1.51,0,0,1-1.28.71h0A1.45,1.45,0,0,1,113.78,129.54Zm3.81-5.87a1.49,1.49,0,0,1-.34-2.09h0a1.51,1.51,0,0,1,2.1-.35h0a1.5,1.5,0,0,1,.35,2.09h0a1.52,1.52,0,0,1-1.22.63h0A1.51,1.51,0,0,1,117.59,123.67Zm4.17-5.62a1.51,1.51,0,0,1-.22-2.11h0a1.49,1.49,0,0,1,2.11-.22h0a1.5,1.5,0,0,1,.22,2.11h0a1.52,1.52,0,0,1-1.17.55h0A1.52,1.52,0,0,1,121.76,118.05Z"/><path class="cls-318" d="M320.06,224.08a1.5,1.5,0,0,1-1-1.87h0a1.5,1.5,0,0,1,1.87-1h0a1.5,1.5,0,0,1,1,1.87h0a1.5,1.5,0,0,1-1.43,1.06h0A1.67,1.67,0,0,1,320.06,224.08Zm1.91-6.74a1.49,1.49,0,0,1-1.12-1.8h0a1.5,1.5,0,0,1,1.81-1.12h0a1.5,1.5,0,0,1,1.11,1.81h0a1.48,1.48,0,0,1-1.45,1.15h0A1.39,1.39,0,0,1,322,217.34Zm1.49-6.84a1.5,1.5,0,0,1-1.23-1.73h0a1.49,1.49,0,0,1,1.73-1.22h0a1.5,1.5,0,0,1,1.23,1.73h0a1.5,1.5,0,0,1-1.48,1.24h0A1.06,1.06,0,0,1,323.46,210.5Zm1.06-6.92a1.49,1.49,0,0,1-1.33-1.65h0a1.49,1.49,0,0,1,1.65-1.33h0a1.49,1.49,0,0,1,1.33,1.65h0a1.5,1.5,0,0,1-1.49,1.34h-.16Zm.63-7a1.51,1.51,0,0,1-1.43-1.57h0a1.5,1.5,0,0,1,1.57-1.42h0a1.49,1.49,0,0,1,1.43,1.56h0a1.5,1.5,0,0,1-1.5,1.43h-.07Zm-1.31-8.48a1.5,1.5,0,0,1,1.49-1.51h0a1.49,1.49,0,0,1,1.51,1.47h0a1.51,1.51,0,0,1-1.48,1.53h0A1.51,1.51,0,0,1,323.84,188.13Zm-.3-6.89a1.5,1.5,0,0,1,1.39-1.61h0a1.5,1.5,0,0,1,1.61,1.39h0a1.5,1.5,0,0,1-1.39,1.6H325A1.5,1.5,0,0,1,323.54,181.24Zm-.71-6.87a1.49,1.49,0,0,1,1.28-1.68h0A1.49,1.49,0,0,1,325.8,174h0a1.5,1.5,0,0,1-1.28,1.69h-.21A1.5,1.5,0,0,1,322.83,174.37Zm-1.14-6.8h0a1.51,1.51,0,0,1,1.18-1.77h0a1.5,1.5,0,0,1,1.76,1.18h0a1.5,1.5,0,0,1-1.18,1.76h0l-.3,0h0A1.5,1.5,0,0,1,321.69,167.57Zm-1.55-6.73h0a1.5,1.5,0,0,1,1.07-1.83h0a1.49,1.49,0,0,1,1.83,1.07h0a1.51,1.51,0,0,1-1.07,1.84h0a1.73,1.73,0,0,1-.38.05h0A1.5,1.5,0,0,1,320.14,160.84Zm-2-6.62a1.5,1.5,0,0,1,1-1.89h0a1.49,1.49,0,0,1,1.89.95h0a1.51,1.51,0,0,1-.95,1.9h0a1.58,1.58,0,0,1-.47.07h0A1.51,1.51,0,0,1,318.17,154.22Zm-2.37-6.48h0a1.5,1.5,0,0,1,.84-2h0a1.48,1.48,0,0,1,1.94.83h0a1.49,1.49,0,0,1-.83,1.95h0a1.36,1.36,0,0,1-.56.11h0A1.5,1.5,0,0,1,315.8,147.74ZM313,141.42a1.5,1.5,0,0,1,.71-2h0a1.49,1.49,0,0,1,2,.71h0a1.5,1.5,0,0,1-.71,2h0a1.48,1.48,0,0,1-.64.14h0A1.51,1.51,0,0,1,313,141.42Zm-3.15-6.15a1.49,1.49,0,0,1,.59-2h0a1.5,1.5,0,0,1,2,.58h0a1.51,1.51,0,0,1-.59,2h0a1.47,1.47,0,0,1-.73.19h0A1.49,1.49,0,0,1,309.88,135.27Zm-3.52-5.93h0a1.5,1.5,0,0,1,.46-2.08h0a1.51,1.51,0,0,1,2.07.47h0a1.51,1.51,0,0,1-.46,2.07h0a1.57,1.57,0,0,1-.8.23h0A1.51,1.51,0,0,1,306.36,129.34Zm-3.89-5.72a1.5,1.5,0,0,1,.34-2.09h0a1.49,1.49,0,0,1,2.09.33h0a1.5,1.5,0,0,1-.33,2.1h0a1.51,1.51,0,0,1-.88.28h0A1.51,1.51,0,0,1,302.47,123.62Zm-4.22-5.46a1.5,1.5,0,0,1,.21-2.11h0a1.5,1.5,0,0,1,2.11.2h0a1.52,1.52,0,0,1-.21,2.12h0a1.48,1.48,0,0,1-.95.34h0A1.51,1.51,0,0,1,298.25,118.16Z"/></g></g></svg>