<?xml version="1.0" encoding="utf-8"?>
<!-- Generator: Adobe Illustrator 22.1.0, SVG Export Plug-In . SVG Version: 6.00 Build 0)  -->
<svg version="1.1" id="Layer_1" xmlns="http://www.w3.org/2000/svg" xmlns:xlink="http://www.w3.org/1999/xlink" x="0px" y="0px"
	 viewBox="0 0 196.9 196.9" style="enable-background:new 0 0 196.9 196.9;" xml:space="preserve">
<style type="text/css">
	.st0{fill:none;}
	.st1{fill:#E98024;}
	.st2{fill:#E98025;}
</style>
<g id="Group_1726" transform="translate(-274.99 -10514.644)">
	<g id="Ellipse_812" transform="translate(274.99 10514.644)">
		<g>
			<circle class="st0" cx="98.5" cy="98.5" r="98.4"/>
		</g>
		<g>
			<path class="st1" d="M98.5,197c-54.3,0-98.4-44.2-98.4-98.4S44.2,0.1,98.5,0.1S197,44.2,197,98.5S152.8,197,98.5,197z M98.5,5.1
				C47,5.1,5.1,47,5.1,98.5S47,192,98.5,192S192,150.1,192,98.5S150.1,5.1,98.5,5.1z"/>
		</g>
	</g>
	<g id="Group_1704" transform="translate(304.92 10539.201)">
		<g id="Ellipse_15">
			<path class="st2" d="M69,87.6c-9,0-16.3-7.3-16.3-16.3S60,55,69,55c9,0,16.3,7.3,16.3,16.3S78,87.6,69,87.6z M69,60
				c-6.2,0-11.3,5.1-11.3,11.3S62.7,82.6,69,82.6c6.2,0,11.3-5.1,11.3-11.3S75.2,60,69,60z"/>
		</g>
		<g id="Ellipse_16">
			<path class="st2" d="M69,30c-9,0-16.3-7.3-16.3-16.3S60-2.6,69-2.6c9,0,16.3,7.3,16.3,16.3S78,30,69,30z M69,2.4
				c-6.2,0-11.3,5.1-11.3,11.3S62.7,25,69,25c6.2,0,11.3-5.1,11.3-11.3S75.2,2.4,69,2.4z"/>
		</g>
		<g id="Ellipse_17">
			<path class="st2" d="M69,150.5c-9,0-16.3-7.3-16.3-16.3c0-9,7.3-16.3,16.3-16.3c9,0,16.3,7.3,16.3,16.3
				C85.3,143.2,78,150.5,69,150.5z M69,122.9c-6.2,0-11.3,5.1-11.3,11.3c0,6.2,5.1,11.3,11.3,11.3c6.2,0,11.3-5.1,11.3-11.3
				C80.3,128,75.2,122.9,69,122.9z"/>
		</g>
		<g id="Ellipse_18">
			<path class="st2" d="M13.7,120.2c-9,0-16.3-7.3-16.3-16.3c0-9,7.3-16.3,16.3-16.3S30,94.9,30,103.9
				C30,112.9,22.7,120.2,13.7,120.2z M13.7,92.6c-6.2,0-11.3,5.1-11.3,11.3c0,6.2,5.1,11.3,11.3,11.3S25,110.1,25,103.9
				C25,97.7,20,92.6,13.7,92.6z"/>
		</g>
		<g id="Ellipse_19">
			<path class="st2" d="M123.5,120.2c-9,0-16.3-7.3-16.3-16.3c0-9,7.3-16.3,16.3-16.3s16.3,7.3,16.3,16.3
				C139.8,112.9,132.5,120.2,123.5,120.2z M123.5,92.6c-6.2,0-11.3,5.1-11.3,11.3c0,6.2,5.1,11.3,11.3,11.3s11.3-5.1,11.3-11.3
				C134.8,97.7,129.7,92.6,123.5,92.6z"/>
		</g>
		<g id="Ellipse_20">
			<path class="st2" d="M13.7,59.6c-9,0-16.3-7.3-16.3-16.3S4.7,27,13.7,27S30,34.3,30,43.3S22.7,59.6,13.7,59.6z M13.7,32
				C7.5,32,2.4,37,2.4,43.3s5.1,11.3,11.3,11.3S25,49.5,25,43.3S20,32,13.7,32z"/>
		</g>
		<g id="Ellipse_21">
			<path class="st2" d="M123.5,59.6c-9,0-16.3-7.3-16.3-16.3S114.5,27,123.5,27s16.3,7.3,16.3,16.3S132.5,59.6,123.5,59.6z
				 M123.5,32c-6.2,0-11.3,5.1-11.3,11.3s5.1,11.3,11.3,11.3s11.3-5.1,11.3-11.3S129.7,32,123.5,32z"/>
		</g>
		<g id="Line_20">
			<rect x="11.2" y="57.1" class="st2" width="5" height="33"/>
		</g>
		<g id="Line_21">
			<rect x="121" y="57.1" class="st2" width="5" height="33"/>
		</g>
		<g id="Line_22">
			<rect x="17.5" y="19" transform="matrix(0.902 -0.4317 0.4317 0.902 -5.6361 18.2054)" class="st2" width="39.6" height="5"/>
		</g>
		<g id="Line_23">
			
				<rect x="34.4" y="105.7" transform="matrix(0.4316 -0.902 0.902 0.4316 -92.2377 104.6236)" class="st2" width="5" height="39.6"/>
		</g>
		<g id="Line_24">
			<rect x="98.1" y="1.7" transform="matrix(0.4317 -0.902 0.902 0.4317 37.766 102.9786)" class="st2" width="5" height="39.6"/>
		</g>
		<g id="Line_25">
			<rect x="80.8" y="123" transform="matrix(0.902 -0.4317 0.4317 0.902 -44.3223 55.7244)" class="st2" width="39.6" height="5"/>
		</g>
		<g id="Line_26">
			<rect x="66.5" y="27.5" class="st2" width="5" height="29.9"/>
		</g>
		<g id="Line_27">
			
				<rect x="23.1" y="84.9" transform="matrix(0.8812 -0.4728 0.4728 0.8812 -36.4563 29.7593)" class="st2" width="35.7" height="5"/>
		</g>
		<g id="Line_28">
			
				<rect x="93" y="69.6" transform="matrix(0.4728 -0.8812 0.8812 0.4728 -26.6919 130.1944)" class="st2" width="5" height="35.7"/>
		</g>
	</g>
</g>
</svg>
