<?xml version="1.0" encoding="utf-8"?>
<!-- Generator: Adobe Illustrator 22.1.0, SVG Export Plug-In . SVG Version: 6.00 Build 0)  -->
<svg version="1.1" id="Layer_1" xmlns="http://www.w3.org/2000/svg" xmlns:xlink="http://www.w3.org/1999/xlink" x="0px" y="0px"
	 viewBox="0 0 196.9 196.9" style="enable-background:new 0 0 196.9 196.9;" xml:space="preserve">
<style type="text/css">
	.st0{fill:none;}
	.st1{fill:#E98024;}
</style>
<g id="Group_1723" transform="translate(-651.108 -5996.724)">
	<g id="Group_1700" transform="translate(651.108 5996.724)">
		<g id="Ellipse_7" transform="translate(0 0)">
			<g>
				<circle class="st0" cx="98.3" cy="98.3" r="98.4"/>
			</g>
			<g>
				<path class="st1" d="M98.3,196.8c-54.3,0-98.4-44.2-98.4-98.4c0-54.3,44.2-98.4,98.4-98.4s98.4,44.2,98.4,98.4
					C196.8,152.6,152.6,196.8,98.3,196.8z M98.3,4.9C46.8,4.9,4.9,46.8,4.9,98.3c0,51.5,41.9,93.4,93.4,93.4s93.4-41.9,93.4-93.4
					C191.8,46.8,149.9,4.9,98.3,4.9z"/>
			</g>
		</g>
		<g id="noun_1750466_cc" transform="translate(35.303 35.302)">
			<g id="Path_35">
				<path class="st1" d="M74.6,40.2c0.2,0.6,0.8,1,1.5,1H114c0.9,0,1.6-0.7,1.6-1.6l0,0V1.7c0-0.9-0.7-1.6-1.6-1.6
					c-0.4,0-0.8,0.2-1.1,0.5l-12.1,12.1C89.9,4.5,76.7,0.1,63,0.1C28.3,0.1,0.1,28.3,0.1,63.1c0,4.4,0.5,8.8,1.4,13.1
					c0.2,0.7,0.8,1.2,1.5,1.2h14.5c0.9,0,1.6-0.7,1.6-1.6c0-0.1,0-0.3-0.1-0.4C12.2,51.1,26.3,25.9,50.6,19
					c12.9-3.6,26.7-1.4,37.9,6L75,38.5C74.5,39,74.4,39.6,74.6,40.2z M92,25.9c0.6-0.6,0.6-1.6,0-2.2c-0.1-0.1-0.1-0.1-0.2-0.2
					C70,7.6,39.5,12.4,23.5,34.2c-8.4,11.5-11.4,26.2-8.1,40.1H4.3c-6.2-32.4,15.1-63.8,47.5-70c3.7-0.7,7.5-1.1,11.2-1.1
					c13.4,0,26.4,4.5,36.9,12.8c0.6,0.5,1.5,0.4,2.1-0.1l10.4-10.4v32.6H79.9L92,25.9z"/>
				<path class="st1" d="M17.5,77.9H3c-1,0-1.8-0.7-2-1.6c-0.9-4.3-1.4-8.8-1.4-13.2c0-35,28.4-63.4,63.4-63.4c0.1,0,0.1,0,0.2,0
					C76.7-0.4,90,4,100.7,12.1l11.8-11.8c0.4-0.4,0.9-0.6,1.5-0.6c1.1,0,2.1,0.9,2.1,2.1v37.9c0,1.1-0.9,2.1-2.1,2.1H76.1
					c0,0,0,0,0,0c-0.8,0-1.6-0.5-1.9-1.3l0,0c-0.3-0.8-0.1-1.7,0.4-2.3l13-13.1c-10.9-7.1-24.4-9.2-36.9-5.6
					c-24,6.8-38,31.8-31.3,55.8c0.1,0.2,0.1,0.4,0.1,0.6C19.6,77,18.6,77.9,17.5,77.9z M63.2,0.6c-0.1,0-0.1,0-0.2,0
					c-34.4,0-62.4,28-62.4,62.4c0,4.4,0.5,8.7,1.4,13c0.1,0.5,0.5,0.9,1.1,0.9h14.5c0.6,0,1.1-0.5,1.1-1.1c0-0.1,0-0.2,0-0.3
					c-6.9-24.5,7.4-50.1,32-57c13.1-3.7,27-1.5,38.3,6.1l0.5,0.3L75.3,38.9c-0.3,0.3-0.4,0.8-0.2,1.2c0.2,0.4,0.6,0.7,1,0.7
					c0,0,0,0,0,0H114c0.6,0,1.1-0.5,1.1-1.1V1.7c0-0.6-0.5-1.1-1.1-1.1c-0.3,0-0.6,0.1-0.8,0.3l-12.4,12.4l-0.3-0.3
					C89.8,5,76.6,0.6,63.2,0.6z M16.1,74.8H3.9l-0.1-0.4C-2.4,41.7,19.1,10.1,51.7,3.8c3.8-0.7,7.7-1.1,11.5-1.1
					c13.4,0,26.5,4.6,37,12.9c0.4,0.3,1,0.3,1.4-0.1L113,4.3v34.3H78.7l13-13c0.4-0.4,0.4-1.1,0-1.5c0,0-0.1-0.1-0.1-0.1
					C70,8.2,39.7,13,23.9,34.5c-8.3,11.4-11.3,25.9-8,39.7L16.1,74.8z M4.7,73.8h10.1c-3.1-13.9-0.1-28.4,8.3-39.9
					c16-22,47-26.8,69-10.8c0.1,0.1,0.2,0.1,0.2,0.2c0.8,0.8,0.8,2.1,0,2.9L81.1,37.6H112V6.7l-9.6,9.6c-0.7,0.7-1.9,0.8-2.7,0.2
					C89.3,8.3,76.4,3.8,63.2,3.8c-3.8,0-7.6,0.3-11.3,1.1C19.9,10.9-1.1,41.8,4.7,73.8z"/>
			</g>
			<g id="Path_36">
				<path class="st1" d="M122.8,47.5h-14.5c-0.9,0-1.6,0.7-1.6,1.6c0,0.2,0,0.3,0.1,0.5c7.5,24.1-6,49.7-30.2,57.2
					c-13.2,4.1-27.5,2-39-5.7l13.5-13.5c0.6-0.6,0.6-1.6,0-2.2c-0.3-0.3-0.7-0.5-1.1-0.5H12c-0.9,0-1.6,0.7-1.6,1.6v37.9
					c0,0.9,0.7,1.6,1.6,1.6c0.4,0,0.8-0.2,1.1-0.5l12.2-12.2C36.2,121.6,49.4,126,63,126c34.7,0,62.9-28.1,62.9-62.9
					c0-4.8-0.6-9.7-1.7-14.4C124.1,48,123.5,47.5,122.8,47.5z M63,122.8c-13.4,0-26.4-4.5-36.9-12.8c-0.6-0.5-1.5-0.4-2.1,0.1
					l-10.4,10.4V88h32.6l-12.1,12.1c-0.6,0.6-0.6,1.6,0,2.2c0.1,0.1,0.1,0.1,0.2,0.2c21.8,15.9,52.4,11.2,68.3-10.6
					c6.1-8.4,9.4-18.5,9.4-28.8c0-4.2-0.5-8.3-1.6-12.4h11.2c6.9,32.3-13.8,64-46,70.9C71.4,122.4,67.2,122.8,63,122.8L63,122.8z"/>
				<path class="st1" d="M62.8,126.5c-13.4,0-26.7-4.4-37.5-12.5l-11.8,11.8c-0.4,0.4-0.9,0.6-1.5,0.6c0,0,0,0,0,0
					c-0.6,0-1.1-0.2-1.5-0.6c-0.4-0.4-0.6-0.9-0.6-1.5V86.4c0-1.1,0.9-2.1,2.1-2.1H50c0.6,0,1.1,0.2,1.5,0.6c0.8,0.8,0.8,2.1,0,2.9
					l-13,13c11.3,7.4,25.1,9.3,38,5.3c11.5-3.6,21-11.4,26.6-22.1s6.8-22.9,3.2-34.5c-0.1-0.2-0.1-0.4-0.1-0.6
					c0-1.1,0.9-2.1,2.1-2.1h14.5c1,0,1.8,0.7,2,1.6c1.1,4.7,1.7,9.6,1.7,14.5c0,16.9-6.6,32.9-18.6,44.8c-12,12-27.9,18.6-44.8,18.6
					C63,126.5,62.9,126.5,62.8,126.5z M25.3,112.7l0.3,0.3c10.7,8.1,23.9,12.5,37.2,12.5c0.1,0,0.1,0,0.2,0
					c16.7,0,32.3-6.5,44.1-18.3c11.8-11.8,18.3-27.4,18.3-44.1c0-4.8-0.6-9.6-1.6-14.3c-0.1-0.5-0.5-0.8-1-0.8h-14.5
					c-0.6,0-1.1,0.5-1.1,1.1c0,0.1,0,0.2,0,0.3c3.7,11.8,2.5,24.3-3.3,35.2c-5.8,10.9-15.4,18.9-27.2,22.6
					c-13.4,4.1-27.8,2-39.4-5.8l-0.5-0.3l13.9-13.9c0.4-0.4,0.4-1.1,0-1.5c-0.2-0.2-0.5-0.3-0.8-0.3H12c-0.6,0-1.1,0.5-1.1,1.1v37.9
					c0,0.3,0.1,0.6,0.3,0.8c0.2,0.2,0.5,0.3,0.8,0.3c0,0,0,0,0,0c0.3,0,0.6-0.1,0.8-0.3L25.3,112.7z M63.1,123.3
					C63.1,123.3,63,123.3,63.1,123.3L63.1,123.3c-0.1,0-0.1,0-0.2,0c-13.4,0-26.5-4.6-37-12.9c-0.4-0.3-1-0.3-1.4,0.1l-11.3,11.3
					V87.5h34.3l-13,13c-0.4,0.4-0.4,1.1,0,1.5c0,0,0.1,0.1,0.1,0.1c10.4,7.6,23.2,10.7,36,8.7c12.8-2,24-8.8,31.6-19.3
					c6.1-8.3,9.3-18.2,9.3-28.6c0-4.1-0.5-8.3-1.6-12.3l-0.2-0.6h12.2l0.1,0.4c3.3,15.7,0.4,31.8-8.4,45.3s-22.3,22.8-38,26.1
					C71.5,122.9,67.3,123.3,63.1,123.3z M25.2,109.2c0.5,0,0.9,0.1,1.3,0.4c10.4,8.2,23.4,12.8,36.6,12.7h0c0,0,0,0,0,0
					c4.1,0,8.3-0.4,12.3-1.3c15.5-3.3,28.8-12.4,37.4-25.7c8.5-13.2,11.5-28.8,8.4-44.2H111c1,3.9,1.4,7.9,1.4,11.9
					c0,10.5-3.3,20.6-9.5,29.1c-7.8,10.6-19.2,17.6-32.3,19.7c-13,2-26.1-1.1-36.7-8.9c-0.1-0.1-0.2-0.1-0.2-0.2
					c-0.8-0.8-0.8-2.1,0-2.9L45,88.5H14.1v30.9l9.6-9.6C24.1,109.4,24.6,109.2,25.2,109.2z"/>
			</g>
		</g>
	</g>
</g>
</svg>
