<?xml version="1.0" encoding="utf-8"?>
<!-- Generator: Adobe Illustrator 22.1.0, SVG Export Plug-In . SVG Version: 6.00 Build 0)  -->
<svg version="1.1" id="Layer_1" xmlns="http://www.w3.org/2000/svg" xmlns:xlink="http://www.w3.org/1999/xlink" x="0px" y="0px"
	 viewBox="0 0 196.9 196.9" style="enable-background:new 0 0 196.9 196.9;" xml:space="preserve">
<style type="text/css">
	.st0{fill:#E98024;}
	.st1{fill:none;}
	.st2{fill:none;stroke:#E98024;stroke-width:5;}
</style>
<g id="Group_1720" transform="translate(-621.272 -7334.077)">
	<g id="noun_255758_cc" transform="translate(667.232 7370.252)">
		<g id="Group_25" transform="translate(0 0)">
			<g id="Group_24">
				<g id="Group_23">
					<path id="Path_52" class="st0" d="M11.2,87.9c-5.4,4.9-8.9,11.1-8.9,17.6v8c0,8.9,9.5,23.5,11.1,26.1
						c2.7,4.3,7.2,10.8,10.9,15.7c0.9,1.2,2.6,1.3,3.8,0.4c1.1-0.9,1.3-2.5,0.5-3.7c-2.9-3.8-8.3-11.6-10.6-15.3
						c-1.6-2.5-10.3-16.2-10.3-23.3v-8c0-4.8,2.7-9.5,7.2-13.7c0.8-0.8,2.1-1.9,3.5-2.9l0,16.5c0,1.5,1.2,2.7,2.7,2.7
						c1.4,0.1,2.6-1,2.7-2.3c0-0.1,0-0.2,0-0.3V43.7c0-3,2.3-5.4,5.3-5.4c3,0,5.4,2.3,5.4,5.3c0,0,0,0.1,0,0.1v45.6
						c0,1.5,1.2,2.7,2.7,2.7c1.5,0,2.7-1.2,2.7-2.7V75.9c0-3,2.3-5.4,5.3-5.4s5.4,2.3,5.4,5.3c0,0,0,0.1,0,0.1v13.4
						c0,1.5,1.2,2.7,2.7,2.7c1.5,0,2.7-1.2,2.7-2.7v-8c0-3,2.3-5.4,5.3-5.4s5.4,2.3,5.4,5.3c0,0,0,0.1,0,0.1v13.4
						c0,1.5,1.2,2.7,2.7,2.7c1.5,0,2.7-1.2,2.7-2.7v-8c0-3,2.3-5.4,5.3-5.4s5.4,2.3,5.4,5.3c0,0,0,0.1,0,0.1v18.8
						c0,17.6-10.7,34.3-10.7,48.3c0,1.5,1.2,2.7,2.7,2.7c1.5,0,2.7-1.2,2.7-2.7c0-12,10.7-30.6,10.7-48.3V86.6
						c0-5.9-4.8-10.7-10.7-10.7c-2.1,0-4.2,0.6-6,1.8c-2-5.6-8.1-8.5-13.7-6.6c-0.9,0.3-1.7,0.7-2.4,1.2c-2-5.6-8.1-8.5-13.7-6.6
						c-0.6,0.2-1.2,0.5-1.8,0.8V43.7c0-5.9-4.8-10.7-10.7-10.7s-10.7,4.8-10.7,10.7c0,0,0,0,0,0v38.7C15.9,84,13.4,85.8,11.2,87.9z"
						/>
					<path id="Path_53" class="st0" d="M104.2,30.3c0-13.3-10.8-24.1-24.1-24.1S56,16.9,56,30.3s10.8,24.1,24.1,24.1c0,0,0,0,0,0
						C93.4,54.4,104.2,43.6,104.2,30.3z M61.3,30.3c0-10.4,8.4-18.8,18.8-18.8s18.8,8.4,18.8,18.8S90.5,49,80.1,49
						C69.7,49,61.3,40.6,61.3,30.3C61.3,30.3,61.3,30.3,61.3,30.3z M77.4,30.3c0,1.5,1.2,2.7,2.7,2.7h8c1.5,0,2.7-1.2,2.7-2.7
						c0-1.5-1.2-2.7-2.7-2.7h-5.4v-8c0-1.5-1.2-2.7-2.7-2.7s-2.7,1.2-2.7,2.7L77.4,30.3z"/>
					<path id="Path_54" class="st0" d="M13.1,57.9C5.2,49,6.1,35.4,15,27.6s22.4-7,30.3,1.9c7.2,8.1,7.2,20.3,0,28.4V43.7
						c-0.1-8.9-7.3-16-16.2-16c-8.8,0.1-15.9,7.2-16,16L13.1,57.9z"/>
				</g>
			</g>
		</g>
	</g>
	<g id="Ellipse_796" transform="translate(621.272 7334.077)">
		<circle class="st1" cx="99.2" cy="98.4" r="98.4"/>
		<circle class="st2" cx="99.2" cy="98.4" r="95.9"/>
	</g>
</g>
</svg>
