<?xml version="1.0" encoding="utf-8"?>
<!-- Generator: Adobe Illustrator 22.1.0, SVG Export Plug-In . SVG Version: 6.00 Build 0)  -->
<svg version="1.1" id="Layer_1" xmlns="http://www.w3.org/2000/svg" xmlns:xlink="http://www.w3.org/1999/xlink" x="0px" y="0px"
	 viewBox="0 0 196.9 196.9" style="enable-background:new 0 0 196.9 196.9;" xml:space="preserve">
<style type="text/css">
	.st0{fill:none;}
	.st1{fill:#E98024;}
</style>
<g id="Group_1747" transform="translate(-1078 -5677)">
	<g id="Ellipse_807" transform="translate(1078 5677)">
		<g>
			<circle class="st0" cx="98.6" cy="98.4" r="98.4"/>
		</g>
		<g>
			<path class="st1" d="M98.6,196.9c-54.3,0-98.4-44.2-98.4-98.4C0.2,44.1,44.3,0,98.6,0S197,44.1,197,98.4
				C197,152.7,152.9,196.9,98.6,196.9z M98.6,5C47.1,5,5.2,46.9,5.2,98.4s41.9,93.4,93.4,93.4S192,149.9,192,98.4S150.1,5,98.6,5z"
				/>
		</g>
	</g>
	<g id="noun_1562498_cc" transform="translate(1117 5721)">
		<g id="Group_47" transform="translate(0 0)">
			<g id="Path_69">
				<path class="st1" d="M21.6,62.8C26.7,68,33.8,71,41.1,71h0c0.1,0,0.1,0,0.2,0h0c0.1,0,0.2,0,0.2,0h0c6.6,0,13-2.4,18-6.7
					c11.7,10.1,29.4,8.7,39.4-3s8.7-29.4-3-39.4c-10.5-9-26-9-36.5,0c-5-4.3-11.4-6.7-18-6.7c-0.2,0-0.3,0-0.4,0
					c-15.3,0.1-27.7,12.6-27.7,27.9v0C13.4,50.5,16.4,57.6,21.6,62.8z M49.3,67.7c2.5-2.4,4.4-5.3,5.7-8.5c0.9,1.3,1.9,2.5,3.1,3.6
					C55.5,65,52.5,66.7,49.3,67.7L49.3,67.7z M77.8,17.2c14.3,0,25.9,11.6,25.9,25.9c0,14.3-11.6,25.9-25.9,25.9
					c-14.3,0-25.9-11.6-25.9-25.9v0C51.9,28.8,63.5,17.2,77.8,17.2L77.8,17.2z M58,23.3c-1.1,1.1-2.1,2.3-3.1,3.6
					c-1.2-3.2-3.2-6.1-5.7-8.5C52.5,19.5,55.5,21.2,58,23.3L58,23.3z M42.4,17.3c4.5,0.6,8.7,5,11.2,11.8c-2.3,3.9-3.6,8.4-3.7,13
					h-7.4L42.4,17.3L42.4,17.3z M42.4,44.1h7.4c0.2,4.6,1.4,9,3.7,13c-2.5,6.8-6.7,11.2-11.2,11.8L42.4,44.1L42.4,44.1z M40.3,68.9
					C33,67.9,27.1,57.2,26.8,44.1h13.5V68.9z M40.3,17.3v24.7H26.8C27.1,29,33,18.3,40.3,17.3L40.3,17.3z M33.4,18.5
					c-1.6,1.5-3,3.3-4.1,5.2c-3,5.7-4.6,12-4.6,18.4h-9.2C16,31.2,23.2,21.8,33.4,18.5L33.4,18.5z M24.8,44.1
					c0,6.4,1.6,12.7,4.6,18.4c1.1,1.9,2.4,3.7,4.1,5.2C23.2,64.3,16,55,15.6,44.1L24.8,44.1L24.8,44.1z"/>
				<path class="st1" d="M77.8,71.7c-6.7,0-13-2.3-18.2-6.6c-5,4.2-11.4,6.5-17.9,6.5h-0.4c-7.6,0-14.7-3-20.1-8.4
					c-5.4-5.4-8.3-12.5-8.3-20.1c0-15.6,12.7-28.4,28.3-28.6l0.1,0c0.1,0,0.2,0,0.4,0c6.5,0,12.9,2.4,17.9,6.5
					c10.8-8.9,26.2-8.8,36.9,0.3c5.8,5,9.3,11.9,9.9,19.5s-1.9,15-6.8,20.8c-5,5.8-11.9,9.3-19.5,9.9C79.2,71.7,78.5,71.7,77.8,71.7
					z M59.6,63.5l0.4,0.4c5.5,4.8,12.6,7.1,19.9,6.5c7.3-0.5,13.9-3.9,18.7-9.4s7.1-12.6,6.5-19.9c-0.5-7.3-3.9-13.9-9.4-18.7
					c-10.3-8.9-25.3-8.9-35.6,0l-0.4,0.4l-0.4-0.4c-4.9-4.2-11.1-6.5-17.6-6.6c-0.1,0-0.2,0-0.3,0l-0.1,0
					c-14.9,0.1-27.1,12.4-27.1,27.3c0,7.2,2.9,14.2,7.9,19.2l0,0c5.1,5.2,11.9,8,19.1,8.1h0.5c6.4,0,12.7-2.4,17.6-6.6L59.6,63.5z
					 M77.8,69.6c-14.6,0-26.5-11.9-26.5-26.5c0-7.1,2.8-13.6,7.4-18.4l-0.6-0.5c-0.9,1-1.8,2-2.6,3.1l-0.7,0.9l-0.4-1.1
					c-1.2-3.1-3.1-5.9-5.5-8.2l0.6-1c3.1,1,6,2.5,8.5,4.6l0.4-0.4l0.5,2.5c4.8-4.9,11.5-7.9,18.9-7.9h0c14.6,0,26.5,11.9,26.5,26.5
					C104.3,57.7,92.4,69.6,77.8,69.6z M77.8,17.8c-13.9,0-25.2,11.3-25.3,25.2c0,13.9,11.3,25.3,25.3,25.3
					C91.7,68.4,103,57,103,43.1S91.7,17.8,77.8,17.8L77.8,17.8z M51.6,20c1.4,1.7,2.6,3.6,3.5,5.7c0.6-0.8,1.3-1.6,2-2.3
					C55.4,22,53.6,20.9,51.6,20z M41.8,69.6V43.5h8.7l0,0.6c0.2,4.4,1.4,8.8,3.7,12.7l0.1,0.3l-0.1,0.3c-2.6,7-6.9,11.6-11.7,12.2
					L41.8,69.6z M43,44.8l0,23.4c3.9-0.9,7.6-4.9,9.9-11c-2.1-3.8-3.4-8.1-3.7-12.4H43z M41,69.6l-0.7-0.1c-7.7-1-13.7-11.9-14-25.4
					l0-0.6H41V69.6z M27.5,44.8c0.4,11.9,5.7,21.9,12.2,23.4V44.8H27.5z M33.3,68.3c-10.5-3.4-17.9-13.1-18.3-24.1l0-0.7h10.5l0,0.6
					c0,6.3,1.6,12.5,4.5,18.1c1,1.9,2.4,3.6,3.9,5L33.3,68.3z M16.2,44.8c0.6,9.3,6.5,17.6,14.9,21.4c-0.9-1-1.6-2.1-2.3-3.3
					c-3-5.6-4.6-11.8-4.7-18.1L16.2,44.8z M49.5,68.3l-0.6-1c2.4-2.3,4.3-5.1,5.5-8.2l0.4-1.1l0.7,0.9c0.9,1.3,1.9,2.5,3,3.5
					l0.5,0.5l-0.5,0.4C55.8,65.6,52.8,67.2,49.5,68.3z M55.1,60.5c-0.9,2-2.1,3.9-3.5,5.7c2-0.9,3.8-2,5.5-3.3
					C56.4,62.1,55.7,61.3,55.1,60.5z M41,42.7H26.2l0-0.6c0.3-13.5,6.3-24.4,14-25.4l0.7-0.1L41,42.7z M27.5,41.4h12.2V18.1
					C33.2,19.5,27.9,29.5,27.5,41.4z M50.4,42.7h-8.7V16.6l0.7,0.1c4.7,0.6,9.1,5.2,11.7,12.2l0.1,0.3l-0.1,0.3
					c-2.2,3.8-3.5,8.2-3.7,12.7L50.4,42.7z M43,41.4h6.2c0.2-4.3,1.5-8.6,3.7-12.4C50.6,23,47,19,43,18.1V41.4z M25.4,42.7H14.9
					l0-0.7c0.5-11,7.8-20.7,18.3-24.1l0.6,1.1c-1.6,1.5-2.9,3.2-3.9,5c-3,5.5-4.5,11.8-4.5,18.1L25.4,42.7z M16.2,41.4h7.9
					c0.1-6.3,1.7-12.5,4.7-18c0.7-1.2,1.4-2.3,2.3-3.3C22.7,23.9,16.9,32.1,16.2,41.4z"/>
			</g>
			<g id="Path_70">
				<path class="st1" d="M77.8,55.3h-6.6c-0.6,0-1,0.5-1,1c0,0.6,0.5,1,1,1h5.6v6.4c0,0.6,0.4,1.1,1,1.1c0.6,0,1.1-0.4,1.1-1
					c0,0,0,0,0-0.1v-6.5c4.2-0.6,7.1-4.4,6.6-8.6c-0.5-3.8-3.8-6.6-7.6-6.6c-3.1,0-5.6-2.5-5.6-5.6s2.5-5.6,5.6-5.6h6.6
					c0.6,0,1-0.5,1-1s-0.5-1-1-1h-5.6v-6.4c0-0.6-0.4-1.1-1-1.1s-1.1,0.4-1.1,1c0,0,0,0,0,0.1v6.5c-4.2,0.6-7.1,4.4-6.6,8.6
					c0.5,3.8,3.8,6.6,7.6,6.6c3.1,0.1,5.5,2.7,5.4,5.8C83,52.9,80.7,55.2,77.8,55.3L77.8,55.3z"/>
				<path class="st1" d="M77.8,65.5C77.8,65.5,77.7,65.5,77.8,65.5c-0.5,0-0.9-0.2-1.2-0.5c-0.3-0.3-0.5-0.7-0.5-1.2V58h-5
					c-0.9,0-1.7-0.7-1.7-1.7c0-0.4,0.2-0.9,0.5-1.2c0.3-0.3,0.7-0.5,1.2-0.5h6.6c2.6-0.1,4.7-2.2,4.8-4.8c0.1-1.3-0.4-2.6-1.3-3.6
					c-0.9-1-2.1-1.5-3.5-1.6c0,0,0,0,0,0c-4.1,0-7.6-3.1-8.2-7.2c-0.3-2.2,0.3-4.4,1.6-6.1c1.2-1.6,3-2.7,4.9-3.1v-6
					c0-1,0.8-1.8,1.7-1.7c0.9,0,1.6,0.8,1.6,1.7v5.8h5c0.9,0,1.7,0.7,1.7,1.7c0,0.9-0.7,1.7-1.7,1.7h-6.6c-2.7,0-5,2.2-5,5
					c0,2.7,2.2,5,5,5c0,0,0,0,0,0c4.1,0,7.7,3.1,8.2,7.2c0.3,2.2-0.3,4.4-1.6,6.1c-1.2,1.6-3,2.7-4.9,3.1v6
					C79.4,64.8,78.7,65.5,77.8,65.5z M71.1,55.9c-0.1,0-0.2,0-0.3,0.1c-0.1,0.1-0.1,0.2-0.1,0.3c0,0.2,0.2,0.4,0.4,0.4h6.2v7
					c0,0.1,0,0.2,0.1,0.3c0.1,0.1,0.2,0.1,0.3,0.1c0.2,0,0.4-0.2,0.4-0.4v-7.1l0.5-0.1c1.9-0.3,3.5-1.2,4.7-2.7
					c1.1-1.5,1.6-3.3,1.4-5.2c-0.5-3.5-3.5-6.1-7-6.1c0,0,0,0,0,0c-3.4,0-6.2-2.8-6.2-6.2s2.8-6.2,6.2-6.2h6.6
					c0.2,0,0.4-0.2,0.4-0.4s-0.2-0.4-0.4-0.4h-6.2v-7c0-0.2-0.2-0.4-0.4-0.4c-0.2,0-0.4,0.2-0.4,0.4v7.1l-0.5,0.1
					c-1.9,0.3-3.5,1.2-4.7,2.7c-1.1,1.5-1.6,3.3-1.4,5.2c0.5,3.5,3.5,6.1,7,6.1c0,0,0,0,0,0c1.7,0.1,3.2,0.8,4.4,2
					c1.1,1.2,1.7,2.8,1.6,4.5c-0.1,3.2-2.8,5.8-6,6l0,0l0,0H71.1z"/>
			</g>
			<g id="Path_71">
				<path class="st1" d="M93.2,44.1h1.9c0.6,0,1-0.5,1-1.1c0-0.5-0.5-1-1-1h-1.9c-0.6,0-1,0.5-1,1.1C92.3,43.7,92.7,44.1,93.2,44.1z
					"/>
				<path class="st1" d="M93.2,44.8L93.2,44.8c-0.9,0-1.6-0.7-1.6-1.6c0-0.9,0.7-1.7,1.6-1.7l1.9,0c0.9,0,1.6,0.7,1.6,1.6
					c0,0.9-0.7,1.7-1.6,1.7L93.2,44.8z M93.3,43.5h1.9c0.2,0,0.4-0.2,0.4-0.4c0-0.2-0.2-0.4-0.4-0.4l-1.9,0c-0.2,0-0.4,0.2-0.4,0.4
					C92.9,43.3,93,43.5,93.3,43.5z"/>
			</g>
			<g id="Path_72">
				<path class="st1" d="M60,44.1c0.1,0.1,0.3,0.1,0.4,0.1h1.9c0.6,0,1.1-0.4,1.1-1s-0.4-1.1-1-1.1c0,0,0,0-0.1,0h-1.9
					c-0.6,0-1,0.5-1,1C59.4,43.5,59.6,43.9,60,44.1L60,44.1z"/>
				<path class="st1" d="M62.3,44.8C62.3,44.8,62.3,44.8,62.3,44.8l-1.9,0c-0.2,0-0.4,0-0.6-0.1l0,0c-0.6-0.3-1-0.9-1-1.5
					c0-0.9,0.7-1.7,1.7-1.7h1.9c0.5,0,0.9,0.2,1.2,0.5c0.3,0.3,0.5,0.7,0.5,1.2C64,44,63.2,44.8,62.3,44.8z M60.4,43.5h1.9
					c0.2,0,0.4-0.2,0.4-0.4c0-0.1,0-0.2-0.1-0.3c-0.1-0.1-0.2-0.1-0.3-0.1l-2,0c-0.2,0-0.4,0.2-0.4,0.4c0,0.2,0.1,0.3,0.3,0.4l0,0
					C60.3,43.5,60.3,43.5,60.4,43.5z"/>
			</g>
			<g id="Path_73">
				<path class="st1" d="M112.5,0H6.7C2.9,0-0.1,3.1-0.2,6.9v77.5c0,3.8,3.1,6.8,6.8,6.8h41.2l-3.2,15.5h-9.3c-0.6,0-1,0.5-1,1.1
					c0,0.5,0.5,1,1,1h38.3c0,0,0,0,0,0h10.1c0.6,0,1.1-0.4,1.1-1c0-0.6-0.4-1.1-1-1.1c0,0,0,0-0.1,0h-9.3l-3.2-15.5h41.2
					c3.8,0,6.8-3.1,6.8-6.8V6.9C119.3,3.1,116.3,0,112.5,0z M72.4,106.7H46.8L50,91.2h19.2L72.4,106.7z M117.3,84.4
					c0,2.6-2.1,4.7-4.8,4.8H6.7c-2.6,0-4.7-2.1-4.8-4.8V6.9c0-2.6,2.1-4.7,4.8-4.8h105.8c2.6,0,4.7,2.1,4.8,4.8L117.3,84.4
					L117.3,84.4z"/>
				<path class="st1" d="M83.9,109.4C83.8,109.4,83.8,109.4,83.9,109.4l-48.5,0c-0.9,0-1.6-0.7-1.6-1.6c0-0.9,0.7-1.7,1.6-1.7h8.8
					l2.9-14.2H6.7c-4.1,0-7.4-3.3-7.5-7.5V6.9c0-4.1,3.3-7.4,7.5-7.5h105.8c0,0,0,0,0,0c4.1,0,7.5,3.3,7.5,7.5v77.5
					c0,4.1-3.3,7.4-7.5,7.5H72.1l2.9,14.2h8.8c0.5,0,0.9,0.2,1.2,0.5c0.3,0.3,0.5,0.7,0.5,1.2s-0.2,0.9-0.5,1.2
					C84.7,109.3,84.3,109.4,83.9,109.4z M35.4,107.3c-0.2,0-0.4,0.2-0.4,0.4c0,0.2,0.2,0.4,0.4,0.4h48.4c0.1,0,0.2,0,0.3-0.1
					c0.1-0.1,0.1-0.2,0.1-0.3c0-0.2-0.2-0.4-0.4-0.4H74l-3.4-16.7h42c3.4,0,6.2-2.8,6.2-6.2V6.9c0-3.4-2.8-6.2-6.2-6.2c0,0,0,0,0,0
					H6.7c-3.4,0-6.2,2.8-6.2,6.2v77.5c0,3.4,2.8,6.2,6.2,6.2h42l-3.4,16.7H35.4z M73.2,107.4H46l3.5-16.7h20.2L73.2,107.4z
					 M47.6,106.1h24.1l-2.9-14.2H50.5L47.6,106.1z M112.5,89.8H6.7c-3,0-5.4-2.4-5.4-5.4V6.9c0-3,2.4-5.4,5.4-5.4h105.8
					c3,0,5.4,2.4,5.4,5.4l0,77.5C117.9,87.4,115.5,89.8,112.5,89.8z M6.7,2.7c-2.3,0-4.1,1.9-4.1,4.1v77.5c0,2.3,1.9,4.1,4.1,4.1
					h105.8c2.3,0,4.1-1.9,4.1-4.1l0-77.5c0-2.3-1.9-4.1-4.1-4.1H6.7z"/>
			</g>
			<g id="Path_74">
				<path class="st1" d="M112.4,6.4H6.8c-0.6,0-1,0.5-1,1c0,0,0,0,0,0v70.9c0,0.6,0.5,1,1,1c0,0,0,0,0,0h105.6c0.6,0,1-0.5,1-1
					c0,0,0,0,0,0V7.5C113.4,6.9,112.9,6.4,112.4,6.4C112.4,6.4,112.4,6.4,112.4,6.4z M111.3,77.3H7.8V8.5h103.5V77.3L111.3,77.3z"/>
				<path class="st1" d="M112.4,80C112.4,80,112.4,80,112.4,80H6.8c-0.4,0-0.9-0.2-1.2-0.5c-0.3-0.3-0.5-0.7-0.5-1.2V7.5
					c0-0.4,0.2-0.9,0.5-1.2C6,6,6.4,5.8,6.8,5.8c0,0,0,0,0,0h105.6c0.4,0,0.9,0.2,1.2,0.5S114,7,114,7.5v70.9c0,0.4-0.2,0.9-0.5,1.2
					C113.2,79.9,112.8,80,112.4,80z M6.8,7.1c-0.1,0-0.2,0-0.3,0.1S6.4,7.4,6.4,7.5v70.9c0,0.1,0,0.2,0.1,0.3
					c0.1,0.1,0.2,0.1,0.3,0.1h105.6c0,0,0,0,0,0c0.1,0,0.2,0,0.3-0.1c0.1-0.1,0.1-0.2,0.1-0.3V7.5c0-0.1,0-0.2-0.1-0.3
					c-0.1-0.1-0.2-0.1-0.3-0.1l0-0.6l0,0.6H6.8L6.8,7.1z M112,78l-0.6,0H7.2V7.9H112V78z M8.5,76.7h102.2V9.1H8.5V76.7z"/>
			</g>
			<g id="Path_75">
				<path class="st1" d="M66.9,83.1H52.3c-0.6,0-1.1,0.4-1.1,1s0.4,1.1,1,1.1c0,0,0,0,0.1,0h14.6c0.6,0,1.1-0.4,1.1-1
					C68,83.6,67.5,83.1,66.9,83.1C66.9,83.1,66.9,83.1,66.9,83.1z"/>
				<path class="st1" d="M66.9,85.8C66.9,85.8,66.9,85.8,66.9,85.8l-14.6,0c-0.5,0-0.9-0.2-1.2-0.5c-0.3-0.3-0.5-0.7-0.5-1.2
					c0-0.4,0.2-0.9,0.5-1.2c0.3-0.3,0.7-0.5,1.2-0.5l14.7,0c0.9,0,1.6,0.8,1.6,1.7c0,0.4-0.2,0.9-0.5,1.2
					C67.8,85.7,67.3,85.8,66.9,85.8z M52.3,83.7c-0.1,0-0.2,0-0.3,0.1c-0.1,0.1-0.1,0.2-0.1,0.3c0,0.1,0,0.2,0.1,0.3
					c0.1,0.1,0.2,0.1,0.3,0.1h14.6c0.1,0,0.2,0,0.3-0.1c0.1-0.1,0.1-0.2,0.1-0.3c0-0.2-0.2-0.4-0.4-0.4l0-0.6v0.6H52.3
					C52.3,83.7,52.3,83.7,52.3,83.7z"/>
			</g>
		</g>
	</g>
</g>
</svg>
