<?xml version="1.0" encoding="utf-8"?>
<!-- Generator: Adobe Illustrator 22.1.0, SVG Export Plug-In . SVG Version: 6.00 Build 0)  -->
<svg version="1.1" id="Layer_1" xmlns="http://www.w3.org/2000/svg" xmlns:xlink="http://www.w3.org/1999/xlink" x="0px" y="0px"
	 viewBox="0 0 196.9 196.9" style="enable-background:new 0 0 196.9 196.9;" xml:space="preserve">
<style type="text/css">
	.st0{fill:none;}
	.st1{fill:#E98024;}
	.st2{fill:#E98024;stroke:#FFFFFF;stroke-width:0.3;}
</style>
<g id="Group_1746" transform="translate(-622 -2997)">
	<g id="Group_1709" transform="translate(0.892 14.277)">
		<g id="Ellipse_805" transform="translate(621.108 2982.723)">
			<g>
				<circle class="st0" cx="98.4" cy="98.4" r="98.4"/>
			</g>
			<g>
				<path class="st1" d="M98.4,196.9C44.2,196.9,0,152.7,0,98.4C0,44.2,44.2,0,98.4,0s98.4,44.2,98.4,98.4
					C196.9,152.7,152.7,196.9,98.4,196.9z M98.4,5C46.9,5,5,46.9,5,98.4s41.9,93.4,93.4,93.4s93.4-41.9,93.4-93.4
					C191.9,46.9,150,5,98.4,5z"/>
			</g>
		</g>
	</g>
</g>
<g>
	<path class="st2" d="M100.4,118.7c0-4-1.3-7.2-3.9-9.7c-2.6-2.5-7.1-4.9-13.6-7.3c-7.4-2.4-13-5.2-16.5-8.5
		c-3.6-3.3-5.4-8-5.4-14.1c0-5.8,1.8-10.5,5.4-14.2c3.6-3.7,8.5-5.7,14.6-6.2V47.8h5.5v10.8c6.3,0.6,11.1,2.9,14.6,7
		c3.4,4.1,5.1,9.7,5,16.7l-0.2,0.3h-6c0-5.4-1.4-9.9-4.3-13.3c-2.9-3.4-6.9-5.1-12-5.1c-5.3,0-9.3,1.4-12.1,4.2
		c-2.7,2.8-4.1,6.3-4.1,10.5c0,4.1,1.2,7.4,3.7,9.9c2.4,2.5,7.1,4.9,14,7.2c7.4,2.5,12.9,5.3,16.5,8.6c3.6,3.3,5.3,7.9,5.3,13.9
		c0,5.9-1.9,10.7-5.6,14.3c-3.7,3.6-8.7,5.6-15,6.1v10.2h-5.4v-10.2c-6.5-0.4-11.9-2.5-16.1-6.2c-4.3-3.7-6.3-9.4-6.2-16.9l0.2-0.3
		h6c0,6.4,1.8,11,5.4,13.8c3.6,2.8,8,4.2,13.1,4.2c5.3,0,9.5-1.4,12.6-4.2C98.9,126.5,100.4,123,100.4,118.7z"/>
	<path class="st2" d="M138.4,138.3H132V66.4l-19.9,2.3v-4.5l26.3-4.7V138.3z"/>
</g>
</svg>
