<?xml version="1.0" encoding="utf-8"?>
<!-- Generator: Adobe Illustrator 22.1.0, SVG Export Plug-In . SVG Version: 6.00 Build 0)  -->
<svg version="1.1" id="Layer_1" xmlns="http://www.w3.org/2000/svg" xmlns:xlink="http://www.w3.org/1999/xlink" x="0px" y="0px"
	 viewBox="0 0 196.9 196.9" style="enable-background:new 0 0 196.9 196.9;" xml:space="preserve">
<style type="text/css">
	.st0{fill:none;}
	.st1{fill:#E98024;}
	.st2{enable-background:new    ;}
	.st3{fill:none;stroke:#E98024;stroke-width:0.75;}
</style>
<g id="Group_1746" transform="translate(-622 -2997)">
	<g id="Group_1709" transform="translate(0.892 14.277)">
		<g id="Ellipse_805" transform="translate(621.108 2982.723)">
			<g>
				<circle class="st0" cx="98.4" cy="98.4" r="98.4"/>
			</g>
			<g>
				<path class="st1" d="M98.4,196.9C44.2,196.9,0,152.7,0,98.4C0,44.2,44.2,0,98.4,0s98.4,44.2,98.4,98.4
					C196.9,152.7,152.7,196.9,98.4,196.9z M98.4,5C46.9,5,5,46.9,5,98.4c0,51.5,41.9,93.4,93.4,93.4s93.4-41.9,93.4-93.4
					C191.9,46.9,150,5,98.4,5z"/>
			</g>
		</g>
		<g id="Line_54">
			<rect x="701" y="3078" class="st1" width="37.1" height="4"/>
		</g>
		<g id="Line_55">
			<rect x="701" y="3092.5" class="st1" width="37.1" height="4"/>
		</g>
		<g id="Group_1745" transform="translate(1.13 -1)">
			<g class="st2">
				<path class="st1" d="M674.7,3098.9H671v-41.8l-11.6,1.3v-2.6l15.3-2.8V3098.9z"/>
				<path class="st1" d="M772.4,3098.9h-3.8v-41.8l-11.6,1.3v-2.6l15.3-2.8V3098.9z"/>
			</g>
			<g class="st2">
				<path class="st1" d="M655.3,3110.9v11.1c0,1.8-0.5,3.1-1.6,4.1c-1.1,0.9-2.5,1.4-4.3,1.4c-1.7,0-3.1-0.5-4.2-1.4
					s-1.6-2.3-1.6-4.1v-11.1h1.3v11.1c0,1.4,0.4,2.5,1.2,3.2s1.9,1.1,3.2,1.1c1.3,0,2.4-0.4,3.3-1.1s1.3-1.8,1.3-3.2v-11.1H655.3z"
					/>
				<path class="st1" d="M668.6,3123.2c0-0.9-0.3-1.6-1-2.2s-1.8-1.1-3.5-1.5c-1.8-0.4-3.1-1-4.1-1.8s-1.4-1.7-1.4-2.9
					c0-1.2,0.5-2.3,1.5-3.1c1-0.8,2.4-1.2,4-1.2c1.7,0,3,0.5,4.1,1.4s1.5,2.1,1.5,3.4l0,0.1h-1.2c0-1.1-0.4-2-1.2-2.7
					c-0.8-0.7-1.8-1.1-3.1-1.1c-1.3,0-2.3,0.3-3.1,0.9c-0.7,0.6-1.1,1.3-1.1,2.2c0,0.8,0.3,1.5,1,2.1c0.7,0.5,1.9,1,3.5,1.5
					c1.8,0.4,3.1,1.1,4,1.8c0.9,0.8,1.4,1.8,1.4,3c0,1.3-0.5,2.3-1.6,3.1c-1.1,0.8-2.4,1.2-4.1,1.2c-1.6,0-3.1-0.4-4.3-1.2
					c-1.2-0.8-1.8-2-1.8-3.6l0-0.1h1.2c0,1.3,0.5,2.2,1.4,2.8c1,0.6,2.1,0.9,3.4,0.9c1.3,0,2.3-0.3,3.1-0.9
					C668.2,3124.9,668.6,3124.1,668.6,3123.2z"/>
				<path class="st1" d="M673.1,3127.2v-16.4h4.8c2,0,3.6,0.7,5,2s2,3,2,5.1v2.1c0,2.1-0.7,3.8-2,5.1c-1.3,1.3-3,2-5,2H673.1z
					 M674.4,3112v14.1h3.4c1.6,0,2.9-0.6,4-1.7c1-1.1,1.6-2.6,1.6-4.3v-2.1c0-1.7-0.5-3.1-1.6-4.3s-2.4-1.7-4-1.7H674.4z"/>
				<path class="st1" d="M688.2,3127.2v-16.4h4.8c1.7,0,3,0.4,4,1.1c0.9,0.7,1.4,1.8,1.4,3.2c0,0.8-0.2,1.6-0.7,2.2
					c-0.5,0.6-1.1,1.1-1.9,1.3c1,0.2,1.8,0.6,2.4,1.4s0.9,1.6,0.9,2.6c0,1.5-0.5,2.6-1.4,3.4c-0.9,0.8-2.2,1.2-3.8,1.2H688.2z
					 M689.5,3118.2h3.8c1.2,0,2.1-0.3,2.7-0.8c0.6-0.5,1-1.3,1-2.3c0-1-0.3-1.8-1-2.3s-1.7-0.8-3-0.8h-3.4V3118.2z M689.5,3119.3
					v6.7h4.3c1.2,0,2.2-0.3,2.8-0.9c0.7-0.6,1-1.4,1-2.5c0-1-0.3-1.8-0.9-2.4c-0.6-0.6-1.5-0.9-2.7-0.9H689.5z"/>
			</g>
			<g class="st2">
				<path class="st3" d="M655.3,3110.9v11.1c0,1.8-0.5,3.1-1.6,4.1c-1.1,0.9-2.5,1.4-4.3,1.4c-1.7,0-3.1-0.5-4.2-1.4
					s-1.6-2.3-1.6-4.1v-11.1h1.3v11.1c0,1.4,0.4,2.5,1.2,3.2s1.9,1.1,3.2,1.1c1.3,0,2.4-0.4,3.3-1.1s1.3-1.8,1.3-3.2v-11.1H655.3z"
					/>
				<path class="st3" d="M668.6,3123.2c0-0.9-0.3-1.6-1-2.2s-1.8-1.1-3.5-1.5c-1.8-0.4-3.1-1-4.1-1.8s-1.4-1.7-1.4-2.9
					c0-1.2,0.5-2.3,1.5-3.1c1-0.8,2.4-1.2,4-1.2c1.7,0,3,0.5,4.1,1.4s1.5,2.1,1.5,3.4l0,0.1h-1.2c0-1.1-0.4-2-1.2-2.7
					c-0.8-0.7-1.8-1.1-3.1-1.1c-1.3,0-2.3,0.3-3.1,0.9c-0.7,0.6-1.1,1.3-1.1,2.2c0,0.8,0.3,1.5,1,2.1c0.7,0.5,1.9,1,3.5,1.5
					c1.8,0.4,3.1,1.1,4,1.8c0.9,0.8,1.4,1.8,1.4,3c0,1.3-0.5,2.3-1.6,3.1c-1.1,0.8-2.4,1.2-4.1,1.2c-1.6,0-3.1-0.4-4.3-1.2
					c-1.2-0.8-1.8-2-1.8-3.6l0-0.1h1.2c0,1.3,0.5,2.2,1.4,2.8c1,0.6,2.1,0.9,3.4,0.9c1.3,0,2.3-0.3,3.1-0.9
					C668.2,3124.9,668.6,3124.1,668.6,3123.2z"/>
				<path class="st3" d="M673.1,3127.2v-16.4h4.8c2,0,3.6,0.7,5,2s2,3,2,5.1v2.1c0,2.1-0.7,3.8-2,5.1c-1.3,1.3-3,2-5,2H673.1z
					 M674.4,3112v14.1h3.4c1.6,0,2.9-0.6,4-1.7c1-1.1,1.6-2.6,1.6-4.3v-2.1c0-1.7-0.5-3.1-1.6-4.3s-2.4-1.7-4-1.7H674.4z"/>
				<path class="st3" d="M688.2,3127.2v-16.4h4.8c1.7,0,3,0.4,4,1.1c0.9,0.7,1.4,1.8,1.4,3.2c0,0.8-0.2,1.6-0.7,2.2
					c-0.5,0.6-1.1,1.1-1.9,1.3c1,0.2,1.8,0.6,2.4,1.4s0.9,1.6,0.9,2.6c0,1.5-0.5,2.6-1.4,3.4c-0.9,0.8-2.2,1.2-3.8,1.2H688.2z
					 M689.5,3118.2h3.8c1.2,0,2.1-0.3,2.7-0.8c0.6-0.5,1-1.3,1-2.3c0-1-0.3-1.8-1-2.3s-1.7-0.8-3-0.8h-3.4V3118.2z M689.5,3119.3
					v6.7h4.3c1.2,0,2.2-0.3,2.8-0.9c0.7-0.6,1-1.4,1-2.5c0-1-0.3-1.8-0.9-2.4c-0.6-0.6-1.5-0.9-2.7-0.9H689.5z"/>
			</g>
			<g class="st2">
				<path class="st1" d="M766,3110.6v10.6c0,1.7-0.5,3-1.6,3.9s-2.4,1.4-4.1,1.4c-1.7,0-3-0.5-4-1.4c-1-0.9-1.5-2.2-1.5-3.9v-10.6
					h1.3v10.6c0,1.3,0.4,2.4,1.2,3.1c0.8,0.7,1.8,1.1,3.1,1.1c1.3,0,2.3-0.4,3.1-1.1c0.8-0.7,1.2-1.8,1.2-3.1v-10.6H766z"/>
				<path class="st1" d="M778.8,3122.4c0-0.9-0.3-1.5-1-2.1c-0.6-0.5-1.7-1-3.3-1.4c-1.7-0.4-3-1-3.9-1.7s-1.3-1.6-1.3-2.8
					c0-1.2,0.5-2.2,1.5-2.9s2.3-1.1,3.8-1.1c1.6,0,2.9,0.4,3.9,1.3s1.5,2,1.4,3.3l0,0.1h-1.2c0-1-0.4-1.9-1.1-2.6s-1.7-1-3-1
					c-1.3,0-2.2,0.3-2.9,0.8s-1.1,1.3-1.1,2.1c0,0.8,0.3,1.4,1,2c0.7,0.5,1.8,1,3.4,1.4c1.7,0.4,3,1,3.8,1.7s1.3,1.7,1.3,2.9
					c0,1.2-0.5,2.2-1.5,3s-2.3,1.1-3.9,1.1c-1.6,0-2.9-0.4-4.1-1.2c-1.2-0.8-1.7-1.9-1.7-3.4l0-0.1h1.2c0,1.2,0.5,2.1,1.4,2.7
					c0.9,0.6,2,0.9,3.2,0.9c1.2,0,2.2-0.3,3-0.8C778.4,3124,778.8,3123.3,778.8,3122.4z"/>
				<path class="st1" d="M783.1,3126.2v-15.6h4.5c1.9,0,3.5,0.6,4.7,1.9s1.9,2.9,1.9,4.9v2c0,2-0.6,3.6-1.9,4.9s-2.8,1.9-4.7,1.9
					H783.1z M784.4,3111.7v13.4h3.3c1.5,0,2.8-0.5,3.8-1.6c1-1.1,1.5-2.4,1.5-4.1v-2c0-1.6-0.5-3-1.5-4.1c-1-1.1-2.3-1.6-3.8-1.6
					H784.4z"/>
			</g>
			<g class="st2">
				<path class="st3" d="M766,3110.6v10.6c0,1.7-0.5,3-1.6,3.9s-2.4,1.4-4.1,1.4c-1.7,0-3-0.5-4-1.4c-1-0.9-1.5-2.2-1.5-3.9v-10.6
					h1.3v10.6c0,1.3,0.4,2.4,1.2,3.1c0.8,0.7,1.8,1.1,3.1,1.1c1.3,0,2.3-0.4,3.1-1.1c0.8-0.7,1.2-1.8,1.2-3.1v-10.6H766z"/>
				<path class="st3" d="M778.8,3122.4c0-0.9-0.3-1.5-1-2.1c-0.6-0.5-1.7-1-3.3-1.4c-1.7-0.4-3-1-3.9-1.7s-1.3-1.6-1.3-2.8
					c0-1.2,0.5-2.2,1.5-2.9s2.3-1.1,3.8-1.1c1.6,0,2.9,0.4,3.9,1.3s1.5,2,1.4,3.3l0,0.1h-1.2c0-1-0.4-1.9-1.1-2.6s-1.7-1-3-1
					c-1.3,0-2.2,0.3-2.9,0.8s-1.1,1.3-1.1,2.1c0,0.8,0.3,1.4,1,2c0.7,0.5,1.8,1,3.4,1.4c1.7,0.4,3,1,3.8,1.7s1.3,1.7,1.3,2.9
					c0,1.2-0.5,2.2-1.5,3s-2.3,1.1-3.9,1.1c-1.6,0-2.9-0.4-4.1-1.2c-1.2-0.8-1.7-1.9-1.7-3.4l0-0.1h1.2c0,1.2,0.5,2.1,1.4,2.7
					c0.9,0.6,2,0.9,3.2,0.9c1.2,0,2.2-0.3,3-0.8C778.4,3124,778.8,3123.3,778.8,3122.4z"/>
				<path class="st3" d="M783.1,3126.2v-15.6h4.5c1.9,0,3.5,0.6,4.7,1.9s1.9,2.9,1.9,4.9v2c0,2-0.6,3.6-1.9,4.9s-2.8,1.9-4.7,1.9
					H783.1z M784.4,3111.7v13.4h3.3c1.5,0,2.8-0.5,3.8-1.6c1-1.1,1.5-2.4,1.5-4.1v-2c0-1.6-0.5-3-1.5-4.1c-1-1.1-2.3-1.6-3.8-1.6
					H784.4z"/>
			</g>
		</g>
	</g>
</g>
</svg>
