<?xml version="1.0" encoding="utf-8"?>
<!-- Generator: Adobe Illustrator 22.1.0, SVG Export Plug-In . SVG Version: 6.00 Build 0)  -->
<svg version="1.1" id="Layer_1" xmlns="http://www.w3.org/2000/svg" xmlns:xlink="http://www.w3.org/1999/xlink" x="0px" y="0px"
	 viewBox="0 0 196.9 196.9" style="enable-background:new 0 0 196.9 196.9;" xml:space="preserve">
<style type="text/css">
	.st0{fill:none;}
	.st1{fill:#E98024;}
</style>
<g id="Group_1728" transform="translate(-944.97 -10514.644)">
	<g id="Ellipse_811" transform="translate(944.97 10514.644)">
		<g>
			<circle class="st0" cx="98.4" cy="98.4" r="98.4"/>
		</g>
		<g>
			<path class="st1" d="M98.4,196.9C44.2,196.9,0,152.7,0,98.4S44.2,0,98.4,0s98.4,44.2,98.4,98.4S152.7,196.9,98.4,196.9z M98.4,5
				C46.9,5,5,46.9,5,98.4s41.9,93.4,93.4,93.4s93.4-41.9,93.4-93.4S150,5,98.4,5z"/>
		</g>
	</g>
	<g>
		<path class="st1" d="M1018.4,10585.8c-0.9-1.1-2.5-1.3-3.6-0.4l-32.4,25.7c-0.6,0.5-1,1.2-1,2c0,0.8,0.4,1.5,1,2l32.4,25.7
			c0.5,0.4,1,0.5,1.6,0.5c0.7,0,1.5-0.3,2-1c0.9-1.1,0.7-2.7-0.4-3.6l-29.9-23.7l29.9-23.7
			C1019,10588.5,1019.2,10586.9,1018.4,10585.8z M1104.5,10611.1l-32.4-25.7c-1.1-0.9-2.7-0.7-3.6,0.4c-0.9,1.1-0.7,2.7,0.4,3.6
			l29.9,23.7l-29.9,23.7c-1.1,0.9-1.3,2.5-0.4,3.6c0.5,0.6,1.2,1,2,1c0.6,0,1.1-0.2,1.6-0.5l32.4-25.7c0.6-0.5,1-1.2,1-2
			C1105.4,10612.3,1105.1,10611.6,1104.5,10611.1z M1058.6,10571.3c-1.3-0.5-2.8,0.2-3.2,1.5l-28.7,78.8c-0.5,1.3,0.2,2.8,1.5,3.2
			c0.3,0.1,0.6,0.2,0.9,0.2c1,0,2-0.6,2.4-1.7l28.7-78.8C1060.6,10573.2,1059.9,10571.8,1058.6,10571.3z"/>
		<path class="st1" d="M1029.1,10655.2c-0.3,0-0.6-0.1-0.9-0.2c-1.4-0.5-2.1-2-1.6-3.4l28.7-78.8c0.2-0.7,0.7-1.2,1.4-1.5
			c0.6-0.3,1.4-0.3,2-0.1c1.4,0.5,2.1,2,1.6,3.4l-28.7,78.8C1031.2,10654.5,1030.2,10655.2,1029.1,10655.2z M1057.8,10571.3
			c-0.3,0-0.7,0.1-1,0.2c-0.6,0.3-1,0.8-1.3,1.4l-28.7,78.8c-0.5,1.2,0.2,2.6,1.4,3.1c0.3,0.1,0.5,0.1,0.8,0.1c1,0,1.9-0.6,2.3-1.6
			l28.7-78.8c0.5-1.2-0.2-2.6-1.4-3.1v0C1058.3,10571.3,1058,10571.3,1057.8,10571.3z M1070.5,10641.5c-0.8,0-1.6-0.4-2.1-1
			c-0.4-0.6-0.6-1.2-0.6-2c0.1-0.7,0.4-1.3,1-1.8l29.8-23.6l-29.8-23.6c-0.6-0.4-0.9-1.1-1-1.8c-0.1-0.7,0.1-1.4,0.6-2
			c0.4-0.6,1.1-0.9,1.8-1c0.7-0.1,1.4,0.1,2,0.6l32.4,25.7c0.6,0.5,1,1.3,1,2.1c0,0.8-0.4,1.6-1,2.1l-32.4,25.7
			C1071.6,10641.3,1071.1,10641.5,1070.5,10641.5z M1070.5,10585c-0.1,0-0.2,0-0.3,0c-0.6,0.1-1.2,0.4-1.6,0.9
			c-0.4,0.5-0.6,1.1-0.5,1.8c0.1,0.6,0.4,1.2,0.9,1.6l30,23.8l-0.1,0.1l-29.9,23.7c-0.5,0.4-0.8,1-0.9,1.6c-0.1,0.6,0.1,1.3,0.5,1.8
			c0.5,0.6,1.1,0.9,1.9,0.9c0.5,0,1.1-0.2,1.5-0.5l32.4-25.7c0.6-0.5,0.9-1.1,0.9-1.9c0-0.7-0.3-1.4-0.9-1.9l-32.4-25.7
			C1071.5,10585.1,1071,10585,1070.5,10585z M1016.4,10641.5c-0.6,0-1.2-0.2-1.7-0.6l-32.4-25.7c-0.6-0.5-1-1.3-1-2.1
			c0-0.8,0.4-1.6,1-2.1l32.4-25.7c1.1-0.9,2.8-0.7,3.7,0.4h0c0.4,0.6,0.6,1.3,0.6,2c-0.1,0.7-0.4,1.3-1,1.8l-29.8,23.6l29.8,23.6
			c0.6,0.4,0.9,1.1,1,1.8c0.1,0.7-0.1,1.4-0.6,2C1017.9,10641.1,1017.2,10641.5,1016.4,10641.5z M1016.4,10585
			c-0.5,0-1.1,0.2-1.5,0.5l-32.4,25.7c-0.6,0.5-0.9,1.1-0.9,1.9c0,0.7,0.3,1.4,0.9,1.9l32.4,25.7c0.4,0.3,0.9,0.5,1.5,0.5
			c0.7,0,1.4-0.3,1.9-0.9c0.4-0.5,0.6-1.1,0.5-1.8s-0.4-1.2-0.9-1.6l-30-23.8l0.1-0.1l29.9-23.7c0.5-0.4,0.8-1,0.9-1.6
			c0.1-0.6-0.1-1.3-0.5-1.8l0,0C1017.8,10585.3,1017.1,10585,1016.4,10585z"/>
	</g>
</g>
</svg>
